<mxfile host="app.diagrams.net" modified="2024-05-02T08:41:11.474Z" agent="Mozilla/5.0 (Windows NT 10.0; Win64; x64) AppleWebKit/537.36 (KHTML, like Gecko) Chrome/124.0.0.0 Safari/537.36" etag="S5-F8jNWeNcXixhaNJuA" version="24.3.1" type="device">
  <diagram name="Page-1" id="7zxUjuvdRuIu4WjkpWIH">
    <mxGraphModel dx="10428" dy="3108" grid="1" gridSize="10" guides="1" tooltips="1" connect="1" arrows="1" fold="1" page="1" pageScale="1" pageWidth="850" pageHeight="1100" math="0" shadow="0">
      <root>
        <mxCell id="0" />
        <mxCell id="1" parent="0" />
        <UserObject label="" plantUmlData="{&quot;data&quot;:&quot;@startuml\n\nclass AppUi {\n    + public void start(Stage primaryStage) throws Exception\n    + public void startWithController(String db, mainscreenController controller)\n    + public static void main(String[] args)\n}\n\nclass App2 {\n    + public void start(Stage primaryStage) throws Exception\n    + public void startWithController(String db, mainscreen2controller controller)\n    + public static void main(String[] args)\n}\n\nclass DisplayData {\n    + public interface DisplayData\n}\n\nclass Screen3Controller {\n    + public void initialize(double latitude, double longitude, String db, DUI_DB executeflow_sql, DUI_Txt executeflow_txt)\n    + public void setAirPollutionData(AirPollutionAPIData DataObject)\n}\n\nclass TerminalUI {\n    + public static void addLocation()\n    + public static void addLocationByCoordinates()\n    + public static void addLocationByCityName()\n    + public static void displayWeatherOptions()\n    + public static void showCurrentWeather()\n    + public void RetriveAirPollutionData(AirPollutionAPIData AirPoll)\n    + public void displayAirPollutionData(String city, double lat, double lon, long dt, int aqi,  double co, double no, double no2,  double o3, double so2, double pm2_5,  double pm10, double nh3)\n    + public void RetriveCurrentWeatherData(CurrentWeatherAPIData currentWeatherData)\n    + public void displayCurrentWeatherData(double lat, double lon, int weatherID, String weatherMain, String weatherDescription, double temp, double feelsLike,  double tempMin, double tempMax, int pressure, int humidity, int visibility, double windSpeed, int windDeg, int cloudsAll, int dt, String country, int sunrise, int sunset, int timezone, String cityName)\n    + public void setMainWindow(Stage mainwindow)\n    + void onlatsearch(ActionEvent event)\n    + public void initialize()\n}\nclass Ui2controller {\n    + public void setMainWindow(Stage mainwindow)\n    + void oncitysearch(ActionEvent event)\n    + void onlatsearch(ActionEvent event)\n    + public void initialize()\n}\n\nclass Uicontroller {\n    + public void setMainWindow(Stage mainwindow)\n    + void oncitysearch(ActionEvent event)\n    + void onlatsearch(ActionEvent event)\n    + public void initialize()\n}\n\nclass WeatherControllerInterfacemain {\n    + void updateUI(mainscreenController controller CurrentWeatherAPIData jsonObject)\n    + void updateForecast(WeatherForecastAPIData dataObj)\n}\n\nclass mainscreen2controller {\n    + public mainscreen2controller(String db)\n    + void initialize()\n    + public mainscreen2controller()\n    + public void setMainWindow(Stage mainwindow)\n    + public void initialize(String lat, String lon)\n    + public void initialize(String cityName)\n    + void ExpandAirPollutionInfo(ActionEvent event)\n    + void SearchWeatherButton(ActionEvent event)\n    + public void showNotification(String title, String message, AlertType alertType)\n    + public void updateUI(mainscreen2controller controller, CurrentWeatherAPIData jsonObject)\n    + private String formatTime(int timeInSeconds, int timezone)\n    + public void updateForecast(WeatherForecastAPIData DataObj)\n    + public void updateForecastForDay(int dayIndex, double minTemperature, double maxTemperature, String weatherCondition, String iconUrl)\n    + private String getDayName(int dayIndex)\n    + private String formatTemperature(double temperature)\n}\n\nclass mainscreenController {\n    + public void showNotification(String title, String message, AlertType alertType)\n    + public mainscreenController(String db)\n    + void initialize()\n    + private void setDayAndDate()\n    + public mainscreenController()\n    + public void setMainWindow(Stage mainwindow)\n    + public void initialize(String lat, String lon)\n    + public void initialize(String cityName)\n    + void ExpandAirPollutionInfo(ActionEventevent)\n    + void SearchWeatherButton(ActionEvent event)\n    + public void updateUI(mainscreenController controller, CurrentWeatherAPIData jsonObject)\n    + public void updateForecast(WeatherForecastAPIData DataObj)\n    + public void updateForecastForDay(int dayIndex, double minTemperature, double maxTemperature, String weatherCondition, String iconUrl)\n    + private String getDayName(int dayIndex)\n    + private String formatTemperature(double temperature)\n}\n\nclass BusinessLogic {\n    + public class DUIFiller\n    + public void SearchByCoord(double lat, double lon)\n    + public void CheckCurrWeatherCoord(double lat, double lon)\n    + public void CheckCurrWeatherCity(String City)\n    + public void CheckAirPollCoord(double lat, double lon)\n    + public void CheckForecastCity(String City)\n    + public void CheckForecastCoord(double lat, double lon)\n    + public void runGUI()\n    + public void Flow(String city)\n    + public void Flow(double lat, double longi)\n}\n\nclass OpenWeatherApi {\n    + public class AirPollutionAPI implements InterfaceAPI\n    + public void parseJSON(JsonObject jsonObject, AirPollutionAPIData obj, String CityName)\n    + public URL APIcall(double latitude, double longitude)\n    + public JsonObject performAPICall(URL apiUrl)\n    + public URL APIcall(String cityName)\n    + public void generateNotification(int aqi)\n    + public static void main(String[] args)\n    + public class CurrentWeatherAPI implements InterfaceAPI\n    + public void parseJSON(JsonObject jsonObject, CurrentWeatherAPIData obj)\n    + public URL APIcall(double latitude, double longitude)\n    + public URL APIcall(String cityName)\n    + public JsonObject performAPICall(URL apiUrl)\n    + public void SearchByCity(String CityName, CurrentWeatherAPIData obj)\n    + public void SearchByCoord(double latitude, double longitude, CurrentWeatherAPIData obj)\n    + public static void main(String[] args)\n   + public interface InterfaceAPI\n    + URL APIcall(double latitude, double longitude)\n    + URL APIcall(String cityName)\n    + public class WeatherForecast5Days implements InterfaceAPI\n    + public void parseJSON(JsonObject jsonObject, WeatherForecastAPIData obj, float latitude, float longitude)\n    + public void parseJSON(JsonObject jsonObject, WeatherForecastAPIData obj)\n    + public URL APIcall(double latitude, double longitude)\n    + public URL APIcall(String cityName)\n    + public JsonObject performAPICall(URL apiUrl)\n    + public void SearchByCity(String CityName, WeatherForecastAPIData obj)\n    + public void SearchByCoord(double latitude, double longitude, WeatherForecastAPIData obj)\n    + public static void main(String[] args)\n}\n\nclass WeatherAppRunner {\n    + public class WeatherAppRunner\n    + WeatherAppRunner()\n    + public void RunDUI_TXT()\n    + public void RunDUI_SQL()\n}\n\nclass CacheManager {\n    + public interface CacheManager\n    + public Boolean checkAirPollutionData(double latitude, double longitude)\n    + public Boolean checkCurrentWeatherData(double latitude, double longitude)\n    + public Boolean checkWeatherForecastData(double latitude, double longitude)\n    + public Boolean checkCurrentWeatherData(String cityName)\n    + public Boolean checkWeatherForecastData(String cityName)\n    + public Boolean checkAirPollutionData(String cityName)\n    + public void fetchAirPollutionData(AirPollutionAPIData AirPoll, double latitude, double longitude)\n    + public void fetchCurrentWeatherData(CurrentWeatherAPIData CurrentWeather, double latitude, double longitude)\n    + public void fetchWeatherForecastData(WeatherForecastAPIData Forecast,double latitude, double longitude)\n    + public void fetchCurrentWeatherData(CurrentWeatherAPIData CurrentWeather, String cityName)\n    + public void fetchWeatherForecastData(WeatherForecastAPIDataForecast,String cityName)\n    + public void fetchAirPollutionData(AirPollutionAPIData AirPoll,String cityName)\n}\n\nclass DBmanager {\n    + public class DBAirPollDat implements AirpollCache\n    + public Boolean checkAirPollutionData(double latitude, double longitude)\n    + public Boolean checkAirPollutionData(String cityName)\n    + public void fetchAirPollutionData(AirPollutionAPIData AirPoll, double latitude, double longitude)\n    + public void fetchAirPollutionData(AirPollutionAPIData AirPoll, String cityName)\n    + public void insertWeatherData(AirPollutionAPIData jsonObject)\n    + public void updateExistingRecord(AirPollutionAPIData jsonObject)\n    + public boolean isDataPresentCoord(double latitude, double longitude)\n    + public boolean isDataPresentByCityName(String cityName)\n    + public AirPollutionAPIData displayDataFromDatabaseByCityName(String cityName)\n    + public AirPollutionAPIData displayDataFromDatabaseByLatLon(double latitude, double longitude)\n    + private AirPollutionAPIData displayData(ResultSet resultSet) throws SQLException\n    + public void deleteOldData()\n    + public class DBCurrWeather implements CurrWeatherCache\n    + public Boolean checkCurrentWeatherData(double latitude, double longitude)\n    + public Boolean checkCurrentWeatherData(String cityName)\n    + public void fetchCurrentWeatherData(CurrentWeatherAPIData currentWeather, double latitude, double longitude)\n    + public void fetchCurrentWeatherData(CurrentWeatherAPIData currentWeather, String cityName)\n    + public void insertWeatherData(CurrentWeatherAPIData jsonObject)\n    + public boolean isDataPresentByLatLon(double latitude, double longitude)\n    + public CurrentWeatherAPIData displayDataFromDatabaseByLatLon(double latitude, double longitude)\n    + public CurrentWeatherAPIData displayDataFromDatabaseByCityName(String cityName)\n    + private CurrentWeatherAPIData displayData(ResultSet resultSet) throws SQLException\n    + public void deleteOldData()\n    + public class DBFrcst5Day implements ForecastCache\n    + public Boolean checkWeatherForecastData(double latitude, double longitude)\n    + public Boolean checkWeatherForecastData(String cityName)\n    + public void fetchWeatherForecastData(WeatherForecastAPIData forecast, double latitude, double longitude)\n    + public void fetchWeatherForecastData(WeatherForecastAPIData forecast, String cityName)\n    + public void insertWeatherData(WeatherForecastAPIData jsonObject)\n    + public boolean isDataPresentByCityName(String cityName)\n    + public boolean isDataPresentByLatLon(double latitude, double longitude)\n    + public WeatherForecastAPIData displayDataFromDatabaseByCityName(String cityName)\n    + public WeatherForecastAPIData displayDataFromDatabaseByLatLon(double latitude, double longitude)\n    + public WeatherForecastAPIData displayDataAsArray(ResultSet resultSet) throws SQLException\n    + public void deleteOldData()\n    + public class createTables\n    + public void Table_Air_Pollution()\n    + public void Table_weather_Forecast()\n}\n\nclass Datahandinling {\n    + public class DataHandlingTxT implements CacheManager\n    + public Boolean checkAirPollutionData(double latitude, double longitude)\n    + public Boolean checkCurrentWeatherData(double latitude, double longitude)\n    + public Boolean checkWeatherForecastData(double latitude, double longitude)\n    + public Boolean checkCurrentWeatherData(String cityName)\n    + public Boolean checkWeatherForecastData(String cityName)\n    + public Boolean checkAirPollutionData(String cityName)\n    + public void fetchAirPollutionData(AirPollutionAPIData AirPoll, double latitude, double longitude)\n    + public void fetchAirPollutionData(AirPollutionAPIData AirPoll, String cityName)\n    + private void populateAirPollutionData(AirPollutionAPIData airPollutionData, String data)+ public void fetchCurrentWeatherData(CurrentWeatherAPIData CurrentWeather, double latitude, double longitude)\n    + private void populateCurrentWeatherData(CurrentWeatherAPIData currentWeather, String data)\n    + public void fetchWeatherForecastData(WeatherForecastAPIData Forecast, double latitude, double longitude)\n    + public void fetchWeatherForecastData(WeatherForecastAPIData Forecast, String cityName)\n    + private void populateWeatherForecastData(WeatherForecastAPIData forecast, String data)\n    + public Boolean checkData(String filename, double latitude, double longitude)\n    + public Boolean checkData(String filename, String cityName)\n    + public String FetchData(String filename, double latitude, double longitude)\n    + public String FetchData(String filename, String cityName)\n    + public class WeatherDataTxtStorage implements StoreTxt\n    + public void storeAirPollutionData(AirPollutionAPIData airPollutionData)\n    + public void storeCurrentWeatherData(CurrentWeatherAPIData currentWeatherData)\n    + public void storeWeatherForecastData(WeatherForecastAPIData data)\n    + public void deleteOldData()\n}\n\nclass JDBC {\n    + public class MySQLConnection\n    + public static Connection getConnection() throws SQLException\n}\n\nAppUi -- \&quot;1\&quot; DisplayData\nAppUi -- \&quot;1\&quot; Screen3Controller\nAppUi -- \&quot;1\&quot; TerminalUI\nAppUi -- \&quot;1\&quot; Ui2controller\nAppUi -- \&quot;1\&quot; Uicontroller\nAppUi o-- \&quot;1..*\&quot; WeatherControllerInterfacemain\n\nDisplayData &lt;|.. Screen3Controller\nDisplayData &lt;|.. TerminalUI\nDisplayData &lt;|.. Ui2controller\nDisplayData &lt;|.. Uicontroller\n\nScreen3Controller -- \&quot;1\&quot; AirPollutionAPIData\nTerminalUI -- \&quot;1\&quot; AirPollutionAPIData\nUi2controller -- \&quot;1\&quot; AirPollutionAPIData\nUicontroller -- \&quot;1\&quot; AirPollutionAPIData\n\nBusinessLogic -- \&quot;1\&quot; DUIFiller\nOpenWeatherApi -- \&quot;1\&quot; AirPollutionAPI\nOpenWeatherApi -- \&quot;1\&quot; CurrentWeatherAPI\nOpenWeatherApi -- \&quot;1\&quot; WeatherForecast5Days\n\nWeatherAppRunner -- \&quot;1\&quot; CacheManager\n\nCacheManager &lt;|-- DBAirPollDat\nCacheManager &lt;|-- DBCurrWeather\nCacheManager &lt;|-- DBFrcst5Day\n\nDBmanager -- \&quot;1\&quot; createTables\n\nDatahandinling -- \&quot;1\&quot; DataHandlingTxT\nDatahandinling -- \&quot;1\&quot; WeatherDataTxtStorage\n\nJDBC ..&gt; Datahandinling\n\nmainscreen2controller \&quot;1\&quot; -- \&quot;0..1\&quot; App2\nmainscreen2controller \&quot;1\&quot; -- \&quot;0..1\&quot; mainscreenController\n@enduml&quot;,&quot;format&quot;:&quot;svg&quot;}" id="LDGm0VtzsUVBcBkHpP2W-1">
          <mxCell style="shape=image;noLabel=1;verticalAlign=top;aspect=fixed;imageAspect=0;image=data:image/svg+xml,PD94bWwgdmVyc2lvbj0iMS4wIiBlbmNvZGluZz0idXMtYXNjaWkiIHN0YW5kYWxvbmU9Im5vIj8+PHN2ZyB4bWxucz0iaHR0cDovL3d3dy53My5vcmcvMjAwMC9zdmciIHhtbG5zOnhsaW5rPSJodHRwOi8vd3d3LnczLm9yZy8xOTk5L3hsaW5rIiBjb250ZW50U3R5bGVUeXBlPSJ0ZXh0L2NzcyIgaGVpZ2h0PSIxNDk1cHgiIHByZXNlcnZlQXNwZWN0UmF0aW89Im5vbmUiIHN0eWxlPSJ3aWR0aDo5MTI5cHg7aGVpZ2h0OjE0OTVweDtiYWNrZ3JvdW5kOiNGRkZGRkY7IiB2ZXJzaW9uPSIxLjEiIHZpZXdCb3g9IjAgMCA5MTI5IDE0OTUiIHdpZHRoPSI5MTI5cHgiIHpvb21BbmRQYW49Im1hZ25pZnkiPjxkZWZzLz48Zz48IS0tY2xhc3MgQXBwVWktLT48ZyBpZD0iZWxlbV9BcHBVaSI+PHJlY3QgY29kZUxpbmU9IjEiIGZpbGw9IiNGMUYxRjEiIGhlaWdodD0iOTIuOTUzMSIgaWQ9IkFwcFVpIiByeD0iMi41IiByeT0iMi41IiBzdHlsZT0ic3Ryb2tlOiMxODE4MTg7c3Ryb2tlLXdpZHRoOjAuNTsiIHdpZHRoPSI1NTQiIHg9IjI5ODYuNSIgeT0iMjc2LjUiLz48ZWxsaXBzZSBjeD0iMzI0MS43NSIgY3k9IjI5Mi41IiBmaWxsPSIjQUREMUIyIiByeD0iMTEiIHJ5PSIxMSIgc3R5bGU9InN0cm9rZTojMTgxODE4O3N0cm9rZS13aWR0aDoxLjA7Ii8+PHBhdGggZD0iTTMyMzkuMzc1LDI5Ni43NSBMMzIzOS4zNzUsMjk4LjUgTDMyNDQuMzEyNSwyOTguNSBMMzI0NC4zMTI1LDI5Ni43NSBMMzIzOS4zNzUsMjk2Ljc1IFogTTMyNDAuMDYyNSwyOTcuNDM3NSBRMzI0MC4wNjI1LDI5Ny40Mzc1IDMyNDAuMDYyNSwyODguMjUgTDMyMzguMzEyNSwyODguMjUgUTMyMzguMzEyNSwyODguMjUgMzIzOC4zMTI1LDI5Ny40Mzc1IEwzMjQwLjA2MjUsMjk3LjQzNzUgWiBNMzI0My42MjUsMjk3LjQzNzUgTDMyNDUuMzc1LDI5Ny40Mzc1IFEzMjQ1LjM3NSwyOTcuNDM3NSAzMjQ1LjM3NSwyOTQuNjI1IEwzMjQzLjYyNSwyOTQuNjI1IFEzMjQzLjYyNSwyOTQuNjI1IDMyNDMuNjI1LDI5Ny40Mzc1IFogTTMyNDMuNjI1LDI4OC4yNSBRMzI0My42MjUsMjg4LjI1IDMyNDMuNjI1LDI5MS4wNjI1IEwzMjQ1LjM3NSwyOTEuMDYyNSBRMzI0NS4zNzUsMjkxLjA2MjUgMzI0NS4zNzUsMjg4LjI1IEwzMjQzLjYyNSwyODguMjUgWiBNMzIzOS4zNzUsMjg4LjkzNzUgTDMyNDQuMzEyNSwyODguOTM3NSBMMzI0NC4zMTI1LDI4Ny4xODc1IEwzMjM5LjM3NSwyODcuMTg3NSBMMzIzOS4zNzUsMjg4LjkzNzUgWiAiIGZpbGw9IiMwMDAwMDAiLz48dGV4dCBmaWxsPSIjMDAwMDAwIiBmb250LWZhbWlseT0ic2Fucy1zZXJpZiIgZm9udC1zaXplPSIxNCIgbGVuZ3RoQWRqdXN0PSJzcGFjaW5nIiB0ZXh0TGVuZ3RoPSIzNSIgeD0iMzI2Mi4yNSIgeT0iMjk4LjI0MjIiPkFwcFVpPC90ZXh0PjxsaW5lIHN0eWxlPSJzdHJva2U6IzE4MTgxODtzdHJva2Utd2lkdGg6MC41OyIgeDE9IjI5ODcuNSIgeDI9IjM1MzkuNSIgeTE9IjMwOC41IiB5Mj0iMzA4LjUiLz48bGluZSBzdHlsZT0ic3Ryb2tlOiMxODE4MTg7c3Ryb2tlLXdpZHRoOjAuNTsiIHgxPSIyOTg3LjUiIHgyPSIzNTM5LjUiIHkxPSIzMTYuNSIgeTI9IjMxNi41Ii8+PGVsbGlwc2UgY3g9IjI5OTcuNSIgY3k9IjMyOS40OTIyIiBmaWxsPSIjODRCRTg0IiByeD0iMyIgcnk9IjMiIHN0eWxlPSJzdHJva2U6IzAzODA0ODtzdHJva2Utd2lkdGg6MS4wOyIvPjx0ZXh0IGZpbGw9IiMwMDAwMDAiIGZvbnQtZmFtaWx5PSJzYW5zLXNlcmlmIiBmb250LXNpemU9IjE0IiBsZW5ndGhBZGp1c3Q9InNwYWNpbmciIHRleHRMZW5ndGg9IjM4MiIgeD0iMzAwNi41IiB5PSIzMzMuNzM0NCI+cHVibGljIHZvaWQgc3RhcnQoU3RhZ2UgcHJpbWFyeVN0YWdlKSB0aHJvd3MgRXhjZXB0aW9uPC90ZXh0PjxlbGxpcHNlIGN4PSIyOTk3LjUiIGN5PSIzNDQuNDc2NiIgZmlsbD0iIzg0QkU4NCIgcng9IjMiIHJ5PSIzIiBzdHlsZT0ic3Ryb2tlOiMwMzgwNDg7c3Ryb2tlLXdpZHRoOjEuMDsiLz48dGV4dCBmaWxsPSIjMDAwMDAwIiBmb250LWZhbWlseT0ic2Fucy1zZXJpZiIgZm9udC1zaXplPSIxNCIgbGVuZ3RoQWRqdXN0PSJzcGFjaW5nIiB0ZXh0TGVuZ3RoPSI1MjgiIHg9IjMwMDYuNSIgeT0iMzQ4LjcxODgiPnB1YmxpYyB2b2lkIHN0YXJ0V2l0aENvbnRyb2xsZXIoU3RyaW5nIGRiLCBtYWluc2NyZWVuQ29udHJvbGxlciBjb250cm9sbGVyKTwvdGV4dD48ZWxsaXBzZSBjeD0iMjk5Ny41IiBjeT0iMzU5LjQ2MDkiIGZpbGw9IiM4NEJFODQiIHJ4PSIzIiByeT0iMyIgc3R5bGU9InN0cm9rZTojMDM4MDQ4O3N0cm9rZS13aWR0aDoxLjA7Ii8+PHRleHQgZmlsbD0iIzAwMDAwMCIgZm9udC1mYW1pbHk9InNhbnMtc2VyaWYiIGZvbnQtc2l6ZT0iMTQiIGxlbmd0aEFkanVzdD0ic3BhY2luZyIgdGV4dExlbmd0aD0iMjY5IiB4PSIzMDA2LjUiIHk9IjM2My43MDMxIj5wdWJsaWMgc3RhdGljIHZvaWQgbWFpbihTdHJpbmdbXSBhcmdzKTwvdGV4dD48L2c+PCEtLWNsYXNzIEFwcDItLT48ZyBpZD0iZWxlbV9BcHAyIj48cmVjdCBjb2RlTGluZT0iNyIgZmlsbD0iI0YxRjFGMSIgaGVpZ2h0PSI5Mi45NTMxIiBpZD0iQXBwMiIgcng9IjIuNSIgcnk9IjIuNSIgc3R5bGU9InN0cm9rZTojMTgxODE4O3N0cm9rZS13aWR0aDowLjU7IiB3aWR0aD0iNTYxIiB4PSI0MDg3IiB5PSI4NDkiLz48ZWxsaXBzZSBjeD0iNDM0OS4yNSIgY3k9Ijg2NSIgZmlsbD0iI0FERDFCMiIgcng9IjExIiByeT0iMTEiIHN0eWxlPSJzdHJva2U6IzE4MTgxODtzdHJva2Utd2lkdGg6MS4wOyIvPjxwYXRoIGQ9Ik00MzQ2Ljg3NSw4NjkuMjUgTDQzNDYuODc1LDg3MSBMNDM1MS44MTI1LDg3MSBMNDM1MS44MTI1LDg2OS4yNSBMNDM0Ni44NzUsODY5LjI1IFogTTQzNDcuNTYyNSw4NjkuOTM3NSBRNDM0Ny41NjI1LDg2OS45Mzc1IDQzNDcuNTYyNSw4NjAuNzUgTDQzNDUuODEyNSw4NjAuNzUgUTQzNDUuODEyNSw4NjAuNzUgNDM0NS44MTI1LDg2OS45Mzc1IEw0MzQ3LjU2MjUsODY5LjkzNzUgWiBNNDM1MS4xMjUsODY5LjkzNzUgTDQzNTIuODc1LDg2OS45Mzc1IFE0MzUyLjg3NSw4NjkuOTM3NSA0MzUyLjg3NSw4NjcuMTI1IEw0MzUxLjEyNSw4NjcuMTI1IFE0MzUxLjEyNSw4NjcuMTI1IDQzNTEuMTI1LDg2OS45Mzc1IFogTTQzNTEuMTI1LDg2MC43NSBRNDM1MS4xMjUsODYwLjc1IDQzNTEuMTI1LDg2My41NjI1IEw0MzUyLjg3NSw4NjMuNTYyNSBRNDM1Mi44NzUsODYzLjU2MjUgNDM1Mi44NzUsODYwLjc1IEw0MzUxLjEyNSw4NjAuNzUgWiBNNDM0Ni44NzUsODYxLjQzNzUgTDQzNTEuODEyNSw4NjEuNDM3NSBMNDM1MS44MTI1LDg1OS42ODc1IEw0MzQ2Ljg3NSw4NTkuNjg3NSBMNDM0Ni44NzUsODYxLjQzNzUgWiAiIGZpbGw9IiMwMDAwMDAiLz48dGV4dCBmaWxsPSIjMDAwMDAwIiBmb250LWZhbWlseT0ic2Fucy1zZXJpZiIgZm9udC1zaXplPSIxNCIgbGVuZ3RoQWRqdXN0PSJzcGFjaW5nIiB0ZXh0TGVuZ3RoPSIyOCIgeD0iNDM2OS43NSIgeT0iODcwLjc0MjIiPkFwcDI8L3RleHQ+PGxpbmUgc3R5bGU9InN0cm9rZTojMTgxODE4O3N0cm9rZS13aWR0aDowLjU7IiB4MT0iNDA4OCIgeDI9IjQ2NDciIHkxPSI4ODEiIHkyPSI4ODEiLz48bGluZSBzdHlsZT0ic3Ryb2tlOiMxODE4MTg7c3Ryb2tlLXdpZHRoOjAuNTsiIHgxPSI0MDg4IiB4Mj0iNDY0NyIgeTE9Ijg4OSIgeTI9Ijg4OSIvPjxlbGxpcHNlIGN4PSI0MDk4IiBjeT0iOTAxLjk5MjIiIGZpbGw9IiM4NEJFODQiIHJ4PSIzIiByeT0iMyIgc3R5bGU9InN0cm9rZTojMDM4MDQ4O3N0cm9rZS13aWR0aDoxLjA7Ii8+PHRleHQgZmlsbD0iIzAwMDAwMCIgZm9udC1mYW1pbHk9InNhbnMtc2VyaWYiIGZvbnQtc2l6ZT0iMTQiIGxlbmd0aEFkanVzdD0ic3BhY2luZyIgdGV4dExlbmd0aD0iMzgyIiB4PSI0MTA3IiB5PSI5MDYuMjM0NCI+cHVibGljIHZvaWQgc3RhcnQoU3RhZ2UgcHJpbWFyeVN0YWdlKSB0aHJvd3MgRXhjZXB0aW9uPC90ZXh0PjxlbGxpcHNlIGN4PSI0MDk4IiBjeT0iOTE2Ljk3NjYiIGZpbGw9IiM4NEJFODQiIHJ4PSIzIiByeT0iMyIgc3R5bGU9InN0cm9rZTojMDM4MDQ4O3N0cm9rZS13aWR0aDoxLjA7Ii8+PHRleHQgZmlsbD0iIzAwMDAwMCIgZm9udC1mYW1pbHk9InNhbnMtc2VyaWYiIGZvbnQtc2l6ZT0iMTQiIGxlbmd0aEFkanVzdD0ic3BhY2luZyIgdGV4dExlbmd0aD0iNTM1IiB4PSI0MTA3IiB5PSI5MjEuMjE4OCI+cHVibGljIHZvaWQgc3RhcnRXaXRoQ29udHJvbGxlcihTdHJpbmcgZGIsIG1haW5zY3JlZW4yY29udHJvbGxlciBjb250cm9sbGVyKTwvdGV4dD48ZWxsaXBzZSBjeD0iNDA5OCIgY3k9IjkzMS45NjA5IiBmaWxsPSIjODRCRTg0IiByeD0iMyIgcnk9IjMiIHN0eWxlPSJzdHJva2U6IzAzODA0ODtzdHJva2Utd2lkdGg6MS4wOyIvPjx0ZXh0IGZpbGw9IiMwMDAwMDAiIGZvbnQtZmFtaWx5PSJzYW5zLXNlcmlmIiBmb250LXNpemU9IjE0IiBsZW5ndGhBZGp1c3Q9InNwYWNpbmciIHRleHRMZW5ndGg9IjI2OSIgeD0iNDEwNyIgeT0iOTM2LjIwMzEiPnB1YmxpYyBzdGF0aWMgdm9pZCBtYWluKFN0cmluZ1tdIGFyZ3MpPC90ZXh0PjwvZz48IS0tY2xhc3MgRGlzcGxheURhdGEtLT48ZyBpZD0iZWxlbV9EaXNwbGF5RGF0YSI+PHJlY3QgY29kZUxpbmU9IjEzIiBmaWxsPSIjRjFGMUYxIiBoZWlnaHQ9IjYyLjk4NDQiIGlkPSJEaXNwbGF5RGF0YSIgcng9IjIuNSIgcnk9IjIuNSIgc3R5bGU9InN0cm9rZTojMTgxODE4O3N0cm9rZS13aWR0aDowLjU7IiB3aWR0aD0iMjIyIiB4PSIzMDcwLjUiIHk9Ijg2NCIvPjxlbGxpcHNlIGN4PSIzMTM4Ljc1IiBjeT0iODgwIiBmaWxsPSIjQUREMUIyIiByeD0iMTEiIHJ5PSIxMSIgc3R5bGU9InN0cm9rZTojMTgxODE4O3N0cm9rZS13aWR0aDoxLjA7Ii8+PHBhdGggZD0iTTMxMzYuMzc1LDg4NC4yNSBMMzEzNi4zNzUsODg2IEwzMTQxLjMxMjUsODg2IEwzMTQxLjMxMjUsODg0LjI1IEwzMTM2LjM3NSw4ODQuMjUgWiBNMzEzNy4wNjI1LDg4NC45Mzc1IFEzMTM3LjA2MjUsODg0LjkzNzUgMzEzNy4wNjI1LDg3NS43NSBMMzEzNS4zMTI1LDg3NS43NSBRMzEzNS4zMTI1LDg3NS43NSAzMTM1LjMxMjUsODg0LjkzNzUgTDMxMzcuMDYyNSw4ODQuOTM3NSBaIE0zMTQwLjYyNSw4ODQuOTM3NSBMMzE0Mi4zNzUsODg0LjkzNzUgUTMxNDIuMzc1LDg4NC45Mzc1IDMxNDIuMzc1LDg4Mi4xMjUgTDMxNDAuNjI1LDg4Mi4xMjUgUTMxNDAuNjI1LDg4Mi4xMjUgMzE0MC42MjUsODg0LjkzNzUgWiBNMzE0MC42MjUsODc1Ljc1IFEzMTQwLjYyNSw4NzUuNzUgMzE0MC42MjUsODc4LjU2MjUgTDMxNDIuMzc1LDg3OC41NjI1IFEzMTQyLjM3NSw4NzguNTYyNSAzMTQyLjM3NSw4NzUuNzUgTDMxNDAuNjI1LDg3NS43NSBaIE0zMTM2LjM3NSw4NzYuNDM3NSBMMzE0MS4zMTI1LDg3Ni40Mzc1IEwzMTQxLjMxMjUsODc0LjY4NzUgTDMxMzYuMzc1LDg3NC42ODc1IEwzMTM2LjM3NSw4NzYuNDM3NSBaICIgZmlsbD0iIzAwMDAwMCIvPjx0ZXh0IGZpbGw9IiMwMDAwMDAiIGZvbnQtZmFtaWx5PSJzYW5zLXNlcmlmIiBmb250LXNpemU9IjE0IiBsZW5ndGhBZGp1c3Q9InNwYWNpbmciIHRleHRMZW5ndGg9Ijc3IiB4PSIzMTU5LjI1IiB5PSI4ODUuNzQyMiI+RGlzcGxheURhdGE8L3RleHQ+PGxpbmUgc3R5bGU9InN0cm9rZTojMTgxODE4O3N0cm9rZS13aWR0aDowLjU7IiB4MT0iMzA3MS41IiB4Mj0iMzI5MS41IiB5MT0iODk2IiB5Mj0iODk2Ii8+PGVsbGlwc2UgY3g9IjMwODEuNSIgY3k9IjkwOC45OTIyIiBmaWxsPSJub25lIiByeD0iMyIgcnk9IjMiIHN0eWxlPSJzdHJva2U6IzAzODA0ODtzdHJva2Utd2lkdGg6MS4wOyIvPjx0ZXh0IGZpbGw9IiMwMDAwMDAiIGZvbnQtZmFtaWx5PSJzYW5zLXNlcmlmIiBmb250LXNpemU9IjE0IiBsZW5ndGhBZGp1c3Q9InNwYWNpbmciIHRleHRMZW5ndGg9IjE5NiIgeD0iMzA5MC41IiB5PSI5MTMuMjM0NCI+cHVibGljIGludGVyZmFjZSBEaXNwbGF5RGF0YTwvdGV4dD48bGluZSBzdHlsZT0ic3Ryb2tlOiMxODE4MTg7c3Ryb2tlLXdpZHRoOjAuNTsiIHgxPSIzMDcxLjUiIHgyPSIzMjkxLjUiIHkxPSI5MTguOTg0NCIgeTI9IjkxOC45ODQ0Ii8+PC9nPjwhLS1jbGFzcyBTY3JlZW4zQ29udHJvbGxlci0tPjxnIGlkPSJlbGVtX1NjcmVlbjNDb250cm9sbGVyIj48cmVjdCBjb2RlTGluZT0iMTciIGZpbGw9IiNGMUYxRjEiIGhlaWdodD0iNzcuOTY4OCIgaWQ9IlNjcmVlbjNDb250cm9sbGVyIiByeD0iMi41IiByeT0iMi41IiBzdHlsZT0ic3Ryb2tlOiMxODE4MTg7c3Ryb2tlLXdpZHRoOjAuNTsiIHdpZHRoPSI4NDkiIHg9IjciIHk9IjEyMjciLz48ZWxsaXBzZSBjeD0iMzY3Ljc1IiBjeT0iMTI0MyIgZmlsbD0iI0FERDFCMiIgcng9IjExIiByeT0iMTEiIHN0eWxlPSJzdHJva2U6IzE4MTgxODtzdHJva2Utd2lkdGg6MS4wOyIvPjxwYXRoIGQ9Ik0zNjUuMzc1LDEyNDcuMjUgTDM2NS4zNzUsMTI0OSBMMzcwLjMxMjUsMTI0OSBMMzcwLjMxMjUsMTI0Ny4yNSBMMzY1LjM3NSwxMjQ3LjI1IFogTTM2Ni4wNjI1LDEyNDcuOTM3NSBRMzY2LjA2MjUsMTI0Ny45Mzc1IDM2Ni4wNjI1LDEyMzguNzUgTDM2NC4zMTI1LDEyMzguNzUgUTM2NC4zMTI1LDEyMzguNzUgMzY0LjMxMjUsMTI0Ny45Mzc1IEwzNjYuMDYyNSwxMjQ3LjkzNzUgWiBNMzY5LjYyNSwxMjQ3LjkzNzUgTDM3MS4zNzUsMTI0Ny45Mzc1IFEzNzEuMzc1LDEyNDcuOTM3NSAzNzEuMzc1LDEyNDUuMTI1IEwzNjkuNjI1LDEyNDUuMTI1IFEzNjkuNjI1LDEyNDUuMTI1IDM2OS42MjUsMTI0Ny45Mzc1IFogTTM2OS42MjUsMTIzOC43NSBRMzY5LjYyNSwxMjM4Ljc1IDM2OS42MjUsMTI0MS41NjI1IEwzNzEuMzc1LDEyNDEuNTYyNSBRMzcxLjM3NSwxMjQxLjU2MjUgMzcxLjM3NSwxMjM4Ljc1IEwzNjkuNjI1LDEyMzguNzUgWiBNMzY1LjM3NSwxMjM5LjQzNzUgTDM3MC4zMTI1LDEyMzkuNDM3NSBMMzcwLjMxMjUsMTIzNy42ODc1IEwzNjUuMzc1LDEyMzcuNjg3NSBMMzY1LjM3NSwxMjM5LjQzNzUgWiAiIGZpbGw9IiMwMDAwMDAiLz48dGV4dCBmaWxsPSIjMDAwMDAwIiBmb250LWZhbWlseT0ic2Fucy1zZXJpZiIgZm9udC1zaXplPSIxNCIgbGVuZ3RoQWRqdXN0PSJzcGFjaW5nIiB0ZXh0TGVuZ3RoPSIxMTkiIHg9IjM4OC4yNSIgeT0iMTI0OC43NDIyIj5TY3JlZW4zQ29udHJvbGxlcjwvdGV4dD48bGluZSBzdHlsZT0ic3Ryb2tlOiMxODE4MTg7c3Ryb2tlLXdpZHRoOjAuNTsiIHgxPSI4IiB4Mj0iODU1IiB5MT0iMTI1OSIgeTI9IjEyNTkiLz48bGluZSBzdHlsZT0ic3Ryb2tlOiMxODE4MTg7c3Ryb2tlLXdpZHRoOjAuNTsiIHgxPSI4IiB4Mj0iODU1IiB5MT0iMTI2NyIgeTI9IjEyNjciLz48ZWxsaXBzZSBjeD0iMTgiIGN5PSIxMjc5Ljk5MjIiIGZpbGw9IiM4NEJFODQiIHJ4PSIzIiByeT0iMyIgc3R5bGU9InN0cm9rZTojMDM4MDQ4O3N0cm9rZS13aWR0aDoxLjA7Ii8+PHRleHQgZmlsbD0iIzAwMDAwMCIgZm9udC1mYW1pbHk9InNhbnMtc2VyaWYiIGZvbnQtc2l6ZT0iMTQiIGxlbmd0aEFkanVzdD0ic3BhY2luZyIgdGV4dExlbmd0aD0iODIzIiB4PSIyNyIgeT0iMTI4NC4yMzQ0Ij5wdWJsaWMgdm9pZCBpbml0aWFsaXplKGRvdWJsZSBsYXRpdHVkZSwgZG91YmxlIGxvbmdpdHVkZSwgU3RyaW5nIGRiLCBEVUlfREIgZXhlY3V0ZWZsb3dfc3FsLCBEVUlfVHh0IGV4ZWN1dGVmbG93X3R4dCk8L3RleHQ+PGVsbGlwc2UgY3g9IjE4IiBjeT0iMTI5NC45NzY2IiBmaWxsPSIjODRCRTg0IiByeD0iMyIgcnk9IjMiIHN0eWxlPSJzdHJva2U6IzAzODA0ODtzdHJva2Utd2lkdGg6MS4wOyIvPjx0ZXh0IGZpbGw9IiMwMDAwMDAiIGZvbnQtZmFtaWx5PSJzYW5zLXNlcmlmIiBmb250LXNpemU9IjE0IiBsZW5ndGhBZGp1c3Q9InNwYWNpbmciIHRleHRMZW5ndGg9IjQ0MyIgeD0iMjciIHk9IjEyOTkuMjE4OCI+cHVibGljIHZvaWQgc2V0QWlyUG9sbHV0aW9uRGF0YShBaXJQb2xsdXRpb25BUElEYXRhIERhdGFPYmplY3QpPC90ZXh0PjwvZz48IS0tY2xhc3MgVGVybWluYWxVSS0tPjxnIGlkPSJlbGVtX1Rlcm1pbmFsVUkiPjxyZWN0IGNvZGVMaW5lPSIyMiIgZmlsbD0iI0YxRjFGMSIgaGVpZ2h0PSIyMjcuODEyNSIgaWQ9IlRlcm1pbmFsVUkiIHJ4PSIyLjUiIHJ5PSIyLjUiIHN0eWxlPSJzdHJva2U6IzE4MTgxODtzdHJva2Utd2lkdGg6MC41OyIgd2lkdGg9IjI1MzgiIHg9Ijg5MS41IiB5PSIxMTUyIi8+PGVsbGlwc2UgY3g9IjIxMjAuNzUiIGN5PSIxMTY4IiBmaWxsPSIjQUREMUIyIiByeD0iMTEiIHJ5PSIxMSIgc3R5bGU9InN0cm9rZTojMTgxODE4O3N0cm9rZS13aWR0aDoxLjA7Ii8+PHBhdGggZD0iTTIxMTguMzc1LDExNzIuMjUgTDIxMTguMzc1LDExNzQgTDIxMjMuMzEyNSwxMTc0IEwyMTIzLjMxMjUsMTE3Mi4yNSBMMjExOC4zNzUsMTE3Mi4yNSBaIE0yMTE5LjA2MjUsMTE3Mi45Mzc1IFEyMTE5LjA2MjUsMTE3Mi45Mzc1IDIxMTkuMDYyNSwxMTYzLjc1IEwyMTE3LjMxMjUsMTE2My43NSBRMjExNy4zMTI1LDExNjMuNzUgMjExNy4zMTI1LDExNzIuOTM3NSBMMjExOS4wNjI1LDExNzIuOTM3NSBaIE0yMTIyLjYyNSwxMTcyLjkzNzUgTDIxMjQuMzc1LDExNzIuOTM3NSBRMjEyNC4zNzUsMTE3Mi45Mzc1IDIxMjQuMzc1LDExNzAuMTI1IEwyMTIyLjYyNSwxMTcwLjEyNSBRMjEyMi42MjUsMTE3MC4xMjUgMjEyMi42MjUsMTE3Mi45Mzc1IFogTTIxMjIuNjI1LDExNjMuNzUgUTIxMjIuNjI1LDExNjMuNzUgMjEyMi42MjUsMTE2Ni41NjI1IEwyMTI0LjM3NSwxMTY2LjU2MjUgUTIxMjQuMzc1LDExNjYuNTYyNSAyMTI0LjM3NSwxMTYzLjc1IEwyMTIyLjYyNSwxMTYzLjc1IFogTTIxMTguMzc1LDExNjQuNDM3NSBMMjEyMy4zMTI1LDExNjQuNDM3NSBMMjEyMy4zMTI1LDExNjIuNjg3NSBMMjExOC4zNzUsMTE2Mi42ODc1IEwyMTE4LjM3NSwxMTY0LjQzNzUgWiAiIGZpbGw9IiMwMDAwMDAiLz48dGV4dCBmaWxsPSIjMDAwMDAwIiBmb250LWZhbWlseT0ic2Fucy1zZXJpZiIgZm9udC1zaXplPSIxNCIgbGVuZ3RoQWRqdXN0PSJzcGFjaW5nIiB0ZXh0TGVuZ3RoPSI3MSIgeD0iMjE0MS4yNSIgeT0iMTE3My43NDIyIj5UZXJtaW5hbFVJPC90ZXh0PjxsaW5lIHN0eWxlPSJzdHJva2U6IzE4MTgxODtzdHJva2Utd2lkdGg6MC41OyIgeDE9Ijg5Mi41IiB4Mj0iMzQyOC41IiB5MT0iMTE4NCIgeTI9IjExODQiLz48bGluZSBzdHlsZT0ic3Ryb2tlOiMxODE4MTg7c3Ryb2tlLXdpZHRoOjAuNTsiIHgxPSI4OTIuNSIgeDI9IjM0MjguNSIgeTE9IjExOTIiIHkyPSIxMTkyIi8+PGVsbGlwc2UgY3g9IjkwMi41IiBjeT0iMTIwNC45OTIyIiBmaWxsPSIjODRCRTg0IiByeD0iMyIgcnk9IjMiIHN0eWxlPSJzdHJva2U6IzAzODA0ODtzdHJva2Utd2lkdGg6MS4wOyIvPjx0ZXh0IGZpbGw9IiMwMDAwMDAiIGZvbnQtZmFtaWx5PSJzYW5zLXNlcmlmIiBmb250LXNpemU9IjE0IiBsZW5ndGhBZGp1c3Q9InNwYWNpbmciIHRleHRMZW5ndGg9IjIyNiIgeD0iOTExLjUiIHk9IjEyMDkuMjM0NCI+cHVibGljIHN0YXRpYyB2b2lkIGFkZExvY2F0aW9uKCk8L3RleHQ+PGVsbGlwc2UgY3g9IjkwMi41IiBjeT0iMTIxOS45NzY2IiBmaWxsPSIjODRCRTg0IiByeD0iMyIgcnk9IjMiIHN0eWxlPSJzdHJva2U6IzAzODA0ODtzdHJva2Utd2lkdGg6MS4wOyIvPjx0ZXh0IGZpbGw9IiMwMDAwMDAiIGZvbnQtZmFtaWx5PSJzYW5zLXNlcmlmIiBmb250LXNpemU9IjE0IiBsZW5ndGhBZGp1c3Q9InNwYWNpbmciIHRleHRMZW5ndGg9IjMxNyIgeD0iOTExLjUiIHk9IjEyMjQuMjE4OCI+cHVibGljIHN0YXRpYyB2b2lkIGFkZExvY2F0aW9uQnlDb29yZGluYXRlcygpPC90ZXh0PjxlbGxpcHNlIGN4PSI5MDIuNSIgY3k9IjEyMzQuOTYwOSIgZmlsbD0iIzg0QkU4NCIgcng9IjMiIHJ5PSIzIiBzdHlsZT0ic3Ryb2tlOiMwMzgwNDg7c3Ryb2tlLXdpZHRoOjEuMDsiLz48dGV4dCBmaWxsPSIjMDAwMDAwIiBmb250LWZhbWlseT0ic2Fucy1zZXJpZiIgZm9udC1zaXplPSIxNCIgbGVuZ3RoQWRqdXN0PSJzcGFjaW5nIiB0ZXh0TGVuZ3RoPSIyOTciIHg9IjkxMS41IiB5PSIxMjM5LjIwMzEiPnB1YmxpYyBzdGF0aWMgdm9pZCBhZGRMb2NhdGlvbkJ5Q2l0eU5hbWUoKTwvdGV4dD48ZWxsaXBzZSBjeD0iOTAyLjUiIGN5PSIxMjQ5Ljk0NTMiIGZpbGw9IiM4NEJFODQiIHJ4PSIzIiByeT0iMyIgc3R5bGU9InN0cm9rZTojMDM4MDQ4O3N0cm9rZS13aWR0aDoxLjA7Ii8+PHRleHQgZmlsbD0iIzAwMDAwMCIgZm9udC1mYW1pbHk9InNhbnMtc2VyaWYiIGZvbnQtc2l6ZT0iMTQiIGxlbmd0aEFkanVzdD0ic3BhY2luZyIgdGV4dExlbmd0aD0iMjk2IiB4PSI5MTEuNSIgeT0iMTI1NC4xODc1Ij5wdWJsaWMgc3RhdGljIHZvaWQgZGlzcGxheVdlYXRoZXJPcHRpb25zKCk8L3RleHQ+PGVsbGlwc2UgY3g9IjkwMi41IiBjeT0iMTI2NC45Mjk3IiBmaWxsPSIjODRCRTg0IiByeD0iMyIgcnk9IjMiIHN0eWxlPSJzdHJva2U6IzAzODA0ODtzdHJva2Utd2lkdGg6MS4wOyIvPjx0ZXh0IGZpbGw9IiMwMDAwMDAiIGZvbnQtZmFtaWx5PSJzYW5zLXNlcmlmIiBmb250LXNpemU9IjE0IiBsZW5ndGhBZGp1c3Q9InNwYWNpbmciIHRleHRMZW5ndGg9IjI3NiIgeD0iOTExLjUiIHk9IjEyNjkuMTcxOSI+cHVibGljIHN0YXRpYyB2b2lkIHNob3dDdXJyZW50V2VhdGhlcigpPC90ZXh0PjxlbGxpcHNlIGN4PSI5MDIuNSIgY3k9IjEyNzkuOTE0MSIgZmlsbD0iIzg0QkU4NCIgcng9IjMiIHJ5PSIzIiBzdHlsZT0ic3Ryb2tlOiMwMzgwNDg7c3Ryb2tlLXdpZHRoOjEuMDsiLz48dGV4dCBmaWxsPSIjMDAwMDAwIiBmb250LWZhbWlseT0ic2Fucy1zZXJpZiIgZm9udC1zaXplPSIxNCIgbGVuZ3RoQWRqdXN0PSJzcGFjaW5nIiB0ZXh0TGVuZ3RoPSI0NTAiIHg9IjkxMS41IiB5PSIxMjg0LjE1NjMiPnB1YmxpYyB2b2lkIFJldHJpdmVBaXJQb2xsdXRpb25EYXRhKEFpclBvbGx1dGlvbkFQSURhdGEgQWlyUG9sbCk8L3RleHQ+PGVsbGlwc2UgY3g9IjkwMi41IiBjeT0iMTI5NC44OTg0IiBmaWxsPSIjODRCRTg0IiByeD0iMyIgcnk9IjMiIHN0eWxlPSJzdHJva2U6IzAzODA0ODtzdHJva2Utd2lkdGg6MS4wOyIvPjx0ZXh0IGZpbGw9IiMwMDAwMDAiIGZvbnQtZmFtaWx5PSJzYW5zLXNlcmlmIiBmb250LXNpemU9IjE0IiBsZW5ndGhBZGp1c3Q9InNwYWNpbmciIHRleHRMZW5ndGg9IjEzMjciIHg9IjkxMS41IiB5PSIxMjk5LjE0MDYiPnB1YmxpYyB2b2lkIGRpc3BsYXlBaXJQb2xsdXRpb25EYXRhKFN0cmluZyBjaXR5LCBkb3VibGUgbGF0LCBkb3VibGUgbG9uLCBsb25nIGR0LCBpbnQgYXFpLCAgZG91YmxlIGNvLCBkb3VibGUgbm8sIGRvdWJsZSBubzIsICBkb3VibGUgbzMsIGRvdWJsZSBzbzIsIGRvdWJsZSBwbTJfNSwgIGRvdWJsZSBwbTEwLCBkb3VibGUgbmgzKTwvdGV4dD48ZWxsaXBzZSBjeD0iOTAyLjUiIGN5PSIxMzA5Ljg4MjgiIGZpbGw9IiM4NEJFODQiIHJ4PSIzIiByeT0iMyIgc3R5bGU9InN0cm9rZTojMDM4MDQ4O3N0cm9rZS13aWR0aDoxLjA7Ii8+PHRleHQgZmlsbD0iIzAwMDAwMCIgZm9udC1mYW1pbHk9InNhbnMtc2VyaWYiIGZvbnQtc2l6ZT0iMTQiIGxlbmd0aEFkanVzdD0ic3BhY2luZyIgdGV4dExlbmd0aD0iNTU1IiB4PSI5MTEuNSIgeT0iMTMxNC4xMjUiPnB1YmxpYyB2b2lkIFJldHJpdmVDdXJyZW50V2VhdGhlckRhdGEoQ3VycmVudFdlYXRoZXJBUElEYXRhIGN1cnJlbnRXZWF0aGVyRGF0YSk8L3RleHQ+PGVsbGlwc2UgY3g9IjkwMi41IiBjeT0iMTMyNC44NjcyIiBmaWxsPSIjODRCRTg0IiByeD0iMyIgcnk9IjMiIHN0eWxlPSJzdHJva2U6IzAzODA0ODtzdHJva2Utd2lkdGg6MS4wOyIvPjx0ZXh0IGZpbGw9IiMwMDAwMDAiIGZvbnQtZmFtaWx5PSJzYW5zLXNlcmlmIiBmb250LXNpemU9IjE0IiBsZW5ndGhBZGp1c3Q9InNwYWNpbmciIHRleHRMZW5ndGg9IjI1MTIiIHg9IjkxMS41IiB5PSIxMzI5LjEwOTQiPnB1YmxpYyB2b2lkIGRpc3BsYXlDdXJyZW50V2VhdGhlckRhdGEoZG91YmxlIGxhdCwgZG91YmxlIGxvbiwgaW50IHdlYXRoZXJJRCwgU3RyaW5nIHdlYXRoZXJNYWluLCBTdHJpbmcgd2VhdGhlckRlc2NyaXB0aW9uLCBkb3VibGUgdGVtcCwgZG91YmxlIGZlZWxzTGlrZSwgIGRvdWJsZSB0ZW1wTWluLCBkb3VibGUgdGVtcE1heCwgaW50IHByZXNzdXJlLCBpbnQgaHVtaWRpdHksIGludCB2aXNpYmlsaXR5LCBkb3VibGUgd2luZFNwZWVkLCBpbnQgd2luZERlZywgaW50IGNsb3Vkc0FsbCwgaW50IGR0LCBTdHJpbmcgY291bnRyeSwgaW50IHN1bnJpc2UsIGludCBzdW5zZXQsIGludCB0aW1lem9uZSwgU3RyaW5nIGNpdHlOYW1lKTwvdGV4dD48ZWxsaXBzZSBjeD0iOTAyLjUiIGN5PSIxMzM5Ljg1MTYiIGZpbGw9IiM4NEJFODQiIHJ4PSIzIiByeT0iMyIgc3R5bGU9InN0cm9rZTojMDM4MDQ4O3N0cm9rZS13aWR0aDoxLjA7Ii8+PHRleHQgZmlsbD0iIzAwMDAwMCIgZm9udC1mYW1pbHk9InNhbnMtc2VyaWYiIGZvbnQtc2l6ZT0iMTQiIGxlbmd0aEFkanVzdD0ic3BhY2luZyIgdGV4dExlbmd0aD0iMzA3IiB4PSI5MTEuNSIgeT0iMTM0NC4wOTM4Ij5wdWJsaWMgdm9pZCBzZXRNYWluV2luZG93KFN0YWdlIG1haW53aW5kb3cpPC90ZXh0PjxlbGxpcHNlIGN4PSI5MDIuNSIgY3k9IjEzNTQuODM1OSIgZmlsbD0iIzg0QkU4NCIgcng9IjMiIHJ5PSIzIiBzdHlsZT0ic3Ryb2tlOiMwMzgwNDg7c3Ryb2tlLXdpZHRoOjEuMDsiLz48dGV4dCBmaWxsPSIjMDAwMDAwIiBmb250LWZhbWlseT0ic2Fucy1zZXJpZiIgZm9udC1zaXplPSIxNCIgbGVuZ3RoQWRqdXN0PSJzcGFjaW5nIiB0ZXh0TGVuZ3RoPSIyNDciIHg9IjkxMS41IiB5PSIxMzU5LjA3ODEiPnZvaWQgb25sYXRzZWFyY2goQWN0aW9uRXZlbnQgZXZlbnQpPC90ZXh0PjxlbGxpcHNlIGN4PSI5MDIuNSIgY3k9IjEzNjkuODIwMyIgZmlsbD0iIzg0QkU4NCIgcng9IjMiIHJ5PSIzIiBzdHlsZT0ic3Ryb2tlOiMwMzgwNDg7c3Ryb2tlLXdpZHRoOjEuMDsiLz48dGV4dCBmaWxsPSIjMDAwMDAwIiBmb250LWZhbWlseT0ic2Fucy1zZXJpZiIgZm9udC1zaXplPSIxNCIgbGVuZ3RoQWRqdXN0PSJzcGFjaW5nIiB0ZXh0TGVuZ3RoPSIxNzAiIHg9IjkxMS41IiB5PSIxMzc0LjA2MjUiPnB1YmxpYyB2b2lkIGluaXRpYWxpemUoKTwvdGV4dD48L2c+PCEtLWNsYXNzIFVpMmNvbnRyb2xsZXItLT48ZyBpZD0iZWxlbV9VaTJjb250cm9sbGVyIj48cmVjdCBjb2RlTGluZT0iMzYiIGZpbGw9IiNGMUYxRjEiIGhlaWdodD0iMTA3LjkzNzUiIGlkPSJVaTJjb250cm9sbGVyIiByeD0iMi41IiByeT0iMi41IiBzdHlsZT0ic3Ryb2tlOiMxODE4MTg7c3Ryb2tlLXdpZHRoOjAuNTsiIHdpZHRoPSIzMzMiIHg9IjM0NjUiIHk9IjEyMTIiLz48ZWxsaXBzZSBjeD0iMzU4MS43NSIgY3k9IjEyMjgiIGZpbGw9IiNBREQxQjIiIHJ4PSIxMSIgcnk9IjExIiBzdHlsZT0ic3Ryb2tlOiMxODE4MTg7c3Ryb2tlLXdpZHRoOjEuMDsiLz48cGF0aCBkPSJNMzU3OS4zNzUsMTIzMi4yNSBMMzU3OS4zNzUsMTIzNCBMMzU4NC4zMTI1LDEyMzQgTDM1ODQuMzEyNSwxMjMyLjI1IEwzNTc5LjM3NSwxMjMyLjI1IFogTTM1ODAuMDYyNSwxMjMyLjkzNzUgUTM1ODAuMDYyNSwxMjMyLjkzNzUgMzU4MC4wNjI1LDEyMjMuNzUgTDM1NzguMzEyNSwxMjIzLjc1IFEzNTc4LjMxMjUsMTIyMy43NSAzNTc4LjMxMjUsMTIzMi45Mzc1IEwzNTgwLjA2MjUsMTIzMi45Mzc1IFogTTM1ODMuNjI1LDEyMzIuOTM3NSBMMzU4NS4zNzUsMTIzMi45Mzc1IFEzNTg1LjM3NSwxMjMyLjkzNzUgMzU4NS4zNzUsMTIzMC4xMjUgTDM1ODMuNjI1LDEyMzAuMTI1IFEzNTgzLjYyNSwxMjMwLjEyNSAzNTgzLjYyNSwxMjMyLjkzNzUgWiBNMzU4My42MjUsMTIyMy43NSBRMzU4My42MjUsMTIyMy43NSAzNTgzLjYyNSwxMjI2LjU2MjUgTDM1ODUuMzc1LDEyMjYuNTYyNSBRMzU4NS4zNzUsMTIyNi41NjI1IDM1ODUuMzc1LDEyMjMuNzUgTDM1ODMuNjI1LDEyMjMuNzUgWiBNMzU3OS4zNzUsMTIyNC40Mzc1IEwzNTg0LjMxMjUsMTIyNC40Mzc1IEwzNTg0LjMxMjUsMTIyMi42ODc1IEwzNTc5LjM3NSwxMjIyLjY4NzUgTDM1NzkuMzc1LDEyMjQuNDM3NSBaICIgZmlsbD0iIzAwMDAwMCIvPjx0ZXh0IGZpbGw9IiMwMDAwMDAiIGZvbnQtZmFtaWx5PSJzYW5zLXNlcmlmIiBmb250LXNpemU9IjE0IiBsZW5ndGhBZGp1c3Q9InNwYWNpbmciIHRleHRMZW5ndGg9IjkxIiB4PSIzNjAyLjI1IiB5PSIxMjMzLjc0MjIiPlVpMmNvbnRyb2xsZXI8L3RleHQ+PGxpbmUgc3R5bGU9InN0cm9rZTojMTgxODE4O3N0cm9rZS13aWR0aDowLjU7IiB4MT0iMzQ2NiIgeDI9IjM3OTciIHkxPSIxMjQ0IiB5Mj0iMTI0NCIvPjxsaW5lIHN0eWxlPSJzdHJva2U6IzE4MTgxODtzdHJva2Utd2lkdGg6MC41OyIgeDE9IjM0NjYiIHgyPSIzNzk3IiB5MT0iMTI1MiIgeTI9IjEyNTIiLz48ZWxsaXBzZSBjeD0iMzQ3NiIgY3k9IjEyNjQuOTkyMiIgZmlsbD0iIzg0QkU4NCIgcng9IjMiIHJ5PSIzIiBzdHlsZT0ic3Ryb2tlOiMwMzgwNDg7c3Ryb2tlLXdpZHRoOjEuMDsiLz48dGV4dCBmaWxsPSIjMDAwMDAwIiBmb250LWZhbWlseT0ic2Fucy1zZXJpZiIgZm9udC1zaXplPSIxNCIgbGVuZ3RoQWRqdXN0PSJzcGFjaW5nIiB0ZXh0TGVuZ3RoPSIzMDciIHg9IjM0ODUiIHk9IjEyNjkuMjM0NCI+cHVibGljIHZvaWQgc2V0TWFpbldpbmRvdyhTdGFnZSBtYWlud2luZG93KTwvdGV4dD48ZWxsaXBzZSBjeD0iMzQ3NiIgY3k9IjEyNzkuOTc2NiIgZmlsbD0iIzg0QkU4NCIgcng9IjMiIHJ5PSIzIiBzdHlsZT0ic3Ryb2tlOiMwMzgwNDg7c3Ryb2tlLXdpZHRoOjEuMDsiLz48dGV4dCBmaWxsPSIjMDAwMDAwIiBmb250LWZhbWlseT0ic2Fucy1zZXJpZiIgZm9udC1zaXplPSIxNCIgbGVuZ3RoQWRqdXN0PSJzcGFjaW5nIiB0ZXh0TGVuZ3RoPSIyNTQiIHg9IjM0ODUiIHk9IjEyODQuMjE4OCI+dm9pZCBvbmNpdHlzZWFyY2goQWN0aW9uRXZlbnQgZXZlbnQpPC90ZXh0PjxlbGxpcHNlIGN4PSIzNDc2IiBjeT0iMTI5NC45NjA5IiBmaWxsPSIjODRCRTg0IiByeD0iMyIgcnk9IjMiIHN0eWxlPSJzdHJva2U6IzAzODA0ODtzdHJva2Utd2lkdGg6MS4wOyIvPjx0ZXh0IGZpbGw9IiMwMDAwMDAiIGZvbnQtZmFtaWx5PSJzYW5zLXNlcmlmIiBmb250LXNpemU9IjE0IiBsZW5ndGhBZGp1c3Q9InNwYWNpbmciIHRleHRMZW5ndGg9IjI0NyIgeD0iMzQ4NSIgeT0iMTI5OS4yMDMxIj52b2lkIG9ubGF0c2VhcmNoKEFjdGlvbkV2ZW50IGV2ZW50KTwvdGV4dD48ZWxsaXBzZSBjeD0iMzQ3NiIgY3k9IjEzMDkuOTQ1MyIgZmlsbD0iIzg0QkU4NCIgcng9IjMiIHJ5PSIzIiBzdHlsZT0ic3Ryb2tlOiMwMzgwNDg7c3Ryb2tlLXdpZHRoOjEuMDsiLz48dGV4dCBmaWxsPSIjMDAwMDAwIiBmb250LWZhbWlseT0ic2Fucy1zZXJpZiIgZm9udC1zaXplPSIxNCIgbGVuZ3RoQWRqdXN0PSJzcGFjaW5nIiB0ZXh0TGVuZ3RoPSIxNzAiIHg9IjM0ODUiIHk9IjEzMTQuMTg3NSI+cHVibGljIHZvaWQgaW5pdGlhbGl6ZSgpPC90ZXh0PjwvZz48IS0tY2xhc3MgVWljb250cm9sbGVyLS0+PGcgaWQ9ImVsZW1fVWljb250cm9sbGVyIj48cmVjdCBjb2RlTGluZT0iNDMiIGZpbGw9IiNGMUYxRjEiIGhlaWdodD0iMTA3LjkzNzUiIGlkPSJVaWNvbnRyb2xsZXIiIHJ4PSIyLjUiIHJ5PSIyLjUiIHN0eWxlPSJzdHJva2U6IzE4MTgxODtzdHJva2Utd2lkdGg6MC41OyIgd2lkdGg9IjMzMyIgeD0iMzgzMyIgeT0iMTIxMiIvPjxlbGxpcHNlIGN4PSIzOTUzLjI1IiBjeT0iMTIyOCIgZmlsbD0iI0FERDFCMiIgcng9IjExIiByeT0iMTEiIHN0eWxlPSJzdHJva2U6IzE4MTgxODtzdHJva2Utd2lkdGg6MS4wOyIvPjxwYXRoIGQ9Ik0zOTUwLjg3NSwxMjMyLjI1IEwzOTUwLjg3NSwxMjM0IEwzOTU1LjgxMjUsMTIzNCBMMzk1NS44MTI1LDEyMzIuMjUgTDM5NTAuODc1LDEyMzIuMjUgWiBNMzk1MS41NjI1LDEyMzIuOTM3NSBRMzk1MS41NjI1LDEyMzIuOTM3NSAzOTUxLjU2MjUsMTIyMy43NSBMMzk0OS44MTI1LDEyMjMuNzUgUTM5NDkuODEyNSwxMjIzLjc1IDM5NDkuODEyNSwxMjMyLjkzNzUgTDM5NTEuNTYyNSwxMjMyLjkzNzUgWiBNMzk1NS4xMjUsMTIzMi45Mzc1IEwzOTU2Ljg3NSwxMjMyLjkzNzUgUTM5NTYuODc1LDEyMzIuOTM3NSAzOTU2Ljg3NSwxMjMwLjEyNSBMMzk1NS4xMjUsMTIzMC4xMjUgUTM5NTUuMTI1LDEyMzAuMTI1IDM5NTUuMTI1LDEyMzIuOTM3NSBaIE0zOTU1LjEyNSwxMjIzLjc1IFEzOTU1LjEyNSwxMjIzLjc1IDM5NTUuMTI1LDEyMjYuNTYyNSBMMzk1Ni44NzUsMTIyNi41NjI1IFEzOTU2Ljg3NSwxMjI2LjU2MjUgMzk1Ni44NzUsMTIyMy43NSBMMzk1NS4xMjUsMTIyMy43NSBaIE0zOTUwLjg3NSwxMjI0LjQzNzUgTDM5NTUuODEyNSwxMjI0LjQzNzUgTDM5NTUuODEyNSwxMjIyLjY4NzUgTDM5NTAuODc1LDEyMjIuNjg3NSBMMzk1MC44NzUsMTIyNC40Mzc1IFogIiBmaWxsPSIjMDAwMDAwIi8+PHRleHQgZmlsbD0iIzAwMDAwMCIgZm9udC1mYW1pbHk9InNhbnMtc2VyaWYiIGZvbnQtc2l6ZT0iMTQiIGxlbmd0aEFkanVzdD0ic3BhY2luZyIgdGV4dExlbmd0aD0iODQiIHg9IjM5NzMuNzUiIHk9IjEyMzMuNzQyMiI+VWljb250cm9sbGVyPC90ZXh0PjxsaW5lIHN0eWxlPSJzdHJva2U6IzE4MTgxODtzdHJva2Utd2lkdGg6MC41OyIgeDE9IjM4MzQiIHgyPSI0MTY1IiB5MT0iMTI0NCIgeTI9IjEyNDQiLz48bGluZSBzdHlsZT0ic3Ryb2tlOiMxODE4MTg7c3Ryb2tlLXdpZHRoOjAuNTsiIHgxPSIzODM0IiB4Mj0iNDE2NSIgeTE9IjEyNTIiIHkyPSIxMjUyIi8+PGVsbGlwc2UgY3g9IjM4NDQiIGN5PSIxMjY0Ljk5MjIiIGZpbGw9IiM4NEJFODQiIHJ4PSIzIiByeT0iMyIgc3R5bGU9InN0cm9rZTojMDM4MDQ4O3N0cm9rZS13aWR0aDoxLjA7Ii8+PHRleHQgZmlsbD0iIzAwMDAwMCIgZm9udC1mYW1pbHk9InNhbnMtc2VyaWYiIGZvbnQtc2l6ZT0iMTQiIGxlbmd0aEFkanVzdD0ic3BhY2luZyIgdGV4dExlbmd0aD0iMzA3IiB4PSIzODUzIiB5PSIxMjY5LjIzNDQiPnB1YmxpYyB2b2lkIHNldE1haW5XaW5kb3coU3RhZ2UgbWFpbndpbmRvdyk8L3RleHQ+PGVsbGlwc2UgY3g9IjM4NDQiIGN5PSIxMjc5Ljk3NjYiIGZpbGw9IiM4NEJFODQiIHJ4PSIzIiByeT0iMyIgc3R5bGU9InN0cm9rZTojMDM4MDQ4O3N0cm9rZS13aWR0aDoxLjA7Ii8+PHRleHQgZmlsbD0iIzAwMDAwMCIgZm9udC1mYW1pbHk9InNhbnMtc2VyaWYiIGZvbnQtc2l6ZT0iMTQiIGxlbmd0aEFkanVzdD0ic3BhY2luZyIgdGV4dExlbmd0aD0iMjU0IiB4PSIzODUzIiB5PSIxMjg0LjIxODgiPnZvaWQgb25jaXR5c2VhcmNoKEFjdGlvbkV2ZW50IGV2ZW50KTwvdGV4dD48ZWxsaXBzZSBjeD0iMzg0NCIgY3k9IjEyOTQuOTYwOSIgZmlsbD0iIzg0QkU4NCIgcng9IjMiIHJ5PSIzIiBzdHlsZT0ic3Ryb2tlOiMwMzgwNDg7c3Ryb2tlLXdpZHRoOjEuMDsiLz48dGV4dCBmaWxsPSIjMDAwMDAwIiBmb250LWZhbWlseT0ic2Fucy1zZXJpZiIgZm9udC1zaXplPSIxNCIgbGVuZ3RoQWRqdXN0PSJzcGFjaW5nIiB0ZXh0TGVuZ3RoPSIyNDciIHg9IjM4NTMiIHk9IjEyOTkuMjAzMSI+dm9pZCBvbmxhdHNlYXJjaChBY3Rpb25FdmVudCBldmVudCk8L3RleHQ+PGVsbGlwc2UgY3g9IjM4NDQiIGN5PSIxMzA5Ljk0NTMiIGZpbGw9IiM4NEJFODQiIHJ4PSIzIiByeT0iMyIgc3R5bGU9InN0cm9rZTojMDM4MDQ4O3N0cm9rZS13aWR0aDoxLjA7Ii8+PHRleHQgZmlsbD0iIzAwMDAwMCIgZm9udC1mYW1pbHk9InNhbnMtc2VyaWYiIGZvbnQtc2l6ZT0iMTQiIGxlbmd0aEFkanVzdD0ic3BhY2luZyIgdGV4dExlbmd0aD0iMTcwIiB4PSIzODUzIiB5PSIxMzE0LjE4NzUiPnB1YmxpYyB2b2lkIGluaXRpYWxpemUoKTwvdGV4dD48L2c+PCEtLWNsYXNzIFdlYXRoZXJDb250cm9sbGVySW50ZXJmYWNlbWFpbi0tPjxnIGlkPSJlbGVtX1dlYXRoZXJDb250cm9sbGVySW50ZXJmYWNlbWFpbiI+PHJlY3QgY29kZUxpbmU9IjUwIiBmaWxsPSIjRjFGMUYxIiBoZWlnaHQ9Ijc3Ljk2ODgiIGlkPSJXZWF0aGVyQ29udHJvbGxlckludGVyZmFjZW1haW4iIHJ4PSIyLjUiIHJ5PSIyLjUiIHN0eWxlPSJzdHJva2U6IzE4MTgxODtzdHJva2Utd2lkdGg6MC41OyIgd2lkdGg9IjU4MiIgeD0iMzQ2OS41IiB5PSI4NTYuNSIvPjxlbGxpcHNlIGN4PSIzNjUwLjc1IiBjeT0iODcyLjUiIGZpbGw9IiNBREQxQjIiIHJ4PSIxMSIgcnk9IjExIiBzdHlsZT0ic3Ryb2tlOiMxODE4MTg7c3Ryb2tlLXdpZHRoOjEuMDsiLz48cGF0aCBkPSJNMzY0OC4zNzUsODc2Ljc1IEwzNjQ4LjM3NSw4NzguNSBMMzY1My4zMTI1LDg3OC41IEwzNjUzLjMxMjUsODc2Ljc1IEwzNjQ4LjM3NSw4NzYuNzUgWiBNMzY0OS4wNjI1LDg3Ny40Mzc1IFEzNjQ5LjA2MjUsODc3LjQzNzUgMzY0OS4wNjI1LDg2OC4yNSBMMzY0Ny4zMTI1LDg2OC4yNSBRMzY0Ny4zMTI1LDg2OC4yNSAzNjQ3LjMxMjUsODc3LjQzNzUgTDM2NDkuMDYyNSw4NzcuNDM3NSBaIE0zNjUyLjYyNSw4NzcuNDM3NSBMMzY1NC4zNzUsODc3LjQzNzUgUTM2NTQuMzc1LDg3Ny40Mzc1IDM2NTQuMzc1LDg3NC42MjUgTDM2NTIuNjI1LDg3NC42MjUgUTM2NTIuNjI1LDg3NC42MjUgMzY1Mi42MjUsODc3LjQzNzUgWiBNMzY1Mi42MjUsODY4LjI1IFEzNjUyLjYyNSw4NjguMjUgMzY1Mi42MjUsODcxLjA2MjUgTDM2NTQuMzc1LDg3MS4wNjI1IFEzNjU0LjM3NSw4NzEuMDYyNSAzNjU0LjM3NSw4NjguMjUgTDM2NTIuNjI1LDg2OC4yNSBaIE0zNjQ4LjM3NSw4NjguOTM3NSBMMzY1My4zMTI1LDg2OC45Mzc1IEwzNjUzLjMxMjUsODY3LjE4NzUgTDM2NDguMzc1LDg2Ny4xODc1IEwzNjQ4LjM3NSw4NjguOTM3NSBaICIgZmlsbD0iIzAwMDAwMCIvPjx0ZXh0IGZpbGw9IiMwMDAwMDAiIGZvbnQtZmFtaWx5PSJzYW5zLXNlcmlmIiBmb250LXNpemU9IjE0IiBsZW5ndGhBZGp1c3Q9InNwYWNpbmciIHRleHRMZW5ndGg9IjIxMSIgeD0iMzY3MS4yNSIgeT0iODc4LjI0MjIiPldlYXRoZXJDb250cm9sbGVySW50ZXJmYWNlbWFpbjwvdGV4dD48bGluZSBzdHlsZT0ic3Ryb2tlOiMxODE4MTg7c3Ryb2tlLXdpZHRoOjAuNTsiIHgxPSIzNDcwLjUiIHgyPSI0MDUwLjUiIHkxPSI4ODguNSIgeTI9Ijg4OC41Ii8+PGxpbmUgc3R5bGU9InN0cm9rZTojMTgxODE4O3N0cm9rZS13aWR0aDowLjU7IiB4MT0iMzQ3MC41IiB4Mj0iNDA1MC41IiB5MT0iODk2LjUiIHkyPSI4OTYuNSIvPjxlbGxpcHNlIGN4PSIzNDgwLjUiIGN5PSI5MDkuNDkyMiIgZmlsbD0iIzg0QkU4NCIgcng9IjMiIHJ5PSIzIiBzdHlsZT0ic3Ryb2tlOiMwMzgwNDg7c3Ryb2tlLXdpZHRoOjEuMDsiLz48dGV4dCBmaWxsPSIjMDAwMDAwIiBmb250LWZhbWlseT0ic2Fucy1zZXJpZiIgZm9udC1zaXplPSIxNCIgbGVuZ3RoQWRqdXN0PSJzcGFjaW5nIiB0ZXh0TGVuZ3RoPSI1NTYiIHg9IjM0ODkuNSIgeT0iOTEzLjczNDQiPnZvaWQgdXBkYXRlVUkobWFpbnNjcmVlbkNvbnRyb2xsZXIgY29udHJvbGxlciBDdXJyZW50V2VhdGhlckFQSURhdGEganNvbk9iamVjdCk8L3RleHQ+PGVsbGlwc2UgY3g9IjM0ODAuNSIgY3k9IjkyNC40NzY2IiBmaWxsPSIjODRCRTg0IiByeD0iMyIgcnk9IjMiIHN0eWxlPSJzdHJva2U6IzAzODA0ODtzdHJva2Utd2lkdGg6MS4wOyIvPjx0ZXh0IGZpbGw9IiMwMDAwMDAiIGZvbnQtZmFtaWx5PSJzYW5zLXNlcmlmIiBmb250LXNpemU9IjE0IiBsZW5ndGhBZGp1c3Q9InNwYWNpbmciIHRleHRMZW5ndGg9IjM1OSIgeD0iMzQ4OS41IiB5PSI5MjguNzE4OCI+dm9pZCB1cGRhdGVGb3JlY2FzdChXZWF0aGVyRm9yZWNhc3RBUElEYXRhIGRhdGFPYmopPC90ZXh0PjwvZz48IS0tY2xhc3MgbWFpbnNjcmVlbjJjb250cm9sbGVyLS0+PGcgaWQ9ImVsZW1fbWFpbnNjcmVlbjJjb250cm9sbGVyIj48cmVjdCBjb2RlTGluZT0iNTUiIGZpbGw9IiNGMUYxRjEiIGhlaWdodD0iMjcyLjc2NTYiIGlkPSJtYWluc2NyZWVuMmNvbnRyb2xsZXIiIHJ4PSIyLjUiIHJ5PSIyLjUiIHN0eWxlPSJzdHJva2U6IzE4MTgxODtzdHJva2Utd2lkdGg6MC41OyIgd2lkdGg9Ijk2NCIgeD0iNDIwMS41IiB5PSIxODYuNSIvPjxlbGxpcHNlIGN4PSI0NjA1LjI1IiBjeT0iMjAyLjUiIGZpbGw9IiNBREQxQjIiIHJ4PSIxMSIgcnk9IjExIiBzdHlsZT0ic3Ryb2tlOiMxODE4MTg7c3Ryb2tlLXdpZHRoOjEuMDsiLz48cGF0aCBkPSJNNDYwMi44NzUsMjA2Ljc1IEw0NjAyLjg3NSwyMDguNSBMNDYwNy44MTI1LDIwOC41IEw0NjA3LjgxMjUsMjA2Ljc1IEw0NjAyLjg3NSwyMDYuNzUgWiBNNDYwMy41NjI1LDIwNy40Mzc1IFE0NjAzLjU2MjUsMjA3LjQzNzUgNDYwMy41NjI1LDE5OC4yNSBMNDYwMS44MTI1LDE5OC4yNSBRNDYwMS44MTI1LDE5OC4yNSA0NjAxLjgxMjUsMjA3LjQzNzUgTDQ2MDMuNTYyNSwyMDcuNDM3NSBaIE00NjA3LjEyNSwyMDcuNDM3NSBMNDYwOC44NzUsMjA3LjQzNzUgUTQ2MDguODc1LDIwNy40Mzc1IDQ2MDguODc1LDIwNC42MjUgTDQ2MDcuMTI1LDIwNC42MjUgUTQ2MDcuMTI1LDIwNC42MjUgNDYwNy4xMjUsMjA3LjQzNzUgWiBNNDYwNy4xMjUsMTk4LjI1IFE0NjA3LjEyNSwxOTguMjUgNDYwNy4xMjUsMjAxLjA2MjUgTDQ2MDguODc1LDIwMS4wNjI1IFE0NjA4Ljg3NSwyMDEuMDYyNSA0NjA4Ljg3NSwxOTguMjUgTDQ2MDcuMTI1LDE5OC4yNSBaIE00NjAyLjg3NSwxOTguOTM3NSBMNDYwNy44MTI1LDE5OC45Mzc1IEw0NjA3LjgxMjUsMTk3LjE4NzUgTDQ2MDIuODc1LDE5Ny4xODc1IEw0NjAyLjg3NSwxOTguOTM3NSBaICIgZmlsbD0iIzAwMDAwMCIvPjx0ZXh0IGZpbGw9IiMwMDAwMDAiIGZvbnQtZmFtaWx5PSJzYW5zLXNlcmlmIiBmb250LXNpemU9IjE0IiBsZW5ndGhBZGp1c3Q9InNwYWNpbmciIHRleHRMZW5ndGg9IjE0OCIgeD0iNDYyNS43NSIgeT0iMjA4LjI0MjIiPm1haW5zY3JlZW4yY29udHJvbGxlcjwvdGV4dD48bGluZSBzdHlsZT0ic3Ryb2tlOiMxODE4MTg7c3Ryb2tlLXdpZHRoOjAuNTsiIHgxPSI0MjAyLjUiIHgyPSI1MTY0LjUiIHkxPSIyMTguNSIgeTI9IjIxOC41Ii8+PGxpbmUgc3R5bGU9InN0cm9rZTojMTgxODE4O3N0cm9rZS13aWR0aDowLjU7IiB4MT0iNDIwMi41IiB4Mj0iNTE2NC41IiB5MT0iMjI2LjUiIHkyPSIyMjYuNSIvPjxlbGxpcHNlIGN4PSI0MjEyLjUiIGN5PSIyMzkuNDkyMiIgZmlsbD0iIzg0QkU4NCIgcng9IjMiIHJ5PSIzIiBzdHlsZT0ic3Ryb2tlOiMwMzgwNDg7c3Ryb2tlLXdpZHRoOjEuMDsiLz48dGV4dCBmaWxsPSIjMDAwMDAwIiBmb250LWZhbWlseT0ic2Fucy1zZXJpZiIgZm9udC1zaXplPSIxNCIgbGVuZ3RoQWRqdXN0PSJzcGFjaW5nIiB0ZXh0TGVuZ3RoPSIyNzYiIHg9IjQyMjEuNSIgeT0iMjQzLjczNDQiPnB1YmxpYyBtYWluc2NyZWVuMmNvbnRyb2xsZXIoU3RyaW5nIGRiKTwvdGV4dD48ZWxsaXBzZSBjeD0iNDIxMi41IiBjeT0iMjU0LjQ3NjYiIGZpbGw9IiM4NEJFODQiIHJ4PSIzIiByeT0iMyIgc3R5bGU9InN0cm9rZTojMDM4MDQ4O3N0cm9rZS13aWR0aDoxLjA7Ii8+PHRleHQgZmlsbD0iIzAwMDAwMCIgZm9udC1mYW1pbHk9InNhbnMtc2VyaWYiIGZvbnQtc2l6ZT0iMTQiIGxlbmd0aEFkanVzdD0ic3BhY2luZyIgdGV4dExlbmd0aD0iMTIxIiB4PSI0MjIxLjUiIHk9IjI1OC43MTg4Ij52b2lkIGluaXRpYWxpemUoKTwvdGV4dD48ZWxsaXBzZSBjeD0iNDIxMi41IiBjeT0iMjY5LjQ2MDkiIGZpbGw9IiM4NEJFODQiIHJ4PSIzIiByeT0iMyIgc3R5bGU9InN0cm9rZTojMDM4MDQ4O3N0cm9rZS13aWR0aDoxLjA7Ii8+PHRleHQgZmlsbD0iIzAwMDAwMCIgZm9udC1mYW1pbHk9InNhbnMtc2VyaWYiIGZvbnQtc2l6ZT0iMTQiIGxlbmd0aEFkanVzdD0ic3BhY2luZyIgdGV4dExlbmd0aD0iMjEzIiB4PSI0MjIxLjUiIHk9IjI3My43MDMxIj5wdWJsaWMgbWFpbnNjcmVlbjJjb250cm9sbGVyKCk8L3RleHQ+PGVsbGlwc2UgY3g9IjQyMTIuNSIgY3k9IjI4NC40NDUzIiBmaWxsPSIjODRCRTg0IiByeD0iMyIgcnk9IjMiIHN0eWxlPSJzdHJva2U6IzAzODA0ODtzdHJva2Utd2lkdGg6MS4wOyIvPjx0ZXh0IGZpbGw9IiMwMDAwMDAiIGZvbnQtZmFtaWx5PSJzYW5zLXNlcmlmIiBmb250LXNpemU9IjE0IiBsZW5ndGhBZGp1c3Q9InNwYWNpbmciIHRleHRMZW5ndGg9IjMwNyIgeD0iNDIyMS41IiB5PSIyODguNjg3NSI+cHVibGljIHZvaWQgc2V0TWFpbldpbmRvdyhTdGFnZSBtYWlud2luZG93KTwvdGV4dD48ZWxsaXBzZSBjeD0iNDIxMi41IiBjeT0iMjk5LjQyOTciIGZpbGw9IiM4NEJFODQiIHJ4PSIzIiByeT0iMyIgc3R5bGU9InN0cm9rZTojMDM4MDQ4O3N0cm9rZS13aWR0aDoxLjA7Ii8+PHRleHQgZmlsbD0iIzAwMDAwMCIgZm9udC1mYW1pbHk9InNhbnMtc2VyaWYiIGZvbnQtc2l6ZT0iMTQiIGxlbmd0aEFkanVzdD0ic3BhY2luZyIgdGV4dExlbmd0aD0iMzI0IiB4PSI0MjIxLjUiIHk9IjMwMy42NzE5Ij5wdWJsaWMgdm9pZCBpbml0aWFsaXplKFN0cmluZyBsYXQsIFN0cmluZyBsb24pPC90ZXh0PjxlbGxpcHNlIGN4PSI0MjEyLjUiIGN5PSIzMTQuNDE0MSIgZmlsbD0iIzg0QkU4NCIgcng9IjMiIHJ5PSIzIiBzdHlsZT0ic3Ryb2tlOiMwMzgwNDg7c3Ryb2tlLXdpZHRoOjEuMDsiLz48dGV4dCBmaWxsPSIjMDAwMDAwIiBmb250LWZhbWlseT0ic2Fucy1zZXJpZiIgZm9udC1zaXplPSIxNCIgbGVuZ3RoQWRqdXN0PSJzcGFjaW5nIiB0ZXh0TGVuZ3RoPSIyNzYiIHg9IjQyMjEuNSIgeT0iMzE4LjY1NjMiPnB1YmxpYyB2b2lkIGluaXRpYWxpemUoU3RyaW5nIGNpdHlOYW1lKTwvdGV4dD48ZWxsaXBzZSBjeD0iNDIxMi41IiBjeT0iMzI5LjM5ODQiIGZpbGw9IiM4NEJFODQiIHJ4PSIzIiByeT0iMyIgc3R5bGU9InN0cm9rZTojMDM4MDQ4O3N0cm9rZS13aWR0aDoxLjA7Ii8+PHRleHQgZmlsbD0iIzAwMDAwMCIgZm9udC1mYW1pbHk9InNhbnMtc2VyaWYiIGZvbnQtc2l6ZT0iMTQiIGxlbmd0aEFkanVzdD0ic3BhY2luZyIgdGV4dExlbmd0aD0iMzI0IiB4PSI0MjIxLjUiIHk9IjMzMy42NDA2Ij52b2lkIEV4cGFuZEFpclBvbGx1dGlvbkluZm8oQWN0aW9uRXZlbnQgZXZlbnQpPC90ZXh0PjxlbGxpcHNlIGN4PSI0MjEyLjUiIGN5PSIzNDQuMzgyOCIgZmlsbD0iIzg0QkU4NCIgcng9IjMiIHJ5PSIzIiBzdHlsZT0ic3Ryb2tlOiMwMzgwNDg7c3Ryb2tlLXdpZHRoOjEuMDsiLz48dGV4dCBmaWxsPSIjMDAwMDAwIiBmb250LWZhbWlseT0ic2Fucy1zZXJpZiIgZm9udC1zaXplPSIxNCIgbGVuZ3RoQWRqdXN0PSJzcGFjaW5nIiB0ZXh0TGVuZ3RoPSIzMDMiIHg9IjQyMjEuNSIgeT0iMzQ4LjYyNSI+dm9pZCBTZWFyY2hXZWF0aGVyQnV0dG9uKEFjdGlvbkV2ZW50IGV2ZW50KTwvdGV4dD48ZWxsaXBzZSBjeD0iNDIxMi41IiBjeT0iMzU5LjM2NzIiIGZpbGw9IiM4NEJFODQiIHJ4PSIzIiByeT0iMyIgc3R5bGU9InN0cm9rZTojMDM4MDQ4O3N0cm9rZS13aWR0aDoxLjA7Ii8+PHRleHQgZmlsbD0iIzAwMDAwMCIgZm9udC1mYW1pbHk9InNhbnMtc2VyaWYiIGZvbnQtc2l6ZT0iMTQiIGxlbmd0aEFkanVzdD0ic3BhY2luZyIgdGV4dExlbmd0aD0iNTU3IiB4PSI0MjIxLjUiIHk9IjM2My42MDk0Ij5wdWJsaWMgdm9pZCBzaG93Tm90aWZpY2F0aW9uKFN0cmluZyB0aXRsZSwgU3RyaW5nIG1lc3NhZ2UsIEFsZXJ0VHlwZSBhbGVydFR5cGUpPC90ZXh0PjxlbGxpcHNlIGN4PSI0MjEyLjUiIGN5PSIzNzQuMzUxNiIgZmlsbD0iIzg0QkU4NCIgcng9IjMiIHJ5PSIzIiBzdHlsZT0ic3Ryb2tlOiMwMzgwNDg7c3Ryb2tlLXdpZHRoOjEuMDsiLz48dGV4dCBmaWxsPSIjMDAwMDAwIiBmb250LWZhbWlseT0ic2Fucy1zZXJpZiIgZm9udC1zaXplPSIxNCIgbGVuZ3RoQWRqdXN0PSJzcGFjaW5nIiB0ZXh0TGVuZ3RoPSI2MTkiIHg9IjQyMjEuNSIgeT0iMzc4LjU5MzgiPnB1YmxpYyB2b2lkIHVwZGF0ZVVJKG1haW5zY3JlZW4yY29udHJvbGxlciBjb250cm9sbGVyLCBDdXJyZW50V2VhdGhlckFQSURhdGEganNvbk9iamVjdCk8L3RleHQ+PGVsbGlwc2UgY3g9IjQyMTIuNSIgY3k9IjM4OS4zMzU5IiBmaWxsPSIjODRCRTg0IiByeD0iMyIgcnk9IjMiIHN0eWxlPSJzdHJva2U6IzAzODA0ODtzdHJva2Utd2lkdGg6MS4wOyIvPjx0ZXh0IGZpbGw9IiMwMDAwMDAiIGZvbnQtZmFtaWx5PSJzYW5zLXNlcmlmIiBmb250LXNpemU9IjE0IiBsZW5ndGhBZGp1c3Q9InNwYWNpbmciIHRleHRMZW5ndGg9IjQxMiIgeD0iNDIyMS41IiB5PSIzOTMuNTc4MSI+cHJpdmF0ZSBTdHJpbmcgZm9ybWF0VGltZShpbnQgdGltZUluU2Vjb25kcywgaW50IHRpbWV6b25lKTwvdGV4dD48ZWxsaXBzZSBjeD0iNDIxMi41IiBjeT0iNDA0LjMyMDMiIGZpbGw9IiM4NEJFODQiIHJ4PSIzIiByeT0iMyIgc3R5bGU9InN0cm9rZTojMDM4MDQ4O3N0cm9rZS13aWR0aDoxLjA7Ii8+PHRleHQgZmlsbD0iIzAwMDAwMCIgZm9udC1mYW1pbHk9InNhbnMtc2VyaWYiIGZvbnQtc2l6ZT0iMTQiIGxlbmd0aEFkanVzdD0ic3BhY2luZyIgdGV4dExlbmd0aD0iNDA4IiB4PSI0MjIxLjUiIHk9IjQwOC41NjI1Ij5wdWJsaWMgdm9pZCB1cGRhdGVGb3JlY2FzdChXZWF0aGVyRm9yZWNhc3RBUElEYXRhIERhdGFPYmopPC90ZXh0PjxlbGxpcHNlIGN4PSI0MjEyLjUiIGN5PSI0MTkuMzA0NyIgZmlsbD0iIzg0QkU4NCIgcng9IjMiIHJ5PSIzIiBzdHlsZT0ic3Ryb2tlOiMwMzgwNDg7c3Ryb2tlLXdpZHRoOjEuMDsiLz48dGV4dCBmaWxsPSIjMDAwMDAwIiBmb250LWZhbWlseT0ic2Fucy1zZXJpZiIgZm9udC1zaXplPSIxNCIgbGVuZ3RoQWRqdXN0PSJzcGFjaW5nIiB0ZXh0TGVuZ3RoPSI5MzgiIHg9IjQyMjEuNSIgeT0iNDIzLjU0NjkiPnB1YmxpYyB2b2lkIHVwZGF0ZUZvcmVjYXN0Rm9yRGF5KGludCBkYXlJbmRleCwgZG91YmxlIG1pblRlbXBlcmF0dXJlLCBkb3VibGUgbWF4VGVtcGVyYXR1cmUsIFN0cmluZyB3ZWF0aGVyQ29uZGl0aW9uLCBTdHJpbmcgaWNvblVybCk8L3RleHQ+PGVsbGlwc2UgY3g9IjQyMTIuNSIgY3k9IjQzNC4yODkxIiBmaWxsPSIjODRCRTg0IiByeD0iMyIgcnk9IjMiIHN0eWxlPSJzdHJva2U6IzAzODA0ODtzdHJva2Utd2lkdGg6MS4wOyIvPjx0ZXh0IGZpbGw9IiMwMDAwMDAiIGZvbnQtZmFtaWx5PSJzYW5zLXNlcmlmIiBmb250LXNpemU9IjE0IiBsZW5ndGhBZGp1c3Q9InNwYWNpbmciIHRleHRMZW5ndGg9IjI3NiIgeD0iNDIyMS41IiB5PSI0MzguNTMxMyI+cHJpdmF0ZSBTdHJpbmcgZ2V0RGF5TmFtZShpbnQgZGF5SW5kZXgpPC90ZXh0PjxlbGxpcHNlIGN4PSI0MjEyLjUiIGN5PSI0NDkuMjczNCIgZmlsbD0iIzg0QkU4NCIgcng9IjMiIHJ5PSIzIiBzdHlsZT0ic3Ryb2tlOiMwMzgwNDg7c3Ryb2tlLXdpZHRoOjEuMDsiLz48dGV4dCBmaWxsPSIjMDAwMDAwIiBmb250LWZhbWlseT0ic2Fucy1zZXJpZiIgZm9udC1zaXplPSIxNCIgbGVuZ3RoQWRqdXN0PSJzcGFjaW5nIiB0ZXh0TGVuZ3RoPSIzNjkiIHg9IjQyMjEuNSIgeT0iNDUzLjUxNTYiPnByaXZhdGUgU3RyaW5nIGZvcm1hdFRlbXBlcmF0dXJlKGRvdWJsZSB0ZW1wZXJhdHVyZSk8L3RleHQ+PC9nPjwhLS1jbGFzcyBtYWluc2NyZWVuQ29udHJvbGxlci0tPjxnIGlkPSJlbGVtX21haW5zY3JlZW5Db250cm9sbGVyIj48cmVjdCBjb2RlTGluZT0iNzMiIGZpbGw9IiNGMUYxRjEiIGhlaWdodD0iMjcyLjc2NTYiIGlkPSJtYWluc2NyZWVuQ29udHJvbGxlciIgcng9IjIuNSIgcnk9IjIuNSIgc3R5bGU9InN0cm9rZTojMTgxODE4O3N0cm9rZS13aWR0aDowLjU7IiB3aWR0aD0iOTY0IiB4PSI0NjgzLjUiIHk9Ijc1OSIvPjxlbGxpcHNlIGN4PSI1MDkwLjc1IiBjeT0iNzc1IiBmaWxsPSIjQUREMUIyIiByeD0iMTEiIHJ5PSIxMSIgc3R5bGU9InN0cm9rZTojMTgxODE4O3N0cm9rZS13aWR0aDoxLjA7Ii8+PHBhdGggZD0iTTUwODguMzc1LDc3OS4yNSBMNTA4OC4zNzUsNzgxIEw1MDkzLjMxMjUsNzgxIEw1MDkzLjMxMjUsNzc5LjI1IEw1MDg4LjM3NSw3NzkuMjUgWiBNNTA4OS4wNjI1LDc3OS45Mzc1IFE1MDg5LjA2MjUsNzc5LjkzNzUgNTA4OS4wNjI1LDc3MC43NSBMNTA4Ny4zMTI1LDc3MC43NSBRNTA4Ny4zMTI1LDc3MC43NSA1MDg3LjMxMjUsNzc5LjkzNzUgTDUwODkuMDYyNSw3NzkuOTM3NSBaIE01MDkyLjYyNSw3NzkuOTM3NSBMNTA5NC4zNzUsNzc5LjkzNzUgUTUwOTQuMzc1LDc3OS45Mzc1IDUwOTQuMzc1LDc3Ny4xMjUgTDUwOTIuNjI1LDc3Ny4xMjUgUTUwOTIuNjI1LDc3Ny4xMjUgNTA5Mi42MjUsNzc5LjkzNzUgWiBNNTA5Mi42MjUsNzcwLjc1IFE1MDkyLjYyNSw3NzAuNzUgNTA5Mi42MjUsNzczLjU2MjUgTDUwOTQuMzc1LDc3My41NjI1IFE1MDk0LjM3NSw3NzMuNTYyNSA1MDk0LjM3NSw3NzAuNzUgTDUwOTIuNjI1LDc3MC43NSBaIE01MDg4LjM3NSw3NzEuNDM3NSBMNTA5My4zMTI1LDc3MS40Mzc1IEw1MDkzLjMxMjUsNzY5LjY4NzUgTDUwODguMzc1LDc2OS42ODc1IEw1MDg4LjM3NSw3NzEuNDM3NSBaICIgZmlsbD0iIzAwMDAwMCIvPjx0ZXh0IGZpbGw9IiMwMDAwMDAiIGZvbnQtZmFtaWx5PSJzYW5zLXNlcmlmIiBmb250LXNpemU9IjE0IiBsZW5ndGhBZGp1c3Q9InNwYWNpbmciIHRleHRMZW5ndGg9IjE0MSIgeD0iNTExMS4yNSIgeT0iNzgwLjc0MjIiPm1haW5zY3JlZW5Db250cm9sbGVyPC90ZXh0PjxsaW5lIHN0eWxlPSJzdHJva2U6IzE4MTgxODtzdHJva2Utd2lkdGg6MC41OyIgeDE9IjQ2ODQuNSIgeDI9IjU2NDYuNSIgeTE9Ijc5MSIgeTI9Ijc5MSIvPjxsaW5lIHN0eWxlPSJzdHJva2U6IzE4MTgxODtzdHJva2Utd2lkdGg6MC41OyIgeDE9IjQ2ODQuNSIgeDI9IjU2NDYuNSIgeTE9Ijc5OSIgeTI9Ijc5OSIvPjxlbGxpcHNlIGN4PSI0Njk0LjUiIGN5PSI4MTEuOTkyMiIgZmlsbD0iIzg0QkU4NCIgcng9IjMiIHJ5PSIzIiBzdHlsZT0ic3Ryb2tlOiMwMzgwNDg7c3Ryb2tlLXdpZHRoOjEuMDsiLz48dGV4dCBmaWxsPSIjMDAwMDAwIiBmb250LWZhbWlseT0ic2Fucy1zZXJpZiIgZm9udC1zaXplPSIxNCIgbGVuZ3RoQWRqdXN0PSJzcGFjaW5nIiB0ZXh0TGVuZ3RoPSI1NTciIHg9IjQ3MDMuNSIgeT0iODE2LjIzNDQiPnB1YmxpYyB2b2lkIHNob3dOb3RpZmljYXRpb24oU3RyaW5nIHRpdGxlLCBTdHJpbmcgbWVzc2FnZSwgQWxlcnRUeXBlIGFsZXJ0VHlwZSk8L3RleHQ+PGVsbGlwc2UgY3g9IjQ2OTQuNSIgY3k9IjgyNi45NzY2IiBmaWxsPSIjODRCRTg0IiByeD0iMyIgcnk9IjMiIHN0eWxlPSJzdHJva2U6IzAzODA0ODtzdHJva2Utd2lkdGg6MS4wOyIvPjx0ZXh0IGZpbGw9IiMwMDAwMDAiIGZvbnQtZmFtaWx5PSJzYW5zLXNlcmlmIiBmb250LXNpemU9IjE0IiBsZW5ndGhBZGp1c3Q9InNwYWNpbmciIHRleHRMZW5ndGg9IjI2OSIgeD0iNDcwMy41IiB5PSI4MzEuMjE4OCI+cHVibGljIG1haW5zY3JlZW5Db250cm9sbGVyKFN0cmluZyBkYik8L3RleHQ+PGVsbGlwc2UgY3g9IjQ2OTQuNSIgY3k9Ijg0MS45NjA5IiBmaWxsPSIjODRCRTg0IiByeD0iMyIgcnk9IjMiIHN0eWxlPSJzdHJva2U6IzAzODA0ODtzdHJva2Utd2lkdGg6MS4wOyIvPjx0ZXh0IGZpbGw9IiMwMDAwMDAiIGZvbnQtZmFtaWx5PSJzYW5zLXNlcmlmIiBmb250LXNpemU9IjE0IiBsZW5ndGhBZGp1c3Q9InNwYWNpbmciIHRleHRMZW5ndGg9IjEyMSIgeD0iNDcwMy41IiB5PSI4NDYuMjAzMSI+dm9pZCBpbml0aWFsaXplKCk8L3RleHQ+PGVsbGlwc2UgY3g9IjQ2OTQuNSIgY3k9Ijg1Ni45NDUzIiBmaWxsPSIjODRCRTg0IiByeD0iMyIgcnk9IjMiIHN0eWxlPSJzdHJva2U6IzAzODA0ODtzdHJva2Utd2lkdGg6MS4wOyIvPjx0ZXh0IGZpbGw9IiMwMDAwMDAiIGZvbnQtZmFtaWx5PSJzYW5zLXNlcmlmIiBmb250LXNpemU9IjE0IiBsZW5ndGhBZGp1c3Q9InNwYWNpbmciIHRleHRMZW5ndGg9IjE5OCIgeD0iNDcwMy41IiB5PSI4NjEuMTg3NSI+cHJpdmF0ZSB2b2lkIHNldERheUFuZERhdGUoKTwvdGV4dD48ZWxsaXBzZSBjeD0iNDY5NC41IiBjeT0iODcxLjkyOTciIGZpbGw9IiM4NEJFODQiIHJ4PSIzIiByeT0iMyIgc3R5bGU9InN0cm9rZTojMDM4MDQ4O3N0cm9rZS13aWR0aDoxLjA7Ii8+PHRleHQgZmlsbD0iIzAwMDAwMCIgZm9udC1mYW1pbHk9InNhbnMtc2VyaWYiIGZvbnQtc2l6ZT0iMTQiIGxlbmd0aEFkanVzdD0ic3BhY2luZyIgdGV4dExlbmd0aD0iMjA2IiB4PSI0NzAzLjUiIHk9Ijg3Ni4xNzE5Ij5wdWJsaWMgbWFpbnNjcmVlbkNvbnRyb2xsZXIoKTwvdGV4dD48ZWxsaXBzZSBjeD0iNDY5NC41IiBjeT0iODg2LjkxNDEiIGZpbGw9IiM4NEJFODQiIHJ4PSIzIiByeT0iMyIgc3R5bGU9InN0cm9rZTojMDM4MDQ4O3N0cm9rZS13aWR0aDoxLjA7Ii8+PHRleHQgZmlsbD0iIzAwMDAwMCIgZm9udC1mYW1pbHk9InNhbnMtc2VyaWYiIGZvbnQtc2l6ZT0iMTQiIGxlbmd0aEFkanVzdD0ic3BhY2luZyIgdGV4dExlbmd0aD0iMzA3IiB4PSI0NzAzLjUiIHk9Ijg5MS4xNTYzIj5wdWJsaWMgdm9pZCBzZXRNYWluV2luZG93KFN0YWdlIG1haW53aW5kb3cpPC90ZXh0PjxlbGxpcHNlIGN4PSI0Njk0LjUiIGN5PSI5MDEuODk4NCIgZmlsbD0iIzg0QkU4NCIgcng9IjMiIHJ5PSIzIiBzdHlsZT0ic3Ryb2tlOiMwMzgwNDg7c3Ryb2tlLXdpZHRoOjEuMDsiLz48dGV4dCBmaWxsPSIjMDAwMDAwIiBmb250LWZhbWlseT0ic2Fucy1zZXJpZiIgZm9udC1zaXplPSIxNCIgbGVuZ3RoQWRqdXN0PSJzcGFjaW5nIiB0ZXh0TGVuZ3RoPSIzMjQiIHg9IjQ3MDMuNSIgeT0iOTA2LjE0MDYiPnB1YmxpYyB2b2lkIGluaXRpYWxpemUoU3RyaW5nIGxhdCwgU3RyaW5nIGxvbik8L3RleHQ+PGVsbGlwc2UgY3g9IjQ2OTQuNSIgY3k9IjkxNi44ODI4IiBmaWxsPSIjODRCRTg0IiByeD0iMyIgcnk9IjMiIHN0eWxlPSJzdHJva2U6IzAzODA0ODtzdHJva2Utd2lkdGg6MS4wOyIvPjx0ZXh0IGZpbGw9IiMwMDAwMDAiIGZvbnQtZmFtaWx5PSJzYW5zLXNlcmlmIiBmb250LXNpemU9IjE0IiBsZW5ndGhBZGp1c3Q9InNwYWNpbmciIHRleHRMZW5ndGg9IjI3NiIgeD0iNDcwMy41IiB5PSI5MjEuMTI1Ij5wdWJsaWMgdm9pZCBpbml0aWFsaXplKFN0cmluZyBjaXR5TmFtZSk8L3RleHQ+PGVsbGlwc2UgY3g9IjQ2OTQuNSIgY3k9IjkzMS44NjcyIiBmaWxsPSIjODRCRTg0IiByeD0iMyIgcnk9IjMiIHN0eWxlPSJzdHJva2U6IzAzODA0ODtzdHJva2Utd2lkdGg6MS4wOyIvPjx0ZXh0IGZpbGw9IiMwMDAwMDAiIGZvbnQtZmFtaWx5PSJzYW5zLXNlcmlmIiBmb250LXNpemU9IjE0IiBsZW5ndGhBZGp1c3Q9InNwYWNpbmciIHRleHRMZW5ndGg9IjMxNyIgeD0iNDcwMy41IiB5PSI5MzYuMTA5NCI+dm9pZCBFeHBhbmRBaXJQb2xsdXRpb25JbmZvKEFjdGlvbkV2ZW50ZXZlbnQpPC90ZXh0PjxlbGxpcHNlIGN4PSI0Njk0LjUiIGN5PSI5NDYuODUxNiIgZmlsbD0iIzg0QkU4NCIgcng9IjMiIHJ5PSIzIiBzdHlsZT0ic3Ryb2tlOiMwMzgwNDg7c3Ryb2tlLXdpZHRoOjEuMDsiLz48dGV4dCBmaWxsPSIjMDAwMDAwIiBmb250LWZhbWlseT0ic2Fucy1zZXJpZiIgZm9udC1zaXplPSIxNCIgbGVuZ3RoQWRqdXN0PSJzcGFjaW5nIiB0ZXh0TGVuZ3RoPSIzMDMiIHg9IjQ3MDMuNSIgeT0iOTUxLjA5MzgiPnZvaWQgU2VhcmNoV2VhdGhlckJ1dHRvbihBY3Rpb25FdmVudCBldmVudCk8L3RleHQ+PGVsbGlwc2UgY3g9IjQ2OTQuNSIgY3k9Ijk2MS44MzU5IiBmaWxsPSIjODRCRTg0IiByeD0iMyIgcnk9IjMiIHN0eWxlPSJzdHJva2U6IzAzODA0ODtzdHJva2Utd2lkdGg6MS4wOyIvPjx0ZXh0IGZpbGw9IiMwMDAwMDAiIGZvbnQtZmFtaWx5PSJzYW5zLXNlcmlmIiBmb250LXNpemU9IjE0IiBsZW5ndGhBZGp1c3Q9InNwYWNpbmciIHRleHRMZW5ndGg9IjYxMiIgeD0iNDcwMy41IiB5PSI5NjYuMDc4MSI+cHVibGljIHZvaWQgdXBkYXRlVUkobWFpbnNjcmVlbkNvbnRyb2xsZXIgY29udHJvbGxlciwgQ3VycmVudFdlYXRoZXJBUElEYXRhIGpzb25PYmplY3QpPC90ZXh0PjxlbGxpcHNlIGN4PSI0Njk0LjUiIGN5PSI5NzYuODIwMyIgZmlsbD0iIzg0QkU4NCIgcng9IjMiIHJ5PSIzIiBzdHlsZT0ic3Ryb2tlOiMwMzgwNDg7c3Ryb2tlLXdpZHRoOjEuMDsiLz48dGV4dCBmaWxsPSIjMDAwMDAwIiBmb250LWZhbWlseT0ic2Fucy1zZXJpZiIgZm9udC1zaXplPSIxNCIgbGVuZ3RoQWRqdXN0PSJzcGFjaW5nIiB0ZXh0TGVuZ3RoPSI0MDgiIHg9IjQ3MDMuNSIgeT0iOTgxLjA2MjUiPnB1YmxpYyB2b2lkIHVwZGF0ZUZvcmVjYXN0KFdlYXRoZXJGb3JlY2FzdEFQSURhdGEgRGF0YU9iaik8L3RleHQ+PGVsbGlwc2UgY3g9IjQ2OTQuNSIgY3k9Ijk5MS44MDQ3IiBmaWxsPSIjODRCRTg0IiByeD0iMyIgcnk9IjMiIHN0eWxlPSJzdHJva2U6IzAzODA0ODtzdHJva2Utd2lkdGg6MS4wOyIvPjx0ZXh0IGZpbGw9IiMwMDAwMDAiIGZvbnQtZmFtaWx5PSJzYW5zLXNlcmlmIiBmb250LXNpemU9IjE0IiBsZW5ndGhBZGp1c3Q9InNwYWNpbmciIHRleHRMZW5ndGg9IjkzOCIgeD0iNDcwMy41IiB5PSI5OTYuMDQ2OSI+cHVibGljIHZvaWQgdXBkYXRlRm9yZWNhc3RGb3JEYXkoaW50IGRheUluZGV4LCBkb3VibGUgbWluVGVtcGVyYXR1cmUsIGRvdWJsZSBtYXhUZW1wZXJhdHVyZSwgU3RyaW5nIHdlYXRoZXJDb25kaXRpb24sIFN0cmluZyBpY29uVXJsKTwvdGV4dD48ZWxsaXBzZSBjeD0iNDY5NC41IiBjeT0iMTAwNi43ODkxIiBmaWxsPSIjODRCRTg0IiByeD0iMyIgcnk9IjMiIHN0eWxlPSJzdHJva2U6IzAzODA0ODtzdHJva2Utd2lkdGg6MS4wOyIvPjx0ZXh0IGZpbGw9IiMwMDAwMDAiIGZvbnQtZmFtaWx5PSJzYW5zLXNlcmlmIiBmb250LXNpemU9IjE0IiBsZW5ndGhBZGp1c3Q9InNwYWNpbmciIHRleHRMZW5ndGg9IjI3NiIgeD0iNDcwMy41IiB5PSIxMDExLjAzMTMiPnByaXZhdGUgU3RyaW5nIGdldERheU5hbWUoaW50IGRheUluZGV4KTwvdGV4dD48ZWxsaXBzZSBjeD0iNDY5NC41IiBjeT0iMTAyMS43NzM0IiBmaWxsPSIjODRCRTg0IiByeD0iMyIgcnk9IjMiIHN0eWxlPSJzdHJva2U6IzAzODA0ODtzdHJva2Utd2lkdGg6MS4wOyIvPjx0ZXh0IGZpbGw9IiMwMDAwMDAiIGZvbnQtZmFtaWx5PSJzYW5zLXNlcmlmIiBmb250LXNpemU9IjE0IiBsZW5ndGhBZGp1c3Q9InNwYWNpbmciIHRleHRMZW5ndGg9IjM2OSIgeD0iNDcwMy41IiB5PSIxMDI2LjAxNTYiPnByaXZhdGUgU3RyaW5nIGZvcm1hdFRlbXBlcmF0dXJlKGRvdWJsZSB0ZW1wZXJhdHVyZSk8L3RleHQ+PC9nPjwhLS1jbGFzcyBCdXNpbmVzc0xvZ2ljLS0+PGcgaWQ9ImVsZW1fQnVzaW5lc3NMb2dpYyI+PHJlY3QgY29kZUxpbmU9IjkxIiBmaWxsPSIjRjFGMUYxIiBoZWlnaHQ9IjE5Ny44NDM4IiBpZD0iQnVzaW5lc3NMb2dpYyIgcng9IjIuNSIgcnk9IjIuNSIgc3R5bGU9InN0cm9rZTojMTgxODE4O3N0cm9rZS13aWR0aDowLjU7IiB3aWR0aD0iNDI3IiB4PSI1NTE3IiB5PSIyMjQiLz48ZWxsaXBzZSBjeD0iNTY4MC43NSIgY3k9IjI0MCIgZmlsbD0iI0FERDFCMiIgcng9IjExIiByeT0iMTEiIHN0eWxlPSJzdHJva2U6IzE4MTgxODtzdHJva2Utd2lkdGg6MS4wOyIvPjxwYXRoIGQ9Ik01Njc4LjM3NSwyNDQuMjUgTDU2NzguMzc1LDI0NiBMNTY4My4zMTI1LDI0NiBMNTY4My4zMTI1LDI0NC4yNSBMNTY3OC4zNzUsMjQ0LjI1IFogTTU2NzkuMDYyNSwyNDQuOTM3NSBRNTY3OS4wNjI1LDI0NC45Mzc1IDU2NzkuMDYyNSwyMzUuNzUgTDU2NzcuMzEyNSwyMzUuNzUgUTU2NzcuMzEyNSwyMzUuNzUgNTY3Ny4zMTI1LDI0NC45Mzc1IEw1Njc5LjA2MjUsMjQ0LjkzNzUgWiBNNTY4Mi42MjUsMjQ0LjkzNzUgTDU2ODQuMzc1LDI0NC45Mzc1IFE1Njg0LjM3NSwyNDQuOTM3NSA1Njg0LjM3NSwyNDIuMTI1IEw1NjgyLjYyNSwyNDIuMTI1IFE1NjgyLjYyNSwyNDIuMTI1IDU2ODIuNjI1LDI0NC45Mzc1IFogTTU2ODIuNjI1LDIzNS43NSBRNTY4Mi42MjUsMjM1Ljc1IDU2ODIuNjI1LDIzOC41NjI1IEw1Njg0LjM3NSwyMzguNTYyNSBRNTY4NC4zNzUsMjM4LjU2MjUgNTY4NC4zNzUsMjM1Ljc1IEw1NjgyLjYyNSwyMzUuNzUgWiBNNTY3OC4zNzUsMjM2LjQzNzUgTDU2ODMuMzEyNSwyMzYuNDM3NSBMNTY4My4zMTI1LDIzNC42ODc1IEw1Njc4LjM3NSwyMzQuNjg3NSBMNTY3OC4zNzUsMjM2LjQzNzUgWiAiIGZpbGw9IiMwMDAwMDAiLz48dGV4dCBmaWxsPSIjMDAwMDAwIiBmb250LWZhbWlseT0ic2Fucy1zZXJpZiIgZm9udC1zaXplPSIxNCIgbGVuZ3RoQWRqdXN0PSJzcGFjaW5nIiB0ZXh0TGVuZ3RoPSI5MSIgeD0iNTcwMS4yNSIgeT0iMjQ1Ljc0MjIiPkJ1c2luZXNzTG9naWM8L3RleHQ+PGxpbmUgc3R5bGU9InN0cm9rZTojMTgxODE4O3N0cm9rZS13aWR0aDowLjU7IiB4MT0iNTUxOCIgeDI9IjU5NDMiIHkxPSIyNTYiIHkyPSIyNTYiLz48ZWxsaXBzZSBjeD0iNTUyOCIgY3k9IjI2OC45OTIyIiBmaWxsPSJub25lIiByeD0iMyIgcnk9IjMiIHN0eWxlPSJzdHJva2U6IzAzODA0ODtzdHJva2Utd2lkdGg6MS4wOyIvPjx0ZXh0IGZpbGw9IiMwMDAwMDAiIGZvbnQtZmFtaWx5PSJzYW5zLXNlcmlmIiBmb250LXNpemU9IjE0IiBsZW5ndGhBZGp1c3Q9InNwYWNpbmciIHRleHRMZW5ndGg9IjE1NCIgeD0iNTUzNyIgeT0iMjczLjIzNDQiPnB1YmxpYyBjbGFzcyBEVUlGaWxsZXI8L3RleHQ+PGxpbmUgc3R5bGU9InN0cm9rZTojMTgxODE4O3N0cm9rZS13aWR0aDowLjU7IiB4MT0iNTUxOCIgeDI9IjU5NDMiIHkxPSIyNzguOTg0NCIgeTI9IjI3OC45ODQ0Ii8+PGVsbGlwc2UgY3g9IjU1MjgiIGN5PSIyOTEuOTc2NiIgZmlsbD0iIzg0QkU4NCIgcng9IjMiIHJ5PSIzIiBzdHlsZT0ic3Ryb2tlOiMwMzgwNDg7c3Ryb2tlLXdpZHRoOjEuMDsiLz48dGV4dCBmaWxsPSIjMDAwMDAwIiBmb250LWZhbWlseT0ic2Fucy1zZXJpZiIgZm9udC1zaXplPSIxNCIgbGVuZ3RoQWRqdXN0PSJzcGFjaW5nIiB0ZXh0TGVuZ3RoPSIzNDUiIHg9IjU1MzciIHk9IjI5Ni4yMTg4Ij5wdWJsaWMgdm9pZCBTZWFyY2hCeUNvb3JkKGRvdWJsZSBsYXQsIGRvdWJsZSBsb24pPC90ZXh0PjxlbGxpcHNlIGN4PSI1NTI4IiBjeT0iMzA2Ljk2MDkiIGZpbGw9IiM4NEJFODQiIHJ4PSIzIiByeT0iMyIgc3R5bGU9InN0cm9rZTojMDM4MDQ4O3N0cm9rZS13aWR0aDoxLjA7Ii8+PHRleHQgZmlsbD0iIzAwMDAwMCIgZm9udC1mYW1pbHk9InNhbnMtc2VyaWYiIGZvbnQtc2l6ZT0iMTQiIGxlbmd0aEFkanVzdD0ic3BhY2luZyIgdGV4dExlbmd0aD0iNDAxIiB4PSI1NTM3IiB5PSIzMTEuMjAzMSI+cHVibGljIHZvaWQgQ2hlY2tDdXJyV2VhdGhlckNvb3JkKGRvdWJsZSBsYXQsIGRvdWJsZSBsb24pPC90ZXh0PjxlbGxpcHNlIGN4PSI1NTI4IiBjeT0iMzIxLjk0NTMiIGZpbGw9IiM4NEJFODQiIHJ4PSIzIiByeT0iMyIgc3R5bGU9InN0cm9rZTojMDM4MDQ4O3N0cm9rZS13aWR0aDoxLjA7Ii8+PHRleHQgZmlsbD0iIzAwMDAwMCIgZm9udC1mYW1pbHk9InNhbnMtc2VyaWYiIGZvbnQtc2l6ZT0iMTQiIGxlbmd0aEFkanVzdD0ic3BhY2luZyIgdGV4dExlbmd0aD0iMzE3IiB4PSI1NTM3IiB5PSIzMjYuMTg3NSI+cHVibGljIHZvaWQgQ2hlY2tDdXJyV2VhdGhlckNpdHkoU3RyaW5nIENpdHkpPC90ZXh0PjxlbGxpcHNlIGN4PSI1NTI4IiBjeT0iMzM2LjkyOTciIGZpbGw9IiM4NEJFODQiIHJ4PSIzIiByeT0iMyIgc3R5bGU9InN0cm9rZTojMDM4MDQ4O3N0cm9rZS13aWR0aDoxLjA7Ii8+PHRleHQgZmlsbD0iIzAwMDAwMCIgZm9udC1mYW1pbHk9InNhbnMtc2VyaWYiIGZvbnQtc2l6ZT0iMTQiIGxlbmd0aEFkanVzdD0ic3BhY2luZyIgdGV4dExlbmd0aD0iMzczIiB4PSI1NTM3IiB5PSIzNDEuMTcxOSI+cHVibGljIHZvaWQgQ2hlY2tBaXJQb2xsQ29vcmQoZG91YmxlIGxhdCwgZG91YmxlIGxvbik8L3RleHQ+PGVsbGlwc2UgY3g9IjU1MjgiIGN5PSIzNTEuOTE0MSIgZmlsbD0iIzg0QkU4NCIgcng9IjMiIHJ5PSIzIiBzdHlsZT0ic3Ryb2tlOiMwMzgwNDg7c3Ryb2tlLXdpZHRoOjEuMDsiLz48dGV4dCBmaWxsPSIjMDAwMDAwIiBmb250LWZhbWlseT0ic2Fucy1zZXJpZiIgZm9udC1zaXplPSIxNCIgbGVuZ3RoQWRqdXN0PSJzcGFjaW5nIiB0ZXh0TGVuZ3RoPSIyOTYiIHg9IjU1MzciIHk9IjM1Ni4xNTYzIj5wdWJsaWMgdm9pZCBDaGVja0ZvcmVjYXN0Q2l0eShTdHJpbmcgQ2l0eSk8L3RleHQ+PGVsbGlwc2UgY3g9IjU1MjgiIGN5PSIzNjYuODk4NCIgZmlsbD0iIzg0QkU4NCIgcng9IjMiIHJ5PSIzIiBzdHlsZT0ic3Ryb2tlOiMwMzgwNDg7c3Ryb2tlLXdpZHRoOjEuMDsiLz48dGV4dCBmaWxsPSIjMDAwMDAwIiBmb250LWZhbWlseT0ic2Fucy1zZXJpZiIgZm9udC1zaXplPSIxNCIgbGVuZ3RoQWRqdXN0PSJzcGFjaW5nIiB0ZXh0TGVuZ3RoPSIzODAiIHg9IjU1MzciIHk9IjM3MS4xNDA2Ij5wdWJsaWMgdm9pZCBDaGVja0ZvcmVjYXN0Q29vcmQoZG91YmxlIGxhdCwgZG91YmxlIGxvbik8L3RleHQ+PGVsbGlwc2UgY3g9IjU1MjgiIGN5PSIzODEuODgyOCIgZmlsbD0iIzg0QkU4NCIgcng9IjMiIHJ5PSIzIiBzdHlsZT0ic3Ryb2tlOiMwMzgwNDg7c3Ryb2tlLXdpZHRoOjEuMDsiLz48dGV4dCBmaWxsPSIjMDAwMDAwIiBmb250LWZhbWlseT0ic2Fucy1zZXJpZiIgZm9udC1zaXplPSIxNCIgbGVuZ3RoQWRqdXN0PSJzcGFjaW5nIiB0ZXh0TGVuZ3RoPSIxNDIiIHg9IjU1MzciIHk9IjM4Ni4xMjUiPnB1YmxpYyB2b2lkIHJ1bkdVSSgpPC90ZXh0PjxlbGxpcHNlIGN4PSI1NTI4IiBjeT0iMzk2Ljg2NzIiIGZpbGw9IiM4NEJFODQiIHJ4PSIzIiByeT0iMyIgc3R5bGU9InN0cm9rZTojMDM4MDQ4O3N0cm9rZS13aWR0aDoxLjA7Ii8+PHRleHQgZmlsbD0iIzAwMDAwMCIgZm9udC1mYW1pbHk9InNhbnMtc2VyaWYiIGZvbnQtc2l6ZT0iMTQiIGxlbmd0aEFkanVzdD0ic3BhY2luZyIgdGV4dExlbmd0aD0iMjA2IiB4PSI1NTM3IiB5PSI0MDEuMTA5NCI+cHVibGljIHZvaWQgRmxvdyhTdHJpbmcgY2l0eSk8L3RleHQ+PGVsbGlwc2UgY3g9IjU1MjgiIGN5PSI0MTEuODUxNiIgZmlsbD0iIzg0QkU4NCIgcng9IjMiIHJ5PSIzIiBzdHlsZT0ic3Ryb2tlOiMwMzgwNDg7c3Ryb2tlLXdpZHRoOjEuMDsiLz48dGV4dCBmaWxsPSIjMDAwMDAwIiBmb250LWZhbWlseT0ic2Fucy1zZXJpZiIgZm9udC1zaXplPSIxNCIgbGVuZ3RoQWRqdXN0PSJzcGFjaW5nIiB0ZXh0TGVuZ3RoPSIyOTciIHg9IjU1MzciIHk9IjQxNi4wOTM4Ij5wdWJsaWMgdm9pZCBGbG93KGRvdWJsZSBsYXQsIGRvdWJsZSBsb25naSk8L3RleHQ+PC9nPjwhLS1jbGFzcyBPcGVuV2VhdGhlckFwaS0tPjxnIGlkPSJlbGVtX09wZW5XZWF0aGVyQXBpIj48cmVjdCBjb2RlTGluZT0iMTA0IiBmaWxsPSIjRjFGMUYxIiBoZWlnaHQ9IjQ1Mi41NzgxIiBpZD0iT3BlbldlYXRoZXJBcGkiIHJ4PSIyLjUiIHJ5PSIyLjUiIHN0eWxlPSJzdHJva2U6IzE4MTgxODtzdHJva2Utd2lkdGg6MC41OyIgd2lkdGg9Ijc2NSIgeD0iNTk3OSIgeT0iOTYuNSIvPjxlbGxpcHNlIGN4PSI2MzA4LjI1IiBjeT0iMTEyLjUiIGZpbGw9IiNBREQxQjIiIHJ4PSIxMSIgcnk9IjExIiBzdHlsZT0ic3Ryb2tlOiMxODE4MTg7c3Ryb2tlLXdpZHRoOjEuMDsiLz48cGF0aCBkPSJNNjMwNS44NzUsMTE2Ljc1IEw2MzA1Ljg3NSwxMTguNSBMNjMxMC44MTI1LDExOC41IEw2MzEwLjgxMjUsMTE2Ljc1IEw2MzA1Ljg3NSwxMTYuNzUgWiBNNjMwNi41NjI1LDExNy40Mzc1IFE2MzA2LjU2MjUsMTE3LjQzNzUgNjMwNi41NjI1LDEwOC4yNSBMNjMwNC44MTI1LDEwOC4yNSBRNjMwNC44MTI1LDEwOC4yNSA2MzA0LjgxMjUsMTE3LjQzNzUgTDYzMDYuNTYyNSwxMTcuNDM3NSBaIE02MzEwLjEyNSwxMTcuNDM3NSBMNjMxMS44NzUsMTE3LjQzNzUgUTYzMTEuODc1LDExNy40Mzc1IDYzMTEuODc1LDExNC42MjUgTDYzMTAuMTI1LDExNC42MjUgUTYzMTAuMTI1LDExNC42MjUgNjMxMC4xMjUsMTE3LjQzNzUgWiBNNjMxMC4xMjUsMTA4LjI1IFE2MzEwLjEyNSwxMDguMjUgNjMxMC4xMjUsMTExLjA2MjUgTDYzMTEuODc1LDExMS4wNjI1IFE2MzExLjg3NSwxMTEuMDYyNSA2MzExLjg3NSwxMDguMjUgTDYzMTAuMTI1LDEwOC4yNSBaIE02MzA1Ljg3NSwxMDguOTM3NSBMNjMxMC44MTI1LDEwOC45Mzc1IEw2MzEwLjgxMjUsMTA3LjE4NzUgTDYzMDUuODc1LDEwNy4xODc1IEw2MzA1Ljg3NSwxMDguOTM3NSBaICIgZmlsbD0iIzAwMDAwMCIvPjx0ZXh0IGZpbGw9IiMwMDAwMDAiIGZvbnQtZmFtaWx5PSJzYW5zLXNlcmlmIiBmb250LXNpemU9IjE0IiBsZW5ndGhBZGp1c3Q9InNwYWNpbmciIHRleHRMZW5ndGg9Ijk4IiB4PSI2MzI4Ljc1IiB5PSIxMTguMjQyMiI+T3BlbldlYXRoZXJBcGk8L3RleHQ+PGxpbmUgc3R5bGU9InN0cm9rZTojMTgxODE4O3N0cm9rZS13aWR0aDowLjU7IiB4MT0iNTk4MCIgeDI9IjY3NDMiIHkxPSIxMjguNSIgeTI9IjEyOC41Ii8+PGVsbGlwc2UgY3g9IjU5OTAiIGN5PSIxNDEuNDkyMiIgZmlsbD0ibm9uZSIgcng9IjMiIHJ5PSIzIiBzdHlsZT0ic3Ryb2tlOiMwMzgwNDg7c3Ryb2tlLXdpZHRoOjEuMDsiLz48dGV4dCBmaWxsPSIjMDAwMDAwIiBmb250LWZhbWlseT0ic2Fucy1zZXJpZiIgZm9udC1zaXplPSIxNCIgbGVuZ3RoQWRqdXN0PSJzcGFjaW5nIiB0ZXh0TGVuZ3RoPSIzNjYiIHg9IjU5OTkiIHk9IjE0NS43MzQ0Ij5wdWJsaWMgY2xhc3MgQWlyUG9sbHV0aW9uQVBJIGltcGxlbWVudHMgSW50ZXJmYWNlQVBJPC90ZXh0PjxlbGxpcHNlIGN4PSI1OTkwIiBjeT0iMTU2LjQ3NjYiIGZpbGw9Im5vbmUiIHJ4PSIzIiByeT0iMyIgc3R5bGU9InN0cm9rZTojMDM4MDQ4O3N0cm9rZS13aWR0aDoxLjA7Ii8+PHRleHQgZmlsbD0iIzAwMDAwMCIgZm9udC1mYW1pbHk9InNhbnMtc2VyaWYiIGZvbnQtc2l6ZT0iMTQiIGxlbmd0aEFkanVzdD0ic3BhY2luZyIgdGV4dExlbmd0aD0iMzgwIiB4PSI1OTk5IiB5PSIxNjAuNzE4OCI+cHVibGljIGNsYXNzIEN1cnJlbnRXZWF0aGVyQVBJIGltcGxlbWVudHMgSW50ZXJmYWNlQVBJPC90ZXh0PjxlbGxpcHNlIGN4PSI1OTkwIiBjeT0iMTcxLjQ2MDkiIGZpbGw9Im5vbmUiIHJ4PSIzIiByeT0iMyIgc3R5bGU9InN0cm9rZTojMDM4MDQ4O3N0cm9rZS13aWR0aDoxLjA7Ii8+PHRleHQgZmlsbD0iIzAwMDAwMCIgZm9udC1mYW1pbHk9InNhbnMtc2VyaWYiIGZvbnQtc2l6ZT0iMTQiIGxlbmd0aEFkanVzdD0ic3BhY2luZyIgdGV4dExlbmd0aD0iMjAzIiB4PSI1OTk5IiB5PSIxNzUuNzAzMSI+cHVibGljIGludGVyZmFjZSBJbnRlcmZhY2VBUEk8L3RleHQ+PGVsbGlwc2UgY3g9IjU5OTAiIGN5PSIxODYuNDQ1MyIgZmlsbD0ibm9uZSIgcng9IjMiIHJ5PSIzIiBzdHlsZT0ic3Ryb2tlOiMwMzgwNDg7c3Ryb2tlLXdpZHRoOjEuMDsiLz48dGV4dCBmaWxsPSIjMDAwMDAwIiBmb250LWZhbWlseT0ic2Fucy1zZXJpZiIgZm9udC1zaXplPSIxNCIgbGVuZ3RoQWRqdXN0PSJzcGFjaW5nIiB0ZXh0TGVuZ3RoPSI0MDEiIHg9IjU5OTkiIHk9IjE5MC42ODc1Ij5wdWJsaWMgY2xhc3MgV2VhdGhlckZvcmVjYXN0NURheXMgaW1wbGVtZW50cyBJbnRlcmZhY2VBUEk8L3RleHQ+PGxpbmUgc3R5bGU9InN0cm9rZTojMTgxODE4O3N0cm9rZS13aWR0aDowLjU7IiB4MT0iNTk4MCIgeDI9IjY3NDMiIHkxPSIxOTYuNDM3NSIgeTI9IjE5Ni40Mzc1Ii8+PGVsbGlwc2UgY3g9IjU5OTAiIGN5PSIyMDkuNDI5NyIgZmlsbD0iIzg0QkU4NCIgcng9IjMiIHJ5PSIzIiBzdHlsZT0ic3Ryb2tlOiMwMzgwNDg7c3Ryb2tlLXdpZHRoOjEuMDsiLz48dGV4dCBmaWxsPSIjMDAwMDAwIiBmb250LWZhbWlseT0ic2Fucy1zZXJpZiIgZm9udC1zaXplPSIxNCIgbGVuZ3RoQWRqdXN0PSJzcGFjaW5nIiB0ZXh0TGVuZ3RoPSI2MDciIHg9IjU5OTkiIHk9IjIxMy42NzE5Ij5wdWJsaWMgdm9pZCBwYXJzZUpTT04oSnNvbk9iamVjdCBqc29uT2JqZWN0LCBBaXJQb2xsdXRpb25BUElEYXRhIG9iaiwgU3RyaW5nIENpdHlOYW1lKTwvdGV4dD48ZWxsaXBzZSBjeD0iNTk5MCIgY3k9IjIyNC40MTQxIiBmaWxsPSIjODRCRTg0IiByeD0iMyIgcnk9IjMiIHN0eWxlPSJzdHJva2U6IzAzODA0ODtzdHJva2Utd2lkdGg6MS4wOyIvPjx0ZXh0IGZpbGw9IiMwMDAwMDAiIGZvbnQtZmFtaWx5PSJzYW5zLXNlcmlmIiBmb250LXNpemU9IjE0IiBsZW5ndGhBZGp1c3Q9InNwYWNpbmciIHRleHRMZW5ndGg9IjM3MyIgeD0iNTk5OSIgeT0iMjI4LjY1NjMiPnB1YmxpYyBVUkwgQVBJY2FsbChkb3VibGUgbGF0aXR1ZGUsIGRvdWJsZSBsb25naXR1ZGUpPC90ZXh0PjxlbGxpcHNlIGN4PSI1OTkwIiBjeT0iMjM5LjM5ODQiIGZpbGw9IiM4NEJFODQiIHJ4PSIzIiByeT0iMyIgc3R5bGU9InN0cm9rZTojMDM4MDQ4O3N0cm9rZS13aWR0aDoxLjA7Ii8+PHRleHQgZmlsbD0iIzAwMDAwMCIgZm9udC1mYW1pbHk9InNhbnMtc2VyaWYiIGZvbnQtc2l6ZT0iMTQiIGxlbmd0aEFkanVzdD0ic3BhY2luZyIgdGV4dExlbmd0aD0iMzEyIiB4PSI1OTk5IiB5PSIyNDMuNjQwNiI+cHVibGljIEpzb25PYmplY3QgcGVyZm9ybUFQSUNhbGwoVVJMIGFwaVVybCk8L3RleHQ+PGVsbGlwc2UgY3g9IjU5OTAiIGN5PSIyNTQuMzgyOCIgZmlsbD0iIzg0QkU4NCIgcng9IjMiIHJ5PSIzIiBzdHlsZT0ic3Ryb2tlOiMwMzgwNDg7c3Ryb2tlLXdpZHRoOjEuMDsiLz48dGV4dCBmaWxsPSIjMDAwMDAwIiBmb250LWZhbWlseT0ic2Fucy1zZXJpZiIgZm9udC1zaXplPSIxNCIgbGVuZ3RoQWRqdXN0PSJzcGFjaW5nIiB0ZXh0TGVuZ3RoPSIyNDgiIHg9IjU5OTkiIHk9IjI1OC42MjUiPnB1YmxpYyBVUkwgQVBJY2FsbChTdHJpbmcgY2l0eU5hbWUpPC90ZXh0PjxlbGxpcHNlIGN4PSI1OTkwIiBjeT0iMjY5LjM2NzIiIGZpbGw9IiM4NEJFODQiIHJ4PSIzIiByeT0iMyIgc3R5bGU9InN0cm9rZTojMDM4MDQ4O3N0cm9rZS13aWR0aDoxLjA7Ii8+PHRleHQgZmlsbD0iIzAwMDAwMCIgZm9udC1mYW1pbHk9InNhbnMtc2VyaWYiIGZvbnQtc2l6ZT0iMTQiIGxlbmd0aEFkanVzdD0ic3BhY2luZyIgdGV4dExlbmd0aD0iMjg5IiB4PSI1OTk5IiB5PSIyNzMuNjA5NCI+cHVibGljIHZvaWQgZ2VuZXJhdGVOb3RpZmljYXRpb24oaW50IGFxaSk8L3RleHQ+PGVsbGlwc2UgY3g9IjU5OTAiIGN5PSIyODQuMzUxNiIgZmlsbD0iIzg0QkU4NCIgcng9IjMiIHJ5PSIzIiBzdHlsZT0ic3Ryb2tlOiMwMzgwNDg7c3Ryb2tlLXdpZHRoOjEuMDsiLz48dGV4dCBmaWxsPSIjMDAwMDAwIiBmb250LWZhbWlseT0ic2Fucy1zZXJpZiIgZm9udC1zaXplPSIxNCIgbGVuZ3RoQWRqdXN0PSJzcGFjaW5nIiB0ZXh0TGVuZ3RoPSIyNjkiIHg9IjU5OTkiIHk9IjI4OC41OTM4Ij5wdWJsaWMgc3RhdGljIHZvaWQgbWFpbihTdHJpbmdbXSBhcmdzKTwvdGV4dD48ZWxsaXBzZSBjeD0iNTk5MCIgY3k9IjI5OS4zMzU5IiBmaWxsPSIjODRCRTg0IiByeD0iMyIgcnk9IjMiIHN0eWxlPSJzdHJva2U6IzAzODA0ODtzdHJva2Utd2lkdGg6MS4wOyIvPjx0ZXh0IGZpbGw9IiMwMDAwMDAiIGZvbnQtZmFtaWx5PSJzYW5zLXNlcmlmIiBmb250LXNpemU9IjE0IiBsZW5ndGhBZGp1c3Q9InNwYWNpbmciIHRleHRMZW5ndGg9IjUwMSIgeD0iNTk5OSIgeT0iMzAzLjU3ODEiPnB1YmxpYyB2b2lkIHBhcnNlSlNPTihKc29uT2JqZWN0IGpzb25PYmplY3QsIEN1cnJlbnRXZWF0aGVyQVBJRGF0YSBvYmopPC90ZXh0PjxlbGxpcHNlIGN4PSI1OTkwIiBjeT0iMzE0LjMyMDMiIGZpbGw9IiM4NEJFODQiIHJ4PSIzIiByeT0iMyIgc3R5bGU9InN0cm9rZTojMDM4MDQ4O3N0cm9rZS13aWR0aDoxLjA7Ii8+PHRleHQgZmlsbD0iIzAwMDAwMCIgZm9udC1mYW1pbHk9InNhbnMtc2VyaWYiIGZvbnQtc2l6ZT0iMTQiIGxlbmd0aEFkanVzdD0ic3BhY2luZyIgdGV4dExlbmd0aD0iMzczIiB4PSI1OTk5IiB5PSIzMTguNTYyNSI+cHVibGljIFVSTCBBUEljYWxsKGRvdWJsZSBsYXRpdHVkZSwgZG91YmxlIGxvbmdpdHVkZSk8L3RleHQ+PGVsbGlwc2UgY3g9IjU5OTAiIGN5PSIzMjkuMzA0NyIgZmlsbD0iIzg0QkU4NCIgcng9IjMiIHJ5PSIzIiBzdHlsZT0ic3Ryb2tlOiMwMzgwNDg7c3Ryb2tlLXdpZHRoOjEuMDsiLz48dGV4dCBmaWxsPSIjMDAwMDAwIiBmb250LWZhbWlseT0ic2Fucy1zZXJpZiIgZm9udC1zaXplPSIxNCIgbGVuZ3RoQWRqdXN0PSJzcGFjaW5nIiB0ZXh0TGVuZ3RoPSIyNDgiIHg9IjU5OTkiIHk9IjMzMy41NDY5Ij5wdWJsaWMgVVJMIEFQSWNhbGwoU3RyaW5nIGNpdHlOYW1lKTwvdGV4dD48ZWxsaXBzZSBjeD0iNTk5MCIgY3k9IjM0NC4yODkxIiBmaWxsPSIjODRCRTg0IiByeD0iMyIgcnk9IjMiIHN0eWxlPSJzdHJva2U6IzAzODA0ODtzdHJva2Utd2lkdGg6MS4wOyIvPjx0ZXh0IGZpbGw9IiMwMDAwMDAiIGZvbnQtZmFtaWx5PSJzYW5zLXNlcmlmIiBmb250LXNpemU9IjE0IiBsZW5ndGhBZGp1c3Q9InNwYWNpbmciIHRleHRMZW5ndGg9IjMxMiIgeD0iNTk5OSIgeT0iMzQ4LjUzMTMiPnB1YmxpYyBKc29uT2JqZWN0IHBlcmZvcm1BUElDYWxsKFVSTCBhcGlVcmwpPC90ZXh0PjxlbGxpcHNlIGN4PSI1OTkwIiBjeT0iMzU5LjI3MzQiIGZpbGw9IiM4NEJFODQiIHJ4PSIzIiByeT0iMyIgc3R5bGU9InN0cm9rZTojMDM4MDQ4O3N0cm9rZS13aWR0aDoxLjA7Ii8+PHRleHQgZmlsbD0iIzAwMDAwMCIgZm9udC1mYW1pbHk9InNhbnMtc2VyaWYiIGZvbnQtc2l6ZT0iMTQiIGxlbmd0aEFkanVzdD0ic3BhY2luZyIgdGV4dExlbmd0aD0iNDc5IiB4PSI1OTk5IiB5PSIzNjMuNTE1NiI+cHVibGljIHZvaWQgU2VhcmNoQnlDaXR5KFN0cmluZyBDaXR5TmFtZSwgQ3VycmVudFdlYXRoZXJBUElEYXRhIG9iaik8L3RleHQ+PGVsbGlwc2UgY3g9IjU5OTAiIGN5PSIzNzQuMjU3OCIgZmlsbD0iIzg0QkU4NCIgcng9IjMiIHJ5PSIzIiBzdHlsZT0ic3Ryb2tlOiMwMzgwNDg7c3Ryb2tlLXdpZHRoOjEuMDsiLz48dGV4dCBmaWxsPSIjMDAwMDAwIiBmb250LWZhbWlseT0ic2Fucy1zZXJpZiIgZm9udC1zaXplPSIxNCIgbGVuZ3RoQWRqdXN0PSJzcGFjaW5nIiB0ZXh0TGVuZ3RoPSI2MTEiIHg9IjU5OTkiIHk9IjM3OC41Ij5wdWJsaWMgdm9pZCBTZWFyY2hCeUNvb3JkKGRvdWJsZSBsYXRpdHVkZSwgZG91YmxlIGxvbmdpdHVkZSwgQ3VycmVudFdlYXRoZXJBUElEYXRhIG9iaik8L3RleHQ+PGVsbGlwc2UgY3g9IjU5OTAiIGN5PSIzODkuMjQyMiIgZmlsbD0iIzg0QkU4NCIgcng9IjMiIHJ5PSIzIiBzdHlsZT0ic3Ryb2tlOiMwMzgwNDg7c3Ryb2tlLXdpZHRoOjEuMDsiLz48dGV4dCBmaWxsPSIjMDAwMDAwIiBmb250LWZhbWlseT0ic2Fucy1zZXJpZiIgZm9udC1zaXplPSIxNCIgbGVuZ3RoQWRqdXN0PSJzcGFjaW5nIiB0ZXh0TGVuZ3RoPSIyNjkiIHg9IjU5OTkiIHk9IjM5My40ODQ0Ij5wdWJsaWMgc3RhdGljIHZvaWQgbWFpbihTdHJpbmdbXSBhcmdzKTwvdGV4dD48ZWxsaXBzZSBjeD0iNTk5MCIgY3k9IjQwNC4yMjY2IiBmaWxsPSIjODRCRTg0IiByeD0iMyIgcnk9IjMiIHN0eWxlPSJzdHJva2U6IzAzODA0ODtzdHJva2Utd2lkdGg6MS4wOyIvPjx0ZXh0IGZpbGw9IiMwMDAwMDAiIGZvbnQtZmFtaWx5PSJzYW5zLXNlcmlmIiBmb250LXNpemU9IjE0IiBsZW5ndGhBZGp1c3Q9InNwYWNpbmciIHRleHRMZW5ndGg9IjMyNCIgeD0iNTk5OSIgeT0iNDA4LjQ2ODgiPlVSTCBBUEljYWxsKGRvdWJsZSBsYXRpdHVkZSwgZG91YmxlIGxvbmdpdHVkZSk8L3RleHQ+PGVsbGlwc2UgY3g9IjU5OTAiIGN5PSI0MTkuMjEwOSIgZmlsbD0iIzg0QkU4NCIgcng9IjMiIHJ5PSIzIiBzdHlsZT0ic3Ryb2tlOiMwMzgwNDg7c3Ryb2tlLXdpZHRoOjEuMDsiLz48dGV4dCBmaWxsPSIjMDAwMDAwIiBmb250LWZhbWlseT0ic2Fucy1zZXJpZiIgZm9udC1zaXplPSIxNCIgbGVuZ3RoQWRqdXN0PSJzcGFjaW5nIiB0ZXh0TGVuZ3RoPSIxOTkiIHg9IjU5OTkiIHk9IjQyMy40NTMxIj5VUkwgQVBJY2FsbChTdHJpbmcgY2l0eU5hbWUpPC90ZXh0PjxlbGxpcHNlIGN4PSI1OTkwIiBjeT0iNDM0LjE5NTMiIGZpbGw9IiM4NEJFODQiIHJ4PSIzIiByeT0iMyIgc3R5bGU9InN0cm9rZTojMDM4MDQ4O3N0cm9rZS13aWR0aDoxLjA7Ii8+PHRleHQgZmlsbD0iIzAwMDAwMCIgZm9udC1mYW1pbHk9InNhbnMtc2VyaWYiIGZvbnQtc2l6ZT0iMTQiIGxlbmd0aEFkanVzdD0ic3BhY2luZyIgdGV4dExlbmd0aD0iNzM5IiB4PSI1OTk5IiB5PSI0MzguNDM3NSI+cHVibGljIHZvaWQgcGFyc2VKU09OKEpzb25PYmplY3QganNvbk9iamVjdCwgV2VhdGhlckZvcmVjYXN0QVBJRGF0YSBvYmosIGZsb2F0IGxhdGl0dWRlLCBmbG9hdCBsb25naXR1ZGUpPC90ZXh0PjxlbGxpcHNlIGN4PSI1OTkwIiBjeT0iNDQ5LjE3OTciIGZpbGw9IiM4NEJFODQiIHJ4PSIzIiByeT0iMyIgc3R5bGU9InN0cm9rZTojMDM4MDQ4O3N0cm9rZS13aWR0aDoxLjA7Ii8+PHRleHQgZmlsbD0iIzAwMDAwMCIgZm9udC1mYW1pbHk9InNhbnMtc2VyaWYiIGZvbnQtc2l6ZT0iMTQiIGxlbmd0aEFkanVzdD0ic3BhY2luZyIgdGV4dExlbmd0aD0iNTA4IiB4PSI1OTk5IiB5PSI0NTMuNDIxOSI+cHVibGljIHZvaWQgcGFyc2VKU09OKEpzb25PYmplY3QganNvbk9iamVjdCwgV2VhdGhlckZvcmVjYXN0QVBJRGF0YSBvYmopPC90ZXh0PjxlbGxpcHNlIGN4PSI1OTkwIiBjeT0iNDY0LjE2NDEiIGZpbGw9IiM4NEJFODQiIHJ4PSIzIiByeT0iMyIgc3R5bGU9InN0cm9rZTojMDM4MDQ4O3N0cm9rZS13aWR0aDoxLjA7Ii8+PHRleHQgZmlsbD0iIzAwMDAwMCIgZm9udC1mYW1pbHk9InNhbnMtc2VyaWYiIGZvbnQtc2l6ZT0iMTQiIGxlbmd0aEFkanVzdD0ic3BhY2luZyIgdGV4dExlbmd0aD0iMzczIiB4PSI1OTk5IiB5PSI0NjguNDA2MyI+cHVibGljIFVSTCBBUEljYWxsKGRvdWJsZSBsYXRpdHVkZSwgZG91YmxlIGxvbmdpdHVkZSk8L3RleHQ+PGVsbGlwc2UgY3g9IjU5OTAiIGN5PSI0NzkuMTQ4NCIgZmlsbD0iIzg0QkU4NCIgcng9IjMiIHJ5PSIzIiBzdHlsZT0ic3Ryb2tlOiMwMzgwNDg7c3Ryb2tlLXdpZHRoOjEuMDsiLz48dGV4dCBmaWxsPSIjMDAwMDAwIiBmb250LWZhbWlseT0ic2Fucy1zZXJpZiIgZm9udC1zaXplPSIxNCIgbGVuZ3RoQWRqdXN0PSJzcGFjaW5nIiB0ZXh0TGVuZ3RoPSIyNDgiIHg9IjU5OTkiIHk9IjQ4My4zOTA2Ij5wdWJsaWMgVVJMIEFQSWNhbGwoU3RyaW5nIGNpdHlOYW1lKTwvdGV4dD48ZWxsaXBzZSBjeD0iNTk5MCIgY3k9IjQ5NC4xMzI4IiBmaWxsPSIjODRCRTg0IiByeD0iMyIgcnk9IjMiIHN0eWxlPSJzdHJva2U6IzAzODA0ODtzdHJva2Utd2lkdGg6MS4wOyIvPjx0ZXh0IGZpbGw9IiMwMDAwMDAiIGZvbnQtZmFtaWx5PSJzYW5zLXNlcmlmIiBmb250LXNpemU9IjE0IiBsZW5ndGhBZGp1c3Q9InNwYWNpbmciIHRleHRMZW5ndGg9IjMxMiIgeD0iNTk5OSIgeT0iNDk4LjM3NSI+cHVibGljIEpzb25PYmplY3QgcGVyZm9ybUFQSUNhbGwoVVJMIGFwaVVybCk8L3RleHQ+PGVsbGlwc2UgY3g9IjU5OTAiIGN5PSI1MDkuMTE3MiIgZmlsbD0iIzg0QkU4NCIgcng9IjMiIHJ5PSIzIiBzdHlsZT0ic3Ryb2tlOiMwMzgwNDg7c3Ryb2tlLXdpZHRoOjEuMDsiLz48dGV4dCBmaWxsPSIjMDAwMDAwIiBmb250LWZhbWlseT0ic2Fucy1zZXJpZiIgZm9udC1zaXplPSIxNCIgbGVuZ3RoQWRqdXN0PSJzcGFjaW5nIiB0ZXh0TGVuZ3RoPSI0ODYiIHg9IjU5OTkiIHk9IjUxMy4zNTk0Ij5wdWJsaWMgdm9pZCBTZWFyY2hCeUNpdHkoU3RyaW5nIENpdHlOYW1lLCBXZWF0aGVyRm9yZWNhc3RBUElEYXRhIG9iaik8L3RleHQ+PGVsbGlwc2UgY3g9IjU5OTAiIGN5PSI1MjQuMTAxNiIgZmlsbD0iIzg0QkU4NCIgcng9IjMiIHJ5PSIzIiBzdHlsZT0ic3Ryb2tlOiMwMzgwNDg7c3Ryb2tlLXdpZHRoOjEuMDsiLz48dGV4dCBmaWxsPSIjMDAwMDAwIiBmb250LWZhbWlseT0ic2Fucy1zZXJpZiIgZm9udC1zaXplPSIxNCIgbGVuZ3RoQWRqdXN0PSJzcGFjaW5nIiB0ZXh0TGVuZ3RoPSI2MTgiIHg9IjU5OTkiIHk9IjUyOC4zNDM4Ij5wdWJsaWMgdm9pZCBTZWFyY2hCeUNvb3JkKGRvdWJsZSBsYXRpdHVkZSwgZG91YmxlIGxvbmdpdHVkZSwgV2VhdGhlckZvcmVjYXN0QVBJRGF0YSBvYmopPC90ZXh0PjxlbGxpcHNlIGN4PSI1OTkwIiBjeT0iNTM5LjA4NTkiIGZpbGw9IiM4NEJFODQiIHJ4PSIzIiByeT0iMyIgc3R5bGU9InN0cm9rZTojMDM4MDQ4O3N0cm9rZS13aWR0aDoxLjA7Ii8+PHRleHQgZmlsbD0iIzAwMDAwMCIgZm9udC1mYW1pbHk9InNhbnMtc2VyaWYiIGZvbnQtc2l6ZT0iMTQiIGxlbmd0aEFkanVzdD0ic3BhY2luZyIgdGV4dExlbmd0aD0iMjY5IiB4PSI1OTk5IiB5PSI1NDMuMzI4MSI+cHVibGljIHN0YXRpYyB2b2lkIG1haW4oU3RyaW5nW10gYXJncyk8L3RleHQ+PC9nPjwhLS1jbGFzcyBXZWF0aGVyQXBwUnVubmVyLS0+PGcgaWQ9ImVsZW1fV2VhdGhlckFwcFJ1bm5lciI+PHJlY3QgY29kZUxpbmU9IjEzNCIgZmlsbD0iI0YxRjFGMSIgaGVpZ2h0PSIxMDcuOTM3NSIgaWQ9IldlYXRoZXJBcHBSdW5uZXIiIHJ4PSIyLjUiIHJ5PSIyLjUiIHN0eWxlPSJzdHJva2U6IzE4MTgxODtzdHJva2Utd2lkdGg6MC41OyIgd2lkdGg9IjIyOSIgeD0iNjk1NyIgeT0iMjY5Ii8+PGVsbGlwc2UgY3g9IjcwMTEuMjUiIGN5PSIyODUiIGZpbGw9IiNBREQxQjIiIHJ4PSIxMSIgcnk9IjExIiBzdHlsZT0ic3Ryb2tlOiMxODE4MTg7c3Ryb2tlLXdpZHRoOjEuMDsiLz48cGF0aCBkPSJNNzAwOC44NzUsMjg5LjI1IEw3MDA4Ljg3NSwyOTEgTDcwMTMuODEyNSwyOTEgTDcwMTMuODEyNSwyODkuMjUgTDcwMDguODc1LDI4OS4yNSBaIE03MDA5LjU2MjUsMjg5LjkzNzUgUTcwMDkuNTYyNSwyODkuOTM3NSA3MDA5LjU2MjUsMjgwLjc1IEw3MDA3LjgxMjUsMjgwLjc1IFE3MDA3LjgxMjUsMjgwLjc1IDcwMDcuODEyNSwyODkuOTM3NSBMNzAwOS41NjI1LDI4OS45Mzc1IFogTTcwMTMuMTI1LDI4OS45Mzc1IEw3MDE0Ljg3NSwyODkuOTM3NSBRNzAxNC44NzUsMjg5LjkzNzUgNzAxNC44NzUsMjg3LjEyNSBMNzAxMy4xMjUsMjg3LjEyNSBRNzAxMy4xMjUsMjg3LjEyNSA3MDEzLjEyNSwyODkuOTM3NSBaIE03MDEzLjEyNSwyODAuNzUgUTcwMTMuMTI1LDI4MC43NSA3MDEzLjEyNSwyODMuNTYyNSBMNzAxNC44NzUsMjgzLjU2MjUgUTcwMTQuODc1LDI4My41NjI1IDcwMTQuODc1LDI4MC43NSBMNzAxMy4xMjUsMjgwLjc1IFogTTcwMDguODc1LDI4MS40Mzc1IEw3MDEzLjgxMjUsMjgxLjQzNzUgTDcwMTMuODEyNSwyNzkuNjg3NSBMNzAwOC44NzUsMjc5LjY4NzUgTDcwMDguODc1LDI4MS40Mzc1IFogIiBmaWxsPSIjMDAwMDAwIi8+PHRleHQgZmlsbD0iIzAwMDAwMCIgZm9udC1mYW1pbHk9InNhbnMtc2VyaWYiIGZvbnQtc2l6ZT0iMTQiIGxlbmd0aEFkanVzdD0ic3BhY2luZyIgdGV4dExlbmd0aD0iMTEyIiB4PSI3MDMxLjc1IiB5PSIyOTAuNzQyMiI+V2VhdGhlckFwcFJ1bm5lcjwvdGV4dD48bGluZSBzdHlsZT0ic3Ryb2tlOiMxODE4MTg7c3Ryb2tlLXdpZHRoOjAuNTsiIHgxPSI2OTU4IiB4Mj0iNzE4NSIgeTE9IjMwMSIgeTI9IjMwMSIvPjxlbGxpcHNlIGN4PSI2OTY4IiBjeT0iMzEzLjk5MjIiIGZpbGw9Im5vbmUiIHJ4PSIzIiByeT0iMyIgc3R5bGU9InN0cm9rZTojMDM4MDQ4O3N0cm9rZS13aWR0aDoxLjA7Ii8+PHRleHQgZmlsbD0iIzAwMDAwMCIgZm9udC1mYW1pbHk9InNhbnMtc2VyaWYiIGZvbnQtc2l6ZT0iMTQiIGxlbmd0aEFkanVzdD0ic3BhY2luZyIgdGV4dExlbmd0aD0iMjAzIiB4PSI2OTc3IiB5PSIzMTguMjM0NCI+cHVibGljIGNsYXNzIFdlYXRoZXJBcHBSdW5uZXI8L3RleHQ+PGxpbmUgc3R5bGU9InN0cm9rZTojMTgxODE4O3N0cm9rZS13aWR0aDowLjU7IiB4MT0iNjk1OCIgeDI9IjcxODUiIHkxPSIzMjMuOTg0NCIgeTI9IjMyMy45ODQ0Ii8+PGVsbGlwc2UgY3g9IjY5NjgiIGN5PSIzMzYuOTc2NiIgZmlsbD0iIzg0QkU4NCIgcng9IjMiIHJ5PSIzIiBzdHlsZT0ic3Ryb2tlOiMwMzgwNDg7c3Ryb2tlLXdpZHRoOjEuMDsiLz48dGV4dCBmaWxsPSIjMDAwMDAwIiBmb250LWZhbWlseT0ic2Fucy1zZXJpZiIgZm9udC1zaXplPSIxNCIgbGVuZ3RoQWRqdXN0PSJzcGFjaW5nIiB0ZXh0TGVuZ3RoPSIxMjgiIHg9IjY5NzciIHk9IjM0MS4yMTg4Ij5XZWF0aGVyQXBwUnVubmVyKCk8L3RleHQ+PGVsbGlwc2UgY3g9IjY5NjgiIGN5PSIzNTEuOTYwOSIgZmlsbD0iIzg0QkU4NCIgcng9IjMiIHJ5PSIzIiBzdHlsZT0ic3Ryb2tlOiMwMzgwNDg7c3Ryb2tlLXdpZHRoOjEuMDsiLz48dGV4dCBmaWxsPSIjMDAwMDAwIiBmb250LWZhbWlseT0ic2Fucy1zZXJpZiIgZm9udC1zaXplPSIxNCIgbGVuZ3RoQWRqdXN0PSJzcGFjaW5nIiB0ZXh0TGVuZ3RoPSIxNzAiIHg9IjY5NzciIHk9IjM1Ni4yMDMxIj5wdWJsaWMgdm9pZCBSdW5EVUlfVFhUKCk8L3RleHQ+PGVsbGlwc2UgY3g9IjY5NjgiIGN5PSIzNjYuOTQ1MyIgZmlsbD0iIzg0QkU4NCIgcng9IjMiIHJ5PSIzIiBzdHlsZT0ic3Ryb2tlOiMwMzgwNDg7c3Ryb2tlLXdpZHRoOjEuMDsiLz48dGV4dCBmaWxsPSIjMDAwMDAwIiBmb250LWZhbWlseT0ic2Fucy1zZXJpZiIgZm9udC1zaXplPSIxNCIgbGVuZ3RoQWRqdXN0PSJzcGFjaW5nIiB0ZXh0TGVuZ3RoPSIxNzAiIHg9IjY5NzciIHk9IjM3MS4xODc1Ij5wdWJsaWMgdm9pZCBSdW5EVUlfU1FMKCk8L3RleHQ+PC9nPjwhLS1jbGFzcyBDYWNoZU1hbmFnZXItLT48ZyBpZD0iZWxlbV9DYWNoZU1hbmFnZXIiPjxyZWN0IGNvZGVMaW5lPSIxNDEiIGZpbGw9IiNGMUYxRjEiIGhlaWdodD0iMjQyLjc5NjkiIGlkPSJDYWNoZU1hbmFnZXIiIHJ4PSIyLjUiIHJ5PSIyLjUiIHN0eWxlPSJzdHJva2U6IzE4MTgxODtzdHJva2Utd2lkdGg6MC41OyIgd2lkdGg9Ijc4NCIgeD0iNjY3OS41IiB5PSI3NzQiLz48ZWxsaXBzZSBjeD0iNzAyNS4yNSIgY3k9Ijc5MCIgZmlsbD0iI0FERDFCMiIgcng9IjExIiByeT0iMTEiIHN0eWxlPSJzdHJva2U6IzE4MTgxODtzdHJva2Utd2lkdGg6MS4wOyIvPjxwYXRoIGQ9Ik03MDIyLjg3NSw3OTQuMjUgTDcwMjIuODc1LDc5NiBMNzAyNy44MTI1LDc5NiBMNzAyNy44MTI1LDc5NC4yNSBMNzAyMi44NzUsNzk0LjI1IFogTTcwMjMuNTYyNSw3OTQuOTM3NSBRNzAyMy41NjI1LDc5NC45Mzc1IDcwMjMuNTYyNSw3ODUuNzUgTDcwMjEuODEyNSw3ODUuNzUgUTcwMjEuODEyNSw3ODUuNzUgNzAyMS44MTI1LDc5NC45Mzc1IEw3MDIzLjU2MjUsNzk0LjkzNzUgWiBNNzAyNy4xMjUsNzk0LjkzNzUgTDcwMjguODc1LDc5NC45Mzc1IFE3MDI4Ljg3NSw3OTQuOTM3NSA3MDI4Ljg3NSw3OTIuMTI1IEw3MDI3LjEyNSw3OTIuMTI1IFE3MDI3LjEyNSw3OTIuMTI1IDcwMjcuMTI1LDc5NC45Mzc1IFogTTcwMjcuMTI1LDc4NS43NSBRNzAyNy4xMjUsNzg1Ljc1IDcwMjcuMTI1LDc4OC41NjI1IEw3MDI4Ljg3NSw3ODguNTYyNSBRNzAyOC44NzUsNzg4LjU2MjUgNzAyOC44NzUsNzg1Ljc1IEw3MDI3LjEyNSw3ODUuNzUgWiBNNzAyMi44NzUsNzg2LjQzNzUgTDcwMjcuODEyNSw3ODYuNDM3NSBMNzAyNy44MTI1LDc4NC42ODc1IEw3MDIyLjg3NSw3ODQuNjg3NSBMNzAyMi44NzUsNzg2LjQzNzUgWiAiIGZpbGw9IiMwMDAwMDAiLz48dGV4dCBmaWxsPSIjMDAwMDAwIiBmb250LWZhbWlseT0ic2Fucy1zZXJpZiIgZm9udC1zaXplPSIxNCIgbGVuZ3RoQWRqdXN0PSJzcGFjaW5nIiB0ZXh0TGVuZ3RoPSI4NCIgeD0iNzA0NS43NSIgeT0iNzk1Ljc0MjIiPkNhY2hlTWFuYWdlcjwvdGV4dD48bGluZSBzdHlsZT0ic3Ryb2tlOiMxODE4MTg7c3Ryb2tlLXdpZHRoOjAuNTsiIHgxPSI2NjgwLjUiIHgyPSI3NDYyLjUiIHkxPSI4MDYiIHkyPSI4MDYiLz48ZWxsaXBzZSBjeD0iNjY5MC41IiBjeT0iODE4Ljk5MjIiIGZpbGw9Im5vbmUiIHJ4PSIzIiByeT0iMyIgc3R5bGU9InN0cm9rZTojMDM4MDQ4O3N0cm9rZS13aWR0aDoxLjA7Ii8+PHRleHQgZmlsbD0iIzAwMDAwMCIgZm9udC1mYW1pbHk9InNhbnMtc2VyaWYiIGZvbnQtc2l6ZT0iMTQiIGxlbmd0aEFkanVzdD0ic3BhY2luZyIgdGV4dExlbmd0aD0iMjAzIiB4PSI2Njk5LjUiIHk9IjgyMy4yMzQ0Ij5wdWJsaWMgaW50ZXJmYWNlIENhY2hlTWFuYWdlcjwvdGV4dD48bGluZSBzdHlsZT0ic3Ryb2tlOiMxODE4MTg7c3Ryb2tlLXdpZHRoOjAuNTsiIHgxPSI2NjgwLjUiIHgyPSI3NDYyLjUiIHkxPSI4MjguOTg0NCIgeTI9IjgyOC45ODQ0Ii8+PGVsbGlwc2UgY3g9IjY2OTAuNSIgY3k9Ijg0MS45NzY2IiBmaWxsPSIjODRCRTg0IiByeD0iMyIgcnk9IjMiIHN0eWxlPSJzdHJva2U6IzAzODA0ODtzdHJva2Utd2lkdGg6MS4wOyIvPjx0ZXh0IGZpbGw9IiMwMDAwMDAiIGZvbnQtZmFtaWx5PSJzYW5zLXNlcmlmIiBmb250LXNpemU9IjE0IiBsZW5ndGhBZGp1c3Q9InNwYWNpbmciIHRleHRMZW5ndGg9IjQ5OSIgeD0iNjY5OS41IiB5PSI4NDYuMjE4OCI+cHVibGljIEJvb2xlYW4gY2hlY2tBaXJQb2xsdXRpb25EYXRhKGRvdWJsZSBsYXRpdHVkZSwgZG91YmxlIGxvbmdpdHVkZSk8L3RleHQ+PGVsbGlwc2UgY3g9IjY2OTAuNSIgY3k9Ijg1Ni45NjA5IiBmaWxsPSIjODRCRTg0IiByeD0iMyIgcnk9IjMiIHN0eWxlPSJzdHJva2U6IzAzODA0ODtzdHJva2Utd2lkdGg6MS4wOyIvPjx0ZXh0IGZpbGw9IiMwMDAwMDAiIGZvbnQtZmFtaWx5PSJzYW5zLXNlcmlmIiBmb250LXNpemU9IjE0IiBsZW5ndGhBZGp1c3Q9InNwYWNpbmciIHRleHRMZW5ndGg9IjUxMyIgeD0iNjY5OS41IiB5PSI4NjEuMjAzMSI+cHVibGljIEJvb2xlYW4gY2hlY2tDdXJyZW50V2VhdGhlckRhdGEoZG91YmxlIGxhdGl0dWRlLCBkb3VibGUgbG9uZ2l0dWRlKTwvdGV4dD48ZWxsaXBzZSBjeD0iNjY5MC41IiBjeT0iODcxLjk0NTMiIGZpbGw9IiM4NEJFODQiIHJ4PSIzIiByeT0iMyIgc3R5bGU9InN0cm9rZTojMDM4MDQ4O3N0cm9rZS13aWR0aDoxLjA7Ii8+PHRleHQgZmlsbD0iIzAwMDAwMCIgZm9udC1mYW1pbHk9InNhbnMtc2VyaWYiIGZvbnQtc2l6ZT0iMTQiIGxlbmd0aEFkanVzdD0ic3BhY2luZyIgdGV4dExlbmd0aD0iNTIwIiB4PSI2Njk5LjUiIHk9Ijg3Ni4xODc1Ij5wdWJsaWMgQm9vbGVhbiBjaGVja1dlYXRoZXJGb3JlY2FzdERhdGEoZG91YmxlIGxhdGl0dWRlLCBkb3VibGUgbG9uZ2l0dWRlKTwvdGV4dD48ZWxsaXBzZSBjeD0iNjY5MC41IiBjeT0iODg2LjkyOTciIGZpbGw9IiM4NEJFODQiIHJ4PSIzIiByeT0iMyIgc3R5bGU9InN0cm9rZTojMDM4MDQ4O3N0cm9rZS13aWR0aDoxLjA7Ii8+PHRleHQgZmlsbD0iIzAwMDAwMCIgZm9udC1mYW1pbHk9InNhbnMtc2VyaWYiIGZvbnQtc2l6ZT0iMTQiIGxlbmd0aEFkanVzdD0ic3BhY2luZyIgdGV4dExlbmd0aD0iMzg4IiB4PSI2Njk5LjUiIHk9Ijg5MS4xNzE5Ij5wdWJsaWMgQm9vbGVhbiBjaGVja0N1cnJlbnRXZWF0aGVyRGF0YShTdHJpbmcgY2l0eU5hbWUpPC90ZXh0PjxlbGxpcHNlIGN4PSI2NjkwLjUiIGN5PSI5MDEuOTE0MSIgZmlsbD0iIzg0QkU4NCIgcng9IjMiIHJ5PSIzIiBzdHlsZT0ic3Ryb2tlOiMwMzgwNDg7c3Ryb2tlLXdpZHRoOjEuMDsiLz48dGV4dCBmaWxsPSIjMDAwMDAwIiBmb250LWZhbWlseT0ic2Fucy1zZXJpZiIgZm9udC1zaXplPSIxNCIgbGVuZ3RoQWRqdXN0PSJzcGFjaW5nIiB0ZXh0TGVuZ3RoPSIzOTUiIHg9IjY2OTkuNSIgeT0iOTA2LjE1NjMiPnB1YmxpYyBCb29sZWFuIGNoZWNrV2VhdGhlckZvcmVjYXN0RGF0YShTdHJpbmcgY2l0eU5hbWUpPC90ZXh0PjxlbGxpcHNlIGN4PSI2NjkwLjUiIGN5PSI5MTYuODk4NCIgZmlsbD0iIzg0QkU4NCIgcng9IjMiIHJ5PSIzIiBzdHlsZT0ic3Ryb2tlOiMwMzgwNDg7c3Ryb2tlLXdpZHRoOjEuMDsiLz48dGV4dCBmaWxsPSIjMDAwMDAwIiBmb250LWZhbWlseT0ic2Fucy1zZXJpZiIgZm9udC1zaXplPSIxNCIgbGVuZ3RoQWRqdXN0PSJzcGFjaW5nIiB0ZXh0TGVuZ3RoPSIzNzQiIHg9IjY2OTkuNSIgeT0iOTIxLjE0MDYiPnB1YmxpYyBCb29sZWFuIGNoZWNrQWlyUG9sbHV0aW9uRGF0YShTdHJpbmcgY2l0eU5hbWUpPC90ZXh0PjxlbGxpcHNlIGN4PSI2NjkwLjUiIGN5PSI5MzEuODgyOCIgZmlsbD0iIzg0QkU4NCIgcng9IjMiIHJ5PSIzIiBzdHlsZT0ic3Ryb2tlOiMwMzgwNDg7c3Ryb2tlLXdpZHRoOjEuMDsiLz48dGV4dCBmaWxsPSIjMDAwMDAwIiBmb250LWZhbWlseT0ic2Fucy1zZXJpZiIgZm9udC1zaXplPSIxNCIgbGVuZ3RoQWRqdXN0PSJzcGFjaW5nIiB0ZXh0TGVuZ3RoPSI2ODEiIHg9IjY2OTkuNSIgeT0iOTM2LjEyNSI+cHVibGljIHZvaWQgZmV0Y2hBaXJQb2xsdXRpb25EYXRhKEFpclBvbGx1dGlvbkFQSURhdGEgQWlyUG9sbCwgZG91YmxlIGxhdGl0dWRlLCBkb3VibGUgbG9uZ2l0dWRlKTwvdGV4dD48ZWxsaXBzZSBjeD0iNjY5MC41IiBjeT0iOTQ2Ljg2NzIiIGZpbGw9IiM4NEJFODQiIHJ4PSIzIiByeT0iMyIgc3R5bGU9InN0cm9rZTojMDM4MDQ4O3N0cm9rZS13aWR0aDoxLjA7Ii8+PHRleHQgZmlsbD0iIzAwMDAwMCIgZm9udC1mYW1pbHk9InNhbnMtc2VyaWYiIGZvbnQtc2l6ZT0iMTQiIGxlbmd0aEFkanVzdD0ic3BhY2luZyIgdGV4dExlbmd0aD0iNzU4IiB4PSI2Njk5LjUiIHk9Ijk1MS4xMDk0Ij5wdWJsaWMgdm9pZCBmZXRjaEN1cnJlbnRXZWF0aGVyRGF0YShDdXJyZW50V2VhdGhlckFQSURhdGEgQ3VycmVudFdlYXRoZXIsIGRvdWJsZSBsYXRpdHVkZSwgZG91YmxlIGxvbmdpdHVkZSk8L3RleHQ+PGVsbGlwc2UgY3g9IjY2OTAuNSIgY3k9Ijk2MS44NTE2IiBmaWxsPSIjODRCRTg0IiByeD0iMyIgcnk9IjMiIHN0eWxlPSJzdHJva2U6IzAzODA0ODtzdHJva2Utd2lkdGg6MS4wOyIvPjx0ZXh0IGZpbGw9IiMwMDAwMDAiIGZvbnQtZmFtaWx5PSJzYW5zLXNlcmlmIiBmb250LXNpemU9IjE0IiBsZW5ndGhBZGp1c3Q9InNwYWNpbmciIHRleHRMZW5ndGg9IjcyMyIgeD0iNjY5OS41IiB5PSI5NjYuMDkzOCI+cHVibGljIHZvaWQgZmV0Y2hXZWF0aGVyRm9yZWNhc3REYXRhKFdlYXRoZXJGb3JlY2FzdEFQSURhdGEgRm9yZWNhc3QsZG91YmxlIGxhdGl0dWRlLCBkb3VibGUgbG9uZ2l0dWRlKTwvdGV4dD48ZWxsaXBzZSBjeD0iNjY5MC41IiBjeT0iOTc2LjgzNTkiIGZpbGw9IiM4NEJFODQiIHJ4PSIzIiByeT0iMyIgc3R5bGU9InN0cm9rZTojMDM4MDQ4O3N0cm9rZS13aWR0aDoxLjA7Ii8+PHRleHQgZmlsbD0iIzAwMDAwMCIgZm9udC1mYW1pbHk9InNhbnMtc2VyaWYiIGZvbnQtc2l6ZT0iMTQiIGxlbmd0aEFkanVzdD0ic3BhY2luZyIgdGV4dExlbmd0aD0iNjMzIiB4PSI2Njk5LjUiIHk9Ijk4MS4wNzgxIj5wdWJsaWMgdm9pZCBmZXRjaEN1cnJlbnRXZWF0aGVyRGF0YShDdXJyZW50V2VhdGhlckFQSURhdGEgQ3VycmVudFdlYXRoZXIsIFN0cmluZyBjaXR5TmFtZSk8L3RleHQ+PGVsbGlwc2UgY3g9IjY2OTAuNSIgY3k9Ijk5MS44MjAzIiBmaWxsPSIjODRCRTg0IiByeD0iMyIgcnk9IjMiIHN0eWxlPSJzdHJva2U6IzAzODA0ODtzdHJva2Utd2lkdGg6MS4wOyIvPjx0ZXh0IGZpbGw9IiMwMDAwMDAiIGZvbnQtZmFtaWx5PSJzYW5zLXNlcmlmIiBmb250LXNpemU9IjE0IiBsZW5ndGhBZGp1c3Q9InNwYWNpbmciIHRleHRMZW5ndGg9IjU5MSIgeD0iNjY5OS41IiB5PSI5OTYuMDYyNSI+cHVibGljIHZvaWQgZmV0Y2hXZWF0aGVyRm9yZWNhc3REYXRhKFdlYXRoZXJGb3JlY2FzdEFQSURhdGFGb3JlY2FzdCxTdHJpbmcgY2l0eU5hbWUpPC90ZXh0PjxlbGxpcHNlIGN4PSI2NjkwLjUiIGN5PSIxMDA2LjgwNDciIGZpbGw9IiM4NEJFODQiIHJ4PSIzIiByeT0iMyIgc3R5bGU9InN0cm9rZTojMDM4MDQ4O3N0cm9rZS13aWR0aDoxLjA7Ii8+PHRleHQgZmlsbD0iIzAwMDAwMCIgZm9udC1mYW1pbHk9InNhbnMtc2VyaWYiIGZvbnQtc2l6ZT0iMTQiIGxlbmd0aEFkanVzdD0ic3BhY2luZyIgdGV4dExlbmd0aD0iNTQ5IiB4PSI2Njk5LjUiIHk9IjEwMTEuMDQ2OSI+cHVibGljIHZvaWQgZmV0Y2hBaXJQb2xsdXRpb25EYXRhKEFpclBvbGx1dGlvbkFQSURhdGEgQWlyUG9sbCxTdHJpbmcgY2l0eU5hbWUpPC90ZXh0PjwvZz48IS0tY2xhc3MgREJtYW5hZ2VyLS0+PGcgaWQ9ImVsZW1fREJtYW5hZ2VyIj48cmVjdCBjb2RlTGluZT0iMTU3IiBmaWxsPSIjRjFGMUYxIiBoZWlnaHQ9IjYzMi4zOTA2IiBpZD0iREJtYW5hZ2VyIiByeD0iMi41IiByeT0iMi41IiBzdHlsZT0ic3Ryb2tlOiMxODE4MTg7c3Ryb2tlLXdpZHRoOjAuNTsiIHdpZHRoPSI3ODQiIHg9IjcyMjEuNSIgeT0iNyIvPjxlbGxpcHNlIGN4PSI3NTc3LjI1IiBjeT0iMjMiIGZpbGw9IiNBREQxQjIiIHJ4PSIxMSIgcnk9IjExIiBzdHlsZT0ic3Ryb2tlOiMxODE4MTg7c3Ryb2tlLXdpZHRoOjEuMDsiLz48cGF0aCBkPSJNNzU3NC44NzUsMjcuMjUgTDc1NzQuODc1LDI5IEw3NTc5LjgxMjUsMjkgTDc1NzkuODEyNSwyNy4yNSBMNzU3NC44NzUsMjcuMjUgWiBNNzU3NS41NjI1LDI3LjkzNzUgUTc1NzUuNTYyNSwyNy45Mzc1IDc1NzUuNTYyNSwxOC43NSBMNzU3My44MTI1LDE4Ljc1IFE3NTczLjgxMjUsMTguNzUgNzU3My44MTI1LDI3LjkzNzUgTDc1NzUuNTYyNSwyNy45Mzc1IFogTTc1NzkuMTI1LDI3LjkzNzUgTDc1ODAuODc1LDI3LjkzNzUgUTc1ODAuODc1LDI3LjkzNzUgNzU4MC44NzUsMjUuMTI1IEw3NTc5LjEyNSwyNS4xMjUgUTc1NzkuMTI1LDI1LjEyNSA3NTc5LjEyNSwyNy45Mzc1IFogTTc1NzkuMTI1LDE4Ljc1IFE3NTc5LjEyNSwxOC43NSA3NTc5LjEyNSwyMS41NjI1IEw3NTgwLjg3NSwyMS41NjI1IFE3NTgwLjg3NSwyMS41NjI1IDc1ODAuODc1LDE4Ljc1IEw3NTc5LjEyNSwxOC43NSBaIE03NTc0Ljg3NSwxOS40Mzc1IEw3NTc5LjgxMjUsMTkuNDM3NSBMNzU3OS44MTI1LDE3LjY4NzUgTDc1NzQuODc1LDE3LjY4NzUgTDc1NzQuODc1LDE5LjQzNzUgWiAiIGZpbGw9IiMwMDAwMDAiLz48dGV4dCBmaWxsPSIjMDAwMDAwIiBmb250LWZhbWlseT0ic2Fucy1zZXJpZiIgZm9udC1zaXplPSIxNCIgbGVuZ3RoQWRqdXN0PSJzcGFjaW5nIiB0ZXh0TGVuZ3RoPSI2NCIgeD0iNzU5Ny43NSIgeT0iMjguNzQyMiI+REJtYW5hZ2VyPC90ZXh0PjxsaW5lIHN0eWxlPSJzdHJva2U6IzE4MTgxODtzdHJva2Utd2lkdGg6MC41OyIgeDE9IjcyMjIuNSIgeDI9IjgwMDQuNSIgeTE9IjM5IiB5Mj0iMzkiLz48ZWxsaXBzZSBjeD0iNzIzMi41IiBjeT0iNTEuOTkyMiIgZmlsbD0ibm9uZSIgcng9IjMiIHJ5PSIzIiBzdHlsZT0ic3Ryb2tlOiMwMzgwNDg7c3Ryb2tlLXdpZHRoOjEuMDsiLz48dGV4dCBmaWxsPSIjMDAwMDAwIiBmb250LWZhbWlseT0ic2Fucy1zZXJpZiIgZm9udC1zaXplPSIxNCIgbGVuZ3RoQWRqdXN0PSJzcGFjaW5nIiB0ZXh0TGVuZ3RoPSIzNDUiIHg9IjcyNDEuNSIgeT0iNTYuMjM0NCI+cHVibGljIGNsYXNzIERCQWlyUG9sbERhdCBpbXBsZW1lbnRzIEFpcnBvbGxDYWNoZTwvdGV4dD48ZWxsaXBzZSBjeD0iNzIzMi41IiBjeT0iNjYuOTc2NiIgZmlsbD0ibm9uZSIgcng9IjMiIHJ5PSIzIiBzdHlsZT0ic3Ryb2tlOiMwMzgwNDg7c3Ryb2tlLXdpZHRoOjEuMDsiLz48dGV4dCBmaWxsPSIjMDAwMDAwIiBmb250LWZhbWlseT0ic2Fucy1zZXJpZiIgZm9udC1zaXplPSIxNCIgbGVuZ3RoQWRqdXN0PSJzcGFjaW5nIiB0ZXh0TGVuZ3RoPSIzODAiIHg9IjcyNDEuNSIgeT0iNzEuMjE4OCI+cHVibGljIGNsYXNzIERCQ3VycldlYXRoZXIgaW1wbGVtZW50cyBDdXJyV2VhdGhlckNhY2hlPC90ZXh0PjxlbGxpcHNlIGN4PSI3MjMyLjUiIGN5PSI4MS45NjA5IiBmaWxsPSJub25lIiByeD0iMyIgcnk9IjMiIHN0eWxlPSJzdHJva2U6IzAzODA0ODtzdHJva2Utd2lkdGg6MS4wOyIvPjx0ZXh0IGZpbGw9IiMwMDAwMDAiIGZvbnQtZmFtaWx5PSJzYW5zLXNlcmlmIiBmb250LXNpemU9IjE0IiBsZW5ndGhBZGp1c3Q9InNwYWNpbmciIHRleHRMZW5ndGg9IjM0NSIgeD0iNzI0MS41IiB5PSI4Ni4yMDMxIj5wdWJsaWMgY2xhc3MgREJGcmNzdDVEYXkgaW1wbGVtZW50cyBGb3JlY2FzdENhY2hlPC90ZXh0PjxlbGxpcHNlIGN4PSI3MjMyLjUiIGN5PSI5Ni45NDUzIiBmaWxsPSJub25lIiByeD0iMyIgcnk9IjMiIHN0eWxlPSJzdHJva2U6IzAzODA0ODtzdHJva2Utd2lkdGg6MS4wOyIvPjx0ZXh0IGZpbGw9IiMwMDAwMDAiIGZvbnQtZmFtaWx5PSJzYW5zLXNlcmlmIiBmb250LXNpemU9IjE0IiBsZW5ndGhBZGp1c3Q9InNwYWNpbmciIHRleHRMZW5ndGg9IjE3NSIgeD0iNzI0MS41IiB5PSIxMDEuMTg3NSI+cHVibGljIGNsYXNzIGNyZWF0ZVRhYmxlczwvdGV4dD48bGluZSBzdHlsZT0ic3Ryb2tlOiMxODE4MTg7c3Ryb2tlLXdpZHRoOjAuNTsiIHgxPSI3MjIyLjUiIHgyPSI4MDA0LjUiIHkxPSIxMDYuOTM3NSIgeTI9IjEwNi45Mzc1Ii8+PGVsbGlwc2UgY3g9IjcyMzIuNSIgY3k9IjExOS45Mjk3IiBmaWxsPSIjODRCRTg0IiByeD0iMyIgcnk9IjMiIHN0eWxlPSJzdHJva2U6IzAzODA0ODtzdHJva2Utd2lkdGg6MS4wOyIvPjx0ZXh0IGZpbGw9IiMwMDAwMDAiIGZvbnQtZmFtaWx5PSJzYW5zLXNlcmlmIiBmb250LXNpemU9IjE0IiBsZW5ndGhBZGp1c3Q9InNwYWNpbmciIHRleHRMZW5ndGg9IjQ5OSIgeD0iNzI0MS41IiB5PSIxMjQuMTcxOSI+cHVibGljIEJvb2xlYW4gY2hlY2tBaXJQb2xsdXRpb25EYXRhKGRvdWJsZSBsYXRpdHVkZSwgZG91YmxlIGxvbmdpdHVkZSk8L3RleHQ+PGVsbGlwc2UgY3g9IjcyMzIuNSIgY3k9IjEzNC45MTQxIiBmaWxsPSIjODRCRTg0IiByeD0iMyIgcnk9IjMiIHN0eWxlPSJzdHJva2U6IzAzODA0ODtzdHJva2Utd2lkdGg6MS4wOyIvPjx0ZXh0IGZpbGw9IiMwMDAwMDAiIGZvbnQtZmFtaWx5PSJzYW5zLXNlcmlmIiBmb250LXNpemU9IjE0IiBsZW5ndGhBZGp1c3Q9InNwYWNpbmciIHRleHRMZW5ndGg9IjM3NCIgeD0iNzI0MS41IiB5PSIxMzkuMTU2MyI+cHVibGljIEJvb2xlYW4gY2hlY2tBaXJQb2xsdXRpb25EYXRhKFN0cmluZyBjaXR5TmFtZSk8L3RleHQ+PGVsbGlwc2UgY3g9IjcyMzIuNSIgY3k9IjE0OS44OTg0IiBmaWxsPSIjODRCRTg0IiByeD0iMyIgcnk9IjMiIHN0eWxlPSJzdHJva2U6IzAzODA0ODtzdHJva2Utd2lkdGg6MS4wOyIvPjx0ZXh0IGZpbGw9IiMwMDAwMDAiIGZvbnQtZmFtaWx5PSJzYW5zLXNlcmlmIiBmb250LXNpemU9IjE0IiBsZW5ndGhBZGp1c3Q9InNwYWNpbmciIHRleHRMZW5ndGg9IjY4MSIgeD0iNzI0MS41IiB5PSIxNTQuMTQwNiI+cHVibGljIHZvaWQgZmV0Y2hBaXJQb2xsdXRpb25EYXRhKEFpclBvbGx1dGlvbkFQSURhdGEgQWlyUG9sbCwgZG91YmxlIGxhdGl0dWRlLCBkb3VibGUgbG9uZ2l0dWRlKTwvdGV4dD48ZWxsaXBzZSBjeD0iNzIzMi41IiBjeT0iMTY0Ljg4MjgiIGZpbGw9IiM4NEJFODQiIHJ4PSIzIiByeT0iMyIgc3R5bGU9InN0cm9rZTojMDM4MDQ4O3N0cm9rZS13aWR0aDoxLjA7Ii8+PHRleHQgZmlsbD0iIzAwMDAwMCIgZm9udC1mYW1pbHk9InNhbnMtc2VyaWYiIGZvbnQtc2l6ZT0iMTQiIGxlbmd0aEFkanVzdD0ic3BhY2luZyIgdGV4dExlbmd0aD0iNTU2IiB4PSI3MjQxLjUiIHk9IjE2OS4xMjUiPnB1YmxpYyB2b2lkIGZldGNoQWlyUG9sbHV0aW9uRGF0YShBaXJQb2xsdXRpb25BUElEYXRhIEFpclBvbGwsIFN0cmluZyBjaXR5TmFtZSk8L3RleHQ+PGVsbGlwc2UgY3g9IjcyMzIuNSIgY3k9IjE3OS44NjcyIiBmaWxsPSIjODRCRTg0IiByeD0iMyIgcnk9IjMiIHN0eWxlPSJzdHJva2U6IzAzODA0ODtzdHJva2Utd2lkdGg6MS4wOyIvPjx0ZXh0IGZpbGw9IiMwMDAwMDAiIGZvbnQtZmFtaWx5PSJzYW5zLXNlcmlmIiBmb250LXNpemU9IjE0IiBsZW5ndGhBZGp1c3Q9InNwYWNpbmciIHRleHRMZW5ndGg9IjQyOSIgeD0iNzI0MS41IiB5PSIxODQuMTA5NCI+cHVibGljIHZvaWQgaW5zZXJ0V2VhdGhlckRhdGEoQWlyUG9sbHV0aW9uQVBJRGF0YSBqc29uT2JqZWN0KTwvdGV4dD48ZWxsaXBzZSBjeD0iNzIzMi41IiBjeT0iMTk0Ljg1MTYiIGZpbGw9IiM4NEJFODQiIHJ4PSIzIiByeT0iMyIgc3R5bGU9InN0cm9rZTojMDM4MDQ4O3N0cm9rZS13aWR0aDoxLjA7Ii8+PHRleHQgZmlsbD0iIzAwMDAwMCIgZm9udC1mYW1pbHk9InNhbnMtc2VyaWYiIGZvbnQtc2l6ZT0iMTQiIGxlbmd0aEFkanVzdD0ic3BhY2luZyIgdGV4dExlbmd0aD0iNDUwIiB4PSI3MjQxLjUiIHk9IjE5OS4wOTM4Ij5wdWJsaWMgdm9pZCB1cGRhdGVFeGlzdGluZ1JlY29yZChBaXJQb2xsdXRpb25BUElEYXRhIGpzb25PYmplY3QpPC90ZXh0PjxlbGxpcHNlIGN4PSI3MjMyLjUiIGN5PSIyMDkuODM1OSIgZmlsbD0iIzg0QkU4NCIgcng9IjMiIHJ5PSIzIiBzdHlsZT0ic3Ryb2tlOiMwMzgwNDg7c3Ryb2tlLXdpZHRoOjEuMDsiLz48dGV4dCBmaWxsPSIjMDAwMDAwIiBmb250LWZhbWlseT0ic2Fucy1zZXJpZiIgZm9udC1zaXplPSIxNCIgbGVuZ3RoQWRqdXN0PSJzcGFjaW5nIiB0ZXh0TGVuZ3RoPSI0NzgiIHg9IjcyNDEuNSIgeT0iMjE0LjA3ODEiPnB1YmxpYyBib29sZWFuIGlzRGF0YVByZXNlbnRDb29yZChkb3VibGUgbGF0aXR1ZGUsIGRvdWJsZSBsb25naXR1ZGUpPC90ZXh0PjxlbGxpcHNlIGN4PSI3MjMyLjUiIGN5PSIyMjQuODIwMyIgZmlsbD0iIzg0QkU4NCIgcng9IjMiIHJ5PSIzIiBzdHlsZT0ic3Ryb2tlOiMwMzgwNDg7c3Ryb2tlLXdpZHRoOjEuMDsiLz48dGV4dCBmaWxsPSIjMDAwMDAwIiBmb250LWZhbWlseT0ic2Fucy1zZXJpZiIgZm9udC1zaXplPSIxNCIgbGVuZ3RoQWRqdXN0PSJzcGFjaW5nIiB0ZXh0TGVuZ3RoPSIzODkiIHg9IjcyNDEuNSIgeT0iMjI5LjA2MjUiPnB1YmxpYyBib29sZWFuIGlzRGF0YVByZXNlbnRCeUNpdHlOYW1lKFN0cmluZyBjaXR5TmFtZSk8L3RleHQ+PGVsbGlwc2UgY3g9IjcyMzIuNSIgY3k9IjIzOS44MDQ3IiBmaWxsPSIjODRCRTg0IiByeD0iMyIgcnk9IjMiIHN0eWxlPSJzdHJva2U6IzAzODA0ODtzdHJva2Utd2lkdGg6MS4wOyIvPjx0ZXh0IGZpbGw9IiMwMDAwMDAiIGZvbnQtZmFtaWx5PSJzYW5zLXNlcmlmIiBmb250LXNpemU9IjE0IiBsZW5ndGhBZGp1c3Q9InNwYWNpbmciIHRleHRMZW5ndGg9IjU0NCIgeD0iNzI0MS41IiB5PSIyNDQuMDQ2OSI+cHVibGljIEFpclBvbGx1dGlvbkFQSURhdGEgZGlzcGxheURhdGFGcm9tRGF0YWJhc2VCeUNpdHlOYW1lKFN0cmluZyBjaXR5TmFtZSk8L3RleHQ+PGVsbGlwc2UgY3g9IjcyMzIuNSIgY3k9IjI1NC43ODkxIiBmaWxsPSIjODRCRTg0IiByeD0iMyIgcnk9IjMiIHN0eWxlPSJzdHJva2U6IzAzODA0ODtzdHJva2Utd2lkdGg6MS4wOyIvPjx0ZXh0IGZpbGw9IiMwMDAwMDAiIGZvbnQtZmFtaWx5PSJzYW5zLXNlcmlmIiBmb250LXNpemU9IjE0IiBsZW5ndGhBZGp1c3Q9InNwYWNpbmciIHRleHRMZW5ndGg9IjY1NCIgeD0iNzI0MS41IiB5PSIyNTkuMDMxMyI+cHVibGljIEFpclBvbGx1dGlvbkFQSURhdGEgZGlzcGxheURhdGFGcm9tRGF0YWJhc2VCeUxhdExvbihkb3VibGUgbGF0aXR1ZGUsIGRvdWJsZSBsb25naXR1ZGUpPC90ZXh0PjxlbGxpcHNlIGN4PSI3MjMyLjUiIGN5PSIyNjkuNzczNCIgZmlsbD0iIzg0QkU4NCIgcng9IjMiIHJ5PSIzIiBzdHlsZT0ic3Ryb2tlOiMwMzgwNDg7c3Ryb2tlLXdpZHRoOjEuMDsiLz48dGV4dCBmaWxsPSIjMDAwMDAwIiBmb250LWZhbWlseT0ic2Fucy1zZXJpZiIgZm9udC1zaXplPSIxNCIgbGVuZ3RoQWRqdXN0PSJzcGFjaW5nIiB0ZXh0TGVuZ3RoPSI1NjMiIHg9IjcyNDEuNSIgeT0iMjc0LjAxNTYiPnByaXZhdGUgQWlyUG9sbHV0aW9uQVBJRGF0YSBkaXNwbGF5RGF0YShSZXN1bHRTZXQgcmVzdWx0U2V0KSB0aHJvd3MgU1FMRXhjZXB0aW9uPC90ZXh0PjxlbGxpcHNlIGN4PSI3MjMyLjUiIGN5PSIyODQuNzU3OCIgZmlsbD0iIzg0QkU4NCIgcng9IjMiIHJ5PSIzIiBzdHlsZT0ic3Ryb2tlOiMwMzgwNDg7c3Ryb2tlLXdpZHRoOjEuMDsiLz48dGV4dCBmaWxsPSIjMDAwMDAwIiBmb250LWZhbWlseT0ic2Fucy1zZXJpZiIgZm9udC1zaXplPSIxNCIgbGVuZ3RoQWRqdXN0PSJzcGFjaW5nIiB0ZXh0TGVuZ3RoPSIxOTEiIHg9IjcyNDEuNSIgeT0iMjg5Ij5wdWJsaWMgdm9pZCBkZWxldGVPbGREYXRhKCk8L3RleHQ+PGVsbGlwc2UgY3g9IjcyMzIuNSIgY3k9IjI5OS43NDIyIiBmaWxsPSIjODRCRTg0IiByeD0iMyIgcnk9IjMiIHN0eWxlPSJzdHJva2U6IzAzODA0ODtzdHJva2Utd2lkdGg6MS4wOyIvPjx0ZXh0IGZpbGw9IiMwMDAwMDAiIGZvbnQtZmFtaWx5PSJzYW5zLXNlcmlmIiBmb250LXNpemU9IjE0IiBsZW5ndGhBZGp1c3Q9InNwYWNpbmciIHRleHRMZW5ndGg9IjUxMyIgeD0iNzI0MS41IiB5PSIzMDMuOTg0NCI+cHVibGljIEJvb2xlYW4gY2hlY2tDdXJyZW50V2VhdGhlckRhdGEoZG91YmxlIGxhdGl0dWRlLCBkb3VibGUgbG9uZ2l0dWRlKTwvdGV4dD48ZWxsaXBzZSBjeD0iNzIzMi41IiBjeT0iMzE0LjcyNjYiIGZpbGw9IiM4NEJFODQiIHJ4PSIzIiByeT0iMyIgc3R5bGU9InN0cm9rZTojMDM4MDQ4O3N0cm9rZS13aWR0aDoxLjA7Ii8+PHRleHQgZmlsbD0iIzAwMDAwMCIgZm9udC1mYW1pbHk9InNhbnMtc2VyaWYiIGZvbnQtc2l6ZT0iMTQiIGxlbmd0aEFkanVzdD0ic3BhY2luZyIgdGV4dExlbmd0aD0iMzg4IiB4PSI3MjQxLjUiIHk9IjMxOC45Njg4Ij5wdWJsaWMgQm9vbGVhbiBjaGVja0N1cnJlbnRXZWF0aGVyRGF0YShTdHJpbmcgY2l0eU5hbWUpPC90ZXh0PjxlbGxpcHNlIGN4PSI3MjMyLjUiIGN5PSIzMjkuNzEwOSIgZmlsbD0iIzg0QkU4NCIgcng9IjMiIHJ5PSIzIiBzdHlsZT0ic3Ryb2tlOiMwMzgwNDg7c3Ryb2tlLXdpZHRoOjEuMDsiLz48dGV4dCBmaWxsPSIjMDAwMDAwIiBmb250LWZhbWlseT0ic2Fucy1zZXJpZiIgZm9udC1zaXplPSIxNCIgbGVuZ3RoQWRqdXN0PSJzcGFjaW5nIiB0ZXh0TGVuZ3RoPSI3NTgiIHg9IjcyNDEuNSIgeT0iMzMzLjk1MzEiPnB1YmxpYyB2b2lkIGZldGNoQ3VycmVudFdlYXRoZXJEYXRhKEN1cnJlbnRXZWF0aGVyQVBJRGF0YSBjdXJyZW50V2VhdGhlciwgZG91YmxlIGxhdGl0dWRlLCBkb3VibGUgbG9uZ2l0dWRlKTwvdGV4dD48ZWxsaXBzZSBjeD0iNzIzMi41IiBjeT0iMzQ0LjY5NTMiIGZpbGw9IiM4NEJFODQiIHJ4PSIzIiByeT0iMyIgc3R5bGU9InN0cm9rZTojMDM4MDQ4O3N0cm9rZS13aWR0aDoxLjA7Ii8+PHRleHQgZmlsbD0iIzAwMDAwMCIgZm9udC1mYW1pbHk9InNhbnMtc2VyaWYiIGZvbnQtc2l6ZT0iMTQiIGxlbmd0aEFkanVzdD0ic3BhY2luZyIgdGV4dExlbmd0aD0iNjMzIiB4PSI3MjQxLjUiIHk9IjM0OC45Mzc1Ij5wdWJsaWMgdm9pZCBmZXRjaEN1cnJlbnRXZWF0aGVyRGF0YShDdXJyZW50V2VhdGhlckFQSURhdGEgY3VycmVudFdlYXRoZXIsIFN0cmluZyBjaXR5TmFtZSk8L3RleHQ+PGVsbGlwc2UgY3g9IjcyMzIuNSIgY3k9IjM1OS42Nzk3IiBmaWxsPSIjODRCRTg0IiByeD0iMyIgcnk9IjMiIHN0eWxlPSJzdHJva2U6IzAzODA0ODtzdHJva2Utd2lkdGg6MS4wOyIvPjx0ZXh0IGZpbGw9IiMwMDAwMDAiIGZvbnQtZmFtaWx5PSJzYW5zLXNlcmlmIiBmb250LXNpemU9IjE0IiBsZW5ndGhBZGp1c3Q9InNwYWNpbmciIHRleHRMZW5ndGg9IjQ0MyIgeD0iNzI0MS41IiB5PSIzNjMuOTIxOSI+cHVibGljIHZvaWQgaW5zZXJ0V2VhdGhlckRhdGEoQ3VycmVudFdlYXRoZXJBUElEYXRhIGpzb25PYmplY3QpPC90ZXh0PjxlbGxpcHNlIGN4PSI3MjMyLjUiIGN5PSIzNzQuNjY0MSIgZmlsbD0iIzg0QkU4NCIgcng9IjMiIHJ5PSIzIiBzdHlsZT0ic3Ryb2tlOiMwMzgwNDg7c3Ryb2tlLXdpZHRoOjEuMDsiLz48dGV4dCBmaWxsPSIjMDAwMDAwIiBmb250LWZhbWlseT0ic2Fucy1zZXJpZiIgZm9udC1zaXplPSIxNCIgbGVuZ3RoQWRqdXN0PSJzcGFjaW5nIiB0ZXh0TGVuZ3RoPSI0OTkiIHg9IjcyNDEuNSIgeT0iMzc4LjkwNjMiPnB1YmxpYyBib29sZWFuIGlzRGF0YVByZXNlbnRCeUxhdExvbihkb3VibGUgbGF0aXR1ZGUsIGRvdWJsZSBsb25naXR1ZGUpPC90ZXh0PjxlbGxpcHNlIGN4PSI3MjMyLjUiIGN5PSIzODkuNjQ4NCIgZmlsbD0iIzg0QkU4NCIgcng9IjMiIHJ5PSIzIiBzdHlsZT0ic3Ryb2tlOiMwMzgwNDg7c3Ryb2tlLXdpZHRoOjEuMDsiLz48dGV4dCBmaWxsPSIjMDAwMDAwIiBmb250LWZhbWlseT0ic2Fucy1zZXJpZiIgZm9udC1zaXplPSIxNCIgbGVuZ3RoQWRqdXN0PSJzcGFjaW5nIiB0ZXh0TGVuZ3RoPSI2NjgiIHg9IjcyNDEuNSIgeT0iMzkzLjg5MDYiPnB1YmxpYyBDdXJyZW50V2VhdGhlckFQSURhdGEgZGlzcGxheURhdGFGcm9tRGF0YWJhc2VCeUxhdExvbihkb3VibGUgbGF0aXR1ZGUsIGRvdWJsZSBsb25naXR1ZGUpPC90ZXh0PjxlbGxpcHNlIGN4PSI3MjMyLjUiIGN5PSI0MDQuNjMyOCIgZmlsbD0iIzg0QkU4NCIgcng9IjMiIHJ5PSIzIiBzdHlsZT0ic3Ryb2tlOiMwMzgwNDg7c3Ryb2tlLXdpZHRoOjEuMDsiLz48dGV4dCBmaWxsPSIjMDAwMDAwIiBmb250LWZhbWlseT0ic2Fucy1zZXJpZiIgZm9udC1zaXplPSIxNCIgbGVuZ3RoQWRqdXN0PSJzcGFjaW5nIiB0ZXh0TGVuZ3RoPSI1NTgiIHg9IjcyNDEuNSIgeT0iNDA4Ljg3NSI+cHVibGljIEN1cnJlbnRXZWF0aGVyQVBJRGF0YSBkaXNwbGF5RGF0YUZyb21EYXRhYmFzZUJ5Q2l0eU5hbWUoU3RyaW5nIGNpdHlOYW1lKTwvdGV4dD48ZWxsaXBzZSBjeD0iNzIzMi41IiBjeT0iNDE5LjYxNzIiIGZpbGw9IiM4NEJFODQiIHJ4PSIzIiByeT0iMyIgc3R5bGU9InN0cm9rZTojMDM4MDQ4O3N0cm9rZS13aWR0aDoxLjA7Ii8+PHRleHQgZmlsbD0iIzAwMDAwMCIgZm9udC1mYW1pbHk9InNhbnMtc2VyaWYiIGZvbnQtc2l6ZT0iMTQiIGxlbmd0aEFkanVzdD0ic3BhY2luZyIgdGV4dExlbmd0aD0iNTc3IiB4PSI3MjQxLjUiIHk9IjQyMy44NTk0Ij5wcml2YXRlIEN1cnJlbnRXZWF0aGVyQVBJRGF0YSBkaXNwbGF5RGF0YShSZXN1bHRTZXQgcmVzdWx0U2V0KSB0aHJvd3MgU1FMRXhjZXB0aW9uPC90ZXh0PjxlbGxpcHNlIGN4PSI3MjMyLjUiIGN5PSI0MzQuNjAxNiIgZmlsbD0iIzg0QkU4NCIgcng9IjMiIHJ5PSIzIiBzdHlsZT0ic3Ryb2tlOiMwMzgwNDg7c3Ryb2tlLXdpZHRoOjEuMDsiLz48dGV4dCBmaWxsPSIjMDAwMDAwIiBmb250LWZhbWlseT0ic2Fucy1zZXJpZiIgZm9udC1zaXplPSIxNCIgbGVuZ3RoQWRqdXN0PSJzcGFjaW5nIiB0ZXh0TGVuZ3RoPSIxOTEiIHg9IjcyNDEuNSIgeT0iNDM4Ljg0MzgiPnB1YmxpYyB2b2lkIGRlbGV0ZU9sZERhdGEoKTwvdGV4dD48ZWxsaXBzZSBjeD0iNzIzMi41IiBjeT0iNDQ5LjU4NTkiIGZpbGw9IiM4NEJFODQiIHJ4PSIzIiByeT0iMyIgc3R5bGU9InN0cm9rZTojMDM4MDQ4O3N0cm9rZS13aWR0aDoxLjA7Ii8+PHRleHQgZmlsbD0iIzAwMDAwMCIgZm9udC1mYW1pbHk9InNhbnMtc2VyaWYiIGZvbnQtc2l6ZT0iMTQiIGxlbmd0aEFkanVzdD0ic3BhY2luZyIgdGV4dExlbmd0aD0iNTIwIiB4PSI3MjQxLjUiIHk9IjQ1My44MjgxIj5wdWJsaWMgQm9vbGVhbiBjaGVja1dlYXRoZXJGb3JlY2FzdERhdGEoZG91YmxlIGxhdGl0dWRlLCBkb3VibGUgbG9uZ2l0dWRlKTwvdGV4dD48ZWxsaXBzZSBjeD0iNzIzMi41IiBjeT0iNDY0LjU3MDMiIGZpbGw9IiM4NEJFODQiIHJ4PSIzIiByeT0iMyIgc3R5bGU9InN0cm9rZTojMDM4MDQ4O3N0cm9rZS13aWR0aDoxLjA7Ii8+PHRleHQgZmlsbD0iIzAwMDAwMCIgZm9udC1mYW1pbHk9InNhbnMtc2VyaWYiIGZvbnQtc2l6ZT0iMTQiIGxlbmd0aEFkanVzdD0ic3BhY2luZyIgdGV4dExlbmd0aD0iMzk1IiB4PSI3MjQxLjUiIHk9IjQ2OC44MTI1Ij5wdWJsaWMgQm9vbGVhbiBjaGVja1dlYXRoZXJGb3JlY2FzdERhdGEoU3RyaW5nIGNpdHlOYW1lKTwvdGV4dD48ZWxsaXBzZSBjeD0iNzIzMi41IiBjeT0iNDc5LjU1NDciIGZpbGw9IiM4NEJFODQiIHJ4PSIzIiByeT0iMyIgc3R5bGU9InN0cm9rZTojMDM4MDQ4O3N0cm9rZS13aWR0aDoxLjA7Ii8+PHRleHQgZmlsbD0iIzAwMDAwMCIgZm9udC1mYW1pbHk9InNhbnMtc2VyaWYiIGZvbnQtc2l6ZT0iMTQiIGxlbmd0aEFkanVzdD0ic3BhY2luZyIgdGV4dExlbmd0aD0iNzMwIiB4PSI3MjQxLjUiIHk9IjQ4My43OTY5Ij5wdWJsaWMgdm9pZCBmZXRjaFdlYXRoZXJGb3JlY2FzdERhdGEoV2VhdGhlckZvcmVjYXN0QVBJRGF0YSBmb3JlY2FzdCwgZG91YmxlIGxhdGl0dWRlLCBkb3VibGUgbG9uZ2l0dWRlKTwvdGV4dD48ZWxsaXBzZSBjeD0iNzIzMi41IiBjeT0iNDk0LjUzOTEiIGZpbGw9IiM4NEJFODQiIHJ4PSIzIiByeT0iMyIgc3R5bGU9InN0cm9rZTojMDM4MDQ4O3N0cm9rZS13aWR0aDoxLjA7Ii8+PHRleHQgZmlsbD0iIzAwMDAwMCIgZm9udC1mYW1pbHk9InNhbnMtc2VyaWYiIGZvbnQtc2l6ZT0iMTQiIGxlbmd0aEFkanVzdD0ic3BhY2luZyIgdGV4dExlbmd0aD0iNjA1IiB4PSI3MjQxLjUiIHk9IjQ5OC43ODEzIj5wdWJsaWMgdm9pZCBmZXRjaFdlYXRoZXJGb3JlY2FzdERhdGEoV2VhdGhlckZvcmVjYXN0QVBJRGF0YSBmb3JlY2FzdCwgU3RyaW5nIGNpdHlOYW1lKTwvdGV4dD48ZWxsaXBzZSBjeD0iNzIzMi41IiBjeT0iNTA5LjUyMzQiIGZpbGw9IiM4NEJFODQiIHJ4PSIzIiByeT0iMyIgc3R5bGU9InN0cm9rZTojMDM4MDQ4O3N0cm9rZS13aWR0aDoxLjA7Ii8+PHRleHQgZmlsbD0iIzAwMDAwMCIgZm9udC1mYW1pbHk9InNhbnMtc2VyaWYiIGZvbnQtc2l6ZT0iMTQiIGxlbmd0aEFkanVzdD0ic3BhY2luZyIgdGV4dExlbmd0aD0iNDUwIiB4PSI3MjQxLjUiIHk9IjUxMy43NjU2Ij5wdWJsaWMgdm9pZCBpbnNlcnRXZWF0aGVyRGF0YShXZWF0aGVyRm9yZWNhc3RBUElEYXRhIGpzb25PYmplY3QpPC90ZXh0PjxlbGxpcHNlIGN4PSI3MjMyLjUiIGN5PSI1MjQuNTA3OCIgZmlsbD0iIzg0QkU4NCIgcng9IjMiIHJ5PSIzIiBzdHlsZT0ic3Ryb2tlOiMwMzgwNDg7c3Ryb2tlLXdpZHRoOjEuMDsiLz48dGV4dCBmaWxsPSIjMDAwMDAwIiBmb250LWZhbWlseT0ic2Fucy1zZXJpZiIgZm9udC1zaXplPSIxNCIgbGVuZ3RoQWRqdXN0PSJzcGFjaW5nIiB0ZXh0TGVuZ3RoPSIzODkiIHg9IjcyNDEuNSIgeT0iNTI4Ljc1Ij5wdWJsaWMgYm9vbGVhbiBpc0RhdGFQcmVzZW50QnlDaXR5TmFtZShTdHJpbmcgY2l0eU5hbWUpPC90ZXh0PjxlbGxpcHNlIGN4PSI3MjMyLjUiIGN5PSI1MzkuNDkyMiIgZmlsbD0iIzg0QkU4NCIgcng9IjMiIHJ5PSIzIiBzdHlsZT0ic3Ryb2tlOiMwMzgwNDg7c3Ryb2tlLXdpZHRoOjEuMDsiLz48dGV4dCBmaWxsPSIjMDAwMDAwIiBmb250LWZhbWlseT0ic2Fucy1zZXJpZiIgZm9udC1zaXplPSIxNCIgbGVuZ3RoQWRqdXN0PSJzcGFjaW5nIiB0ZXh0TGVuZ3RoPSI0OTkiIHg9IjcyNDEuNSIgeT0iNTQzLjczNDQiPnB1YmxpYyBib29sZWFuIGlzRGF0YVByZXNlbnRCeUxhdExvbihkb3VibGUgbGF0aXR1ZGUsIGRvdWJsZSBsb25naXR1ZGUpPC90ZXh0PjxlbGxpcHNlIGN4PSI3MjMyLjUiIGN5PSI1NTQuNDc2NiIgZmlsbD0iIzg0QkU4NCIgcng9IjMiIHJ5PSIzIiBzdHlsZT0ic3Ryb2tlOiMwMzgwNDg7c3Ryb2tlLXdpZHRoOjEuMDsiLz48dGV4dCBmaWxsPSIjMDAwMDAwIiBmb250LWZhbWlseT0ic2Fucy1zZXJpZiIgZm9udC1zaXplPSIxNCIgbGVuZ3RoQWRqdXN0PSJzcGFjaW5nIiB0ZXh0TGVuZ3RoPSI1NjUiIHg9IjcyNDEuNSIgeT0iNTU4LjcxODgiPnB1YmxpYyBXZWF0aGVyRm9yZWNhc3RBUElEYXRhIGRpc3BsYXlEYXRhRnJvbURhdGFiYXNlQnlDaXR5TmFtZShTdHJpbmcgY2l0eU5hbWUpPC90ZXh0PjxlbGxpcHNlIGN4PSI3MjMyLjUiIGN5PSI1NjkuNDYwOSIgZmlsbD0iIzg0QkU4NCIgcng9IjMiIHJ5PSIzIiBzdHlsZT0ic3Ryb2tlOiMwMzgwNDg7c3Ryb2tlLXdpZHRoOjEuMDsiLz48dGV4dCBmaWxsPSIjMDAwMDAwIiBmb250LWZhbWlseT0ic2Fucy1zZXJpZiIgZm9udC1zaXplPSIxNCIgbGVuZ3RoQWRqdXN0PSJzcGFjaW5nIiB0ZXh0TGVuZ3RoPSI2NzUiIHg9IjcyNDEuNSIgeT0iNTczLjcwMzEiPnB1YmxpYyBXZWF0aGVyRm9yZWNhc3RBUElEYXRhIGRpc3BsYXlEYXRhRnJvbURhdGFiYXNlQnlMYXRMb24oZG91YmxlIGxhdGl0dWRlLCBkb3VibGUgbG9uZ2l0dWRlKTwvdGV4dD48ZWxsaXBzZSBjeD0iNzIzMi41IiBjeT0iNTg0LjQ0NTMiIGZpbGw9IiM4NEJFODQiIHJ4PSIzIiByeT0iMyIgc3R5bGU9InN0cm9rZTojMDM4MDQ4O3N0cm9rZS13aWR0aDoxLjA7Ii8+PHRleHQgZmlsbD0iIzAwMDAwMCIgZm9udC1mYW1pbHk9InNhbnMtc2VyaWYiIGZvbnQtc2l6ZT0iMTQiIGxlbmd0aEFkanVzdD0ic3BhY2luZyIgdGV4dExlbmd0aD0iNjI2IiB4PSI3MjQxLjUiIHk9IjU4OC42ODc1Ij5wdWJsaWMgV2VhdGhlckZvcmVjYXN0QVBJRGF0YSBkaXNwbGF5RGF0YUFzQXJyYXkoUmVzdWx0U2V0IHJlc3VsdFNldCkgdGhyb3dzIFNRTEV4Y2VwdGlvbjwvdGV4dD48ZWxsaXBzZSBjeD0iNzIzMi41IiBjeT0iNTk5LjQyOTciIGZpbGw9IiM4NEJFODQiIHJ4PSIzIiByeT0iMyIgc3R5bGU9InN0cm9rZTojMDM4MDQ4O3N0cm9rZS13aWR0aDoxLjA7Ii8+PHRleHQgZmlsbD0iIzAwMDAwMCIgZm9udC1mYW1pbHk9InNhbnMtc2VyaWYiIGZvbnQtc2l6ZT0iMTQiIGxlbmd0aEFkanVzdD0ic3BhY2luZyIgdGV4dExlbmd0aD0iMTkxIiB4PSI3MjQxLjUiIHk9IjYwMy42NzE5Ij5wdWJsaWMgdm9pZCBkZWxldGVPbGREYXRhKCk8L3RleHQ+PGVsbGlwc2UgY3g9IjcyMzIuNSIgY3k9IjYxNC40MTQxIiBmaWxsPSIjODRCRTg0IiByeD0iMyIgcnk9IjMiIHN0eWxlPSJzdHJva2U6IzAzODA0ODtzdHJva2Utd2lkdGg6MS4wOyIvPjx0ZXh0IGZpbGw9IiMwMDAwMDAiIGZvbnQtZmFtaWx5PSJzYW5zLXNlcmlmIiBmb250LXNpemU9IjE0IiBsZW5ndGhBZGp1c3Q9InNwYWNpbmciIHRleHRMZW5ndGg9IjIzMyIgeD0iNzI0MS41IiB5PSI2MTguNjU2MyI+cHVibGljIHZvaWQgVGFibGVfQWlyX1BvbGx1dGlvbigpPC90ZXh0PjxlbGxpcHNlIGN4PSI3MjMyLjUiIGN5PSI2MjkuMzk4NCIgZmlsbD0iIzg0QkU4NCIgcng9IjMiIHJ5PSIzIiBzdHlsZT0ic3Ryb2tlOiMwMzgwNDg7c3Ryb2tlLXdpZHRoOjEuMDsiLz48dGV4dCBmaWxsPSIjMDAwMDAwIiBmb250LWZhbWlseT0ic2Fucy1zZXJpZiIgZm9udC1zaXplPSIxNCIgbGVuZ3RoQWRqdXN0PSJzcGFjaW5nIiB0ZXh0TGVuZ3RoPSIyNTUiIHg9IjcyNDEuNSIgeT0iNjMzLjY0MDYiPnB1YmxpYyB2b2lkIFRhYmxlX3dlYXRoZXJfRm9yZWNhc3QoKTwvdGV4dD48L2c+PCEtLWNsYXNzIERhdGFoYW5kaW5saW5nLS0+PGcgaWQ9ImVsZW1fRGF0YWhhbmRpbmxpbmciPjxyZWN0IGNvZGVMaW5lPSIxOTkiIGZpbGw9IiNGMUYxRjEiIGhlaWdodD0iMzkyLjY0MDYiIGlkPSJEYXRhaGFuZGlubGluZyIgcng9IjIuNSIgcnk9IjIuNSIgc3R5bGU9InN0cm9rZTojMTgxODE4O3N0cm9rZS13aWR0aDowLjU7IiB3aWR0aD0iMTQxNiIgeD0iNzcwNi41IiB5PSI2OTkiLz48ZWxsaXBzZSBjeD0iODM2MS4yNSIgY3k9IjcxNSIgZmlsbD0iI0FERDFCMiIgcng9IjExIiByeT0iMTEiIHN0eWxlPSJzdHJva2U6IzE4MTgxODtzdHJva2Utd2lkdGg6MS4wOyIvPjxwYXRoIGQ9Ik04MzU4Ljg3NSw3MTkuMjUgTDgzNTguODc1LDcyMSBMODM2My44MTI1LDcyMSBMODM2My44MTI1LDcxOS4yNSBMODM1OC44NzUsNzE5LjI1IFogTTgzNTkuNTYyNSw3MTkuOTM3NSBRODM1OS41NjI1LDcxOS45Mzc1IDgzNTkuNTYyNSw3MTAuNzUgTDgzNTcuODEyNSw3MTAuNzUgUTgzNTcuODEyNSw3MTAuNzUgODM1Ny44MTI1LDcxOS45Mzc1IEw4MzU5LjU2MjUsNzE5LjkzNzUgWiBNODM2My4xMjUsNzE5LjkzNzUgTDgzNjQuODc1LDcxOS45Mzc1IFE4MzY0Ljg3NSw3MTkuOTM3NSA4MzY0Ljg3NSw3MTcuMTI1IEw4MzYzLjEyNSw3MTcuMTI1IFE4MzYzLjEyNSw3MTcuMTI1IDgzNjMuMTI1LDcxOS45Mzc1IFogTTgzNjMuMTI1LDcxMC43NSBRODM2My4xMjUsNzEwLjc1IDgzNjMuMTI1LDcxMy41NjI1IEw4MzY0Ljg3NSw3MTMuNTYyNSBRODM2NC44NzUsNzEzLjU2MjUgODM2NC44NzUsNzEwLjc1IEw4MzYzLjEyNSw3MTAuNzUgWiBNODM1OC44NzUsNzExLjQzNzUgTDgzNjMuODEyNSw3MTEuNDM3NSBMODM2My44MTI1LDcwOS42ODc1IEw4MzU4Ljg3NSw3MDkuNjg3NSBMODM1OC44NzUsNzExLjQzNzUgWiAiIGZpbGw9IiMwMDAwMDAiLz48dGV4dCBmaWxsPSIjMDAwMDAwIiBmb250LWZhbWlseT0ic2Fucy1zZXJpZiIgZm9udC1zaXplPSIxNCIgbGVuZ3RoQWRqdXN0PSJzcGFjaW5nIiB0ZXh0TGVuZ3RoPSI5OCIgeD0iODM4MS43NSIgeT0iNzIwLjc0MjIiPkRhdGFoYW5kaW5saW5nPC90ZXh0PjxsaW5lIHN0eWxlPSJzdHJva2U6IzE4MTgxODtzdHJva2Utd2lkdGg6MC41OyIgeDE9Ijc3MDcuNSIgeDI9IjkxMjEuNSIgeTE9IjczMSIgeTI9IjczMSIvPjxlbGxpcHNlIGN4PSI3NzE3LjUiIGN5PSI3NDMuOTkyMiIgZmlsbD0ibm9uZSIgcng9IjMiIHJ5PSIzIiBzdHlsZT0ic3Ryb2tlOiMwMzgwNDg7c3Ryb2tlLXdpZHRoOjEuMDsiLz48dGV4dCBmaWxsPSIjMDAwMDAwIiBmb250LWZhbWlseT0ic2Fucy1zZXJpZiIgZm9udC1zaXplPSIxNCIgbGVuZ3RoQWRqdXN0PSJzcGFjaW5nIiB0ZXh0TGVuZ3RoPSIzNjYiIHg9Ijc3MjYuNSIgeT0iNzQ4LjIzNDQiPnB1YmxpYyBjbGFzcyBEYXRhSGFuZGxpbmdUeFQgaW1wbGVtZW50cyBDYWNoZU1hbmFnZXI8L3RleHQ+PGVsbGlwc2UgY3g9Ijc3MTcuNSIgY3k9Ijc1OC45NzY2IiBmaWxsPSJub25lIiByeD0iMyIgcnk9IjMiIHN0eWxlPSJzdHJva2U6IzAzODA0ODtzdHJva2Utd2lkdGg6MS4wOyIvPjx0ZXh0IGZpbGw9IiMwMDAwMDAiIGZvbnQtZmFtaWx5PSJzYW5zLXNlcmlmIiBmb250LXNpemU9IjE0IiBsZW5ndGhBZGp1c3Q9InNwYWNpbmciIHRleHRMZW5ndGg9IjM4MCIgeD0iNzcyNi41IiB5PSI3NjMuMjE4OCI+cHVibGljIGNsYXNzIFdlYXRoZXJEYXRhVHh0U3RvcmFnZSBpbXBsZW1lbnRzIFN0b3JlVHh0PC90ZXh0PjxsaW5lIHN0eWxlPSJzdHJva2U6IzE4MTgxODtzdHJva2Utd2lkdGg6MC41OyIgeDE9Ijc3MDcuNSIgeDI9IjkxMjEuNSIgeTE9Ijc2OC45Njg4IiB5Mj0iNzY4Ljk2ODgiLz48ZWxsaXBzZSBjeD0iNzcxNy41IiBjeT0iNzgxLjk2MDkiIGZpbGw9IiM4NEJFODQiIHJ4PSIzIiByeT0iMyIgc3R5bGU9InN0cm9rZTojMDM4MDQ4O3N0cm9rZS13aWR0aDoxLjA7Ii8+PHRleHQgZmlsbD0iIzAwMDAwMCIgZm9udC1mYW1pbHk9InNhbnMtc2VyaWYiIGZvbnQtc2l6ZT0iMTQiIGxlbmd0aEFkanVzdD0ic3BhY2luZyIgdGV4dExlbmd0aD0iNDk5IiB4PSI3NzI2LjUiIHk9Ijc4Ni4yMDMxIj5wdWJsaWMgQm9vbGVhbiBjaGVja0FpclBvbGx1dGlvbkRhdGEoZG91YmxlIGxhdGl0dWRlLCBkb3VibGUgbG9uZ2l0dWRlKTwvdGV4dD48ZWxsaXBzZSBjeD0iNzcxNy41IiBjeT0iNzk2Ljk0NTMiIGZpbGw9IiM4NEJFODQiIHJ4PSIzIiByeT0iMyIgc3R5bGU9InN0cm9rZTojMDM4MDQ4O3N0cm9rZS13aWR0aDoxLjA7Ii8+PHRleHQgZmlsbD0iIzAwMDAwMCIgZm9udC1mYW1pbHk9InNhbnMtc2VyaWYiIGZvbnQtc2l6ZT0iMTQiIGxlbmd0aEFkanVzdD0ic3BhY2luZyIgdGV4dExlbmd0aD0iNTEzIiB4PSI3NzI2LjUiIHk9IjgwMS4xODc1Ij5wdWJsaWMgQm9vbGVhbiBjaGVja0N1cnJlbnRXZWF0aGVyRGF0YShkb3VibGUgbGF0aXR1ZGUsIGRvdWJsZSBsb25naXR1ZGUpPC90ZXh0PjxlbGxpcHNlIGN4PSI3NzE3LjUiIGN5PSI4MTEuOTI5NyIgZmlsbD0iIzg0QkU4NCIgcng9IjMiIHJ5PSIzIiBzdHlsZT0ic3Ryb2tlOiMwMzgwNDg7c3Ryb2tlLXdpZHRoOjEuMDsiLz48dGV4dCBmaWxsPSIjMDAwMDAwIiBmb250LWZhbWlseT0ic2Fucy1zZXJpZiIgZm9udC1zaXplPSIxNCIgbGVuZ3RoQWRqdXN0PSJzcGFjaW5nIiB0ZXh0TGVuZ3RoPSI1MjAiIHg9Ijc3MjYuNSIgeT0iODE2LjE3MTkiPnB1YmxpYyBCb29sZWFuIGNoZWNrV2VhdGhlckZvcmVjYXN0RGF0YShkb3VibGUgbGF0aXR1ZGUsIGRvdWJsZSBsb25naXR1ZGUpPC90ZXh0PjxlbGxpcHNlIGN4PSI3NzE3LjUiIGN5PSI4MjYuOTE0MSIgZmlsbD0iIzg0QkU4NCIgcng9IjMiIHJ5PSIzIiBzdHlsZT0ic3Ryb2tlOiMwMzgwNDg7c3Ryb2tlLXdpZHRoOjEuMDsiLz48dGV4dCBmaWxsPSIjMDAwMDAwIiBmb250LWZhbWlseT0ic2Fucy1zZXJpZiIgZm9udC1zaXplPSIxNCIgbGVuZ3RoQWRqdXN0PSJzcGFjaW5nIiB0ZXh0TGVuZ3RoPSIzODgiIHg9Ijc3MjYuNSIgeT0iODMxLjE1NjMiPnB1YmxpYyBCb29sZWFuIGNoZWNrQ3VycmVudFdlYXRoZXJEYXRhKFN0cmluZyBjaXR5TmFtZSk8L3RleHQ+PGVsbGlwc2UgY3g9Ijc3MTcuNSIgY3k9Ijg0MS44OTg0IiBmaWxsPSIjODRCRTg0IiByeD0iMyIgcnk9IjMiIHN0eWxlPSJzdHJva2U6IzAzODA0ODtzdHJva2Utd2lkdGg6MS4wOyIvPjx0ZXh0IGZpbGw9IiMwMDAwMDAiIGZvbnQtZmFtaWx5PSJzYW5zLXNlcmlmIiBmb250LXNpemU9IjE0IiBsZW5ndGhBZGp1c3Q9InNwYWNpbmciIHRleHRMZW5ndGg9IjM5NSIgeD0iNzcyNi41IiB5PSI4NDYuMTQwNiI+cHVibGljIEJvb2xlYW4gY2hlY2tXZWF0aGVyRm9yZWNhc3REYXRhKFN0cmluZyBjaXR5TmFtZSk8L3RleHQ+PGVsbGlwc2UgY3g9Ijc3MTcuNSIgY3k9Ijg1Ni44ODI4IiBmaWxsPSIjODRCRTg0IiByeD0iMyIgcnk9IjMiIHN0eWxlPSJzdHJva2U6IzAzODA0ODtzdHJva2Utd2lkdGg6MS4wOyIvPjx0ZXh0IGZpbGw9IiMwMDAwMDAiIGZvbnQtZmFtaWx5PSJzYW5zLXNlcmlmIiBmb250LXNpemU9IjE0IiBsZW5ndGhBZGp1c3Q9InNwYWNpbmciIHRleHRMZW5ndGg9IjM3NCIgeD0iNzcyNi41IiB5PSI4NjEuMTI1Ij5wdWJsaWMgQm9vbGVhbiBjaGVja0FpclBvbGx1dGlvbkRhdGEoU3RyaW5nIGNpdHlOYW1lKTwvdGV4dD48ZWxsaXBzZSBjeD0iNzcxNy41IiBjeT0iODcxLjg2NzIiIGZpbGw9IiM4NEJFODQiIHJ4PSIzIiByeT0iMyIgc3R5bGU9InN0cm9rZTojMDM4MDQ4O3N0cm9rZS13aWR0aDoxLjA7Ii8+PHRleHQgZmlsbD0iIzAwMDAwMCIgZm9udC1mYW1pbHk9InNhbnMtc2VyaWYiIGZvbnQtc2l6ZT0iMTQiIGxlbmd0aEFkanVzdD0ic3BhY2luZyIgdGV4dExlbmd0aD0iNjgxIiB4PSI3NzI2LjUiIHk9Ijg3Ni4xMDk0Ij5wdWJsaWMgdm9pZCBmZXRjaEFpclBvbGx1dGlvbkRhdGEoQWlyUG9sbHV0aW9uQVBJRGF0YSBBaXJQb2xsLCBkb3VibGUgbGF0aXR1ZGUsIGRvdWJsZSBsb25naXR1ZGUpPC90ZXh0PjxlbGxpcHNlIGN4PSI3NzE3LjUiIGN5PSI4ODYuODUxNiIgZmlsbD0iIzg0QkU4NCIgcng9IjMiIHJ5PSIzIiBzdHlsZT0ic3Ryb2tlOiMwMzgwNDg7c3Ryb2tlLXdpZHRoOjEuMDsiLz48dGV4dCBmaWxsPSIjMDAwMDAwIiBmb250LWZhbWlseT0ic2Fucy1zZXJpZiIgZm9udC1zaXplPSIxNCIgbGVuZ3RoQWRqdXN0PSJzcGFjaW5nIiB0ZXh0TGVuZ3RoPSI1NTYiIHg9Ijc3MjYuNSIgeT0iODkxLjA5MzgiPnB1YmxpYyB2b2lkIGZldGNoQWlyUG9sbHV0aW9uRGF0YShBaXJQb2xsdXRpb25BUElEYXRhIEFpclBvbGwsIFN0cmluZyBjaXR5TmFtZSk8L3RleHQ+PGVsbGlwc2UgY3g9Ijc3MTcuNSIgY3k9IjkwMS44MzU5IiBmaWxsPSIjODRCRTg0IiByeD0iMyIgcnk9IjMiIHN0eWxlPSJzdHJva2U6IzAzODA0ODtzdHJva2Utd2lkdGg6MS4wOyIvPjx0ZXh0IGZpbGw9IiMwMDAwMDAiIGZvbnQtZmFtaWx5PSJzYW5zLXNlcmlmIiBmb250LXNpemU9IjE0IiBsZW5ndGhBZGp1c3Q9InNwYWNpbmciIHRleHRMZW5ndGg9IjEzOTAiIHg9Ijc3MjYuNSIgeT0iOTA2LjA3ODEiPnByaXZhdGUgdm9pZCBwb3B1bGF0ZUFpclBvbGx1dGlvbkRhdGEoQWlyUG9sbHV0aW9uQVBJRGF0YSBhaXJQb2xsdXRpb25EYXRhLCBTdHJpbmcgZGF0YSkrIHB1YmxpYyB2b2lkIGZldGNoQ3VycmVudFdlYXRoZXJEYXRhKEN1cnJlbnRXZWF0aGVyQVBJRGF0YSBDdXJyZW50V2VhdGhlciwgZG91YmxlIGxhdGl0dWRlLCBkb3VibGUgbG9uZ2l0dWRlKTwvdGV4dD48ZWxsaXBzZSBjeD0iNzcxNy41IiBjeT0iOTE2LjgyMDMiIGZpbGw9IiM4NEJFODQiIHJ4PSIzIiByeT0iMyIgc3R5bGU9InN0cm9rZTojMDM4MDQ4O3N0cm9rZS13aWR0aDoxLjA7Ii8+PHRleHQgZmlsbD0iIzAwMDAwMCIgZm9udC1mYW1pbHk9InNhbnMtc2VyaWYiIGZvbnQtc2l6ZT0iMTQiIGxlbmd0aEFkanVzdD0ic3BhY2luZyIgdGV4dExlbmd0aD0iNjMyIiB4PSI3NzI2LjUiIHk9IjkyMS4wNjI1Ij5wcml2YXRlIHZvaWQgcG9wdWxhdGVDdXJyZW50V2VhdGhlckRhdGEoQ3VycmVudFdlYXRoZXJBUElEYXRhIGN1cnJlbnRXZWF0aGVyLCBTdHJpbmcgZGF0YSk8L3RleHQ+PGVsbGlwc2UgY3g9Ijc3MTcuNSIgY3k9IjkzMS44MDQ3IiBmaWxsPSIjODRCRTg0IiByeD0iMyIgcnk9IjMiIHN0eWxlPSJzdHJva2U6IzAzODA0ODtzdHJva2Utd2lkdGg6MS4wOyIvPjx0ZXh0IGZpbGw9IiMwMDAwMDAiIGZvbnQtZmFtaWx5PSJzYW5zLXNlcmlmIiBmb250LXNpemU9IjE0IiBsZW5ndGhBZGp1c3Q9InNwYWNpbmciIHRleHRMZW5ndGg9IjczMCIgeD0iNzcyNi41IiB5PSI5MzYuMDQ2OSI+cHVibGljIHZvaWQgZmV0Y2hXZWF0aGVyRm9yZWNhc3REYXRhKFdlYXRoZXJGb3JlY2FzdEFQSURhdGEgRm9yZWNhc3QsIGRvdWJsZSBsYXRpdHVkZSwgZG91YmxlIGxvbmdpdHVkZSk8L3RleHQ+PGVsbGlwc2UgY3g9Ijc3MTcuNSIgY3k9Ijk0Ni43ODkxIiBmaWxsPSIjODRCRTg0IiByeD0iMyIgcnk9IjMiIHN0eWxlPSJzdHJva2U6IzAzODA0ODtzdHJva2Utd2lkdGg6MS4wOyIvPjx0ZXh0IGZpbGw9IiMwMDAwMDAiIGZvbnQtZmFtaWx5PSJzYW5zLXNlcmlmIiBmb250LXNpemU9IjE0IiBsZW5ndGhBZGp1c3Q9InNwYWNpbmciIHRleHRMZW5ndGg9IjYwNSIgeD0iNzcyNi41IiB5PSI5NTEuMDMxMyI+cHVibGljIHZvaWQgZmV0Y2hXZWF0aGVyRm9yZWNhc3REYXRhKFdlYXRoZXJGb3JlY2FzdEFQSURhdGEgRm9yZWNhc3QsIFN0cmluZyBjaXR5TmFtZSk8L3RleHQ+PGVsbGlwc2UgY3g9Ijc3MTcuNSIgY3k9Ijk2MS43NzM0IiBmaWxsPSIjODRCRTg0IiByeD0iMyIgcnk9IjMiIHN0eWxlPSJzdHJva2U6IzAzODA0ODtzdHJva2Utd2lkdGg6MS4wOyIvPjx0ZXh0IGZpbGw9IiMwMDAwMDAiIGZvbnQtZmFtaWx5PSJzYW5zLXNlcmlmIiBmb250LXNpemU9IjE0IiBsZW5ndGhBZGp1c3Q9InNwYWNpbmciIHRleHRMZW5ndGg9IjYwNCIgeD0iNzcyNi41IiB5PSI5NjYuMDE1NiI+cHJpdmF0ZSB2b2lkIHBvcHVsYXRlV2VhdGhlckZvcmVjYXN0RGF0YShXZWF0aGVyRm9yZWNhc3RBUElEYXRhIGZvcmVjYXN0LCBTdHJpbmcgZGF0YSk8L3RleHQ+PGVsbGlwc2UgY3g9Ijc3MTcuNSIgY3k9Ijk3Ni43NTc4IiBmaWxsPSIjODRCRTg0IiByeD0iMyIgcnk9IjMiIHN0eWxlPSJzdHJva2U6IzAzODA0ODtzdHJva2Utd2lkdGg6MS4wOyIvPjx0ZXh0IGZpbGw9IiMwMDAwMDAiIGZvbnQtZmFtaWx5PSJzYW5zLXNlcmlmIiBmb250LXNpemU9IjE0IiBsZW5ndGhBZGp1c3Q9InNwYWNpbmciIHRleHRMZW5ndGg9IjUzNSIgeD0iNzcyNi41IiB5PSI5ODEiPnB1YmxpYyBCb29sZWFuIGNoZWNrRGF0YShTdHJpbmcgZmlsZW5hbWUsIGRvdWJsZSBsYXRpdHVkZSwgZG91YmxlIGxvbmdpdHVkZSk8L3RleHQ+PGVsbGlwc2UgY3g9Ijc3MTcuNSIgY3k9Ijk5MS43NDIyIiBmaWxsPSIjODRCRTg0IiByeD0iMyIgcnk9IjMiIHN0eWxlPSJzdHJva2U6IzAzODA0ODtzdHJva2Utd2lkdGg6MS4wOyIvPjx0ZXh0IGZpbGw9IiMwMDAwMDAiIGZvbnQtZmFtaWx5PSJzYW5zLXNlcmlmIiBmb250LXNpemU9IjE0IiBsZW5ndGhBZGp1c3Q9InNwYWNpbmciIHRleHRMZW5ndGg9IjQxMCIgeD0iNzcyNi41IiB5PSI5OTUuOTg0NCI+cHVibGljIEJvb2xlYW4gY2hlY2tEYXRhKFN0cmluZyBmaWxlbmFtZSwgU3RyaW5nIGNpdHlOYW1lKTwvdGV4dD48ZWxsaXBzZSBjeD0iNzcxNy41IiBjeT0iMTAwNi43MjY2IiBmaWxsPSIjODRCRTg0IiByeD0iMyIgcnk9IjMiIHN0eWxlPSJzdHJva2U6IzAzODA0ODtzdHJva2Utd2lkdGg6MS4wOyIvPjx0ZXh0IGZpbGw9IiMwMDAwMDAiIGZvbnQtZmFtaWx5PSJzYW5zLXNlcmlmIiBmb250LXNpemU9IjE0IiBsZW5ndGhBZGp1c3Q9InNwYWNpbmciIHRleHRMZW5ndGg9IjUyOCIgeD0iNzcyNi41IiB5PSIxMDEwLjk2ODgiPnB1YmxpYyBTdHJpbmcgRmV0Y2hEYXRhKFN0cmluZyBmaWxlbmFtZSwgZG91YmxlIGxhdGl0dWRlLCBkb3VibGUgbG9uZ2l0dWRlKTwvdGV4dD48ZWxsaXBzZSBjeD0iNzcxNy41IiBjeT0iMTAyMS43MTA5IiBmaWxsPSIjODRCRTg0IiByeD0iMyIgcnk9IjMiIHN0eWxlPSJzdHJva2U6IzAzODA0ODtzdHJva2Utd2lkdGg6MS4wOyIvPjx0ZXh0IGZpbGw9IiMwMDAwMDAiIGZvbnQtZmFtaWx5PSJzYW5zLXNlcmlmIiBmb250LXNpemU9IjE0IiBsZW5ndGhBZGp1c3Q9InNwYWNpbmciIHRleHRMZW5ndGg9IjQwMyIgeD0iNzcyNi41IiB5PSIxMDI1Ljk1MzEiPnB1YmxpYyBTdHJpbmcgRmV0Y2hEYXRhKFN0cmluZyBmaWxlbmFtZSwgU3RyaW5nIGNpdHlOYW1lKTwvdGV4dD48ZWxsaXBzZSBjeD0iNzcxNy41IiBjeT0iMTAzNi42OTUzIiBmaWxsPSIjODRCRTg0IiByeD0iMyIgcnk9IjMiIHN0eWxlPSJzdHJva2U6IzAzODA0ODtzdHJva2Utd2lkdGg6MS4wOyIvPjx0ZXh0IGZpbGw9IiMwMDAwMDAiIGZvbnQtZmFtaWx5PSJzYW5zLXNlcmlmIiBmb250LXNpemU9IjE0IiBsZW5ndGhBZGp1c3Q9InNwYWNpbmciIHRleHRMZW5ndGg9IjQ5OSIgeD0iNzcyNi41IiB5PSIxMDQwLjkzNzUiPnB1YmxpYyB2b2lkIHN0b3JlQWlyUG9sbHV0aW9uRGF0YShBaXJQb2xsdXRpb25BUElEYXRhIGFpclBvbGx1dGlvbkRhdGEpPC90ZXh0PjxlbGxpcHNlIGN4PSI3NzE3LjUiIGN5PSIxMDUxLjY3OTciIGZpbGw9IiM4NEJFODQiIHJ4PSIzIiByeT0iMyIgc3R5bGU9InN0cm9rZTojMDM4MDQ4O3N0cm9rZS13aWR0aDoxLjA7Ii8+PHRleHQgZmlsbD0iIzAwMDAwMCIgZm9udC1mYW1pbHk9InNhbnMtc2VyaWYiIGZvbnQtc2l6ZT0iMTQiIGxlbmd0aEFkanVzdD0ic3BhY2luZyIgdGV4dExlbmd0aD0iNTQxIiB4PSI3NzI2LjUiIHk9IjEwNTUuOTIxOSI+cHVibGljIHZvaWQgc3RvcmVDdXJyZW50V2VhdGhlckRhdGEoQ3VycmVudFdlYXRoZXJBUElEYXRhIGN1cnJlbnRXZWF0aGVyRGF0YSk8L3RleHQ+PGVsbGlwc2UgY3g9Ijc3MTcuNSIgY3k9IjEwNjYuNjY0MSIgZmlsbD0iIzg0QkU4NCIgcng9IjMiIHJ5PSIzIiBzdHlsZT0ic3Ryb2tlOiMwMzgwNDg7c3Ryb2tlLXdpZHRoOjEuMDsiLz48dGV4dCBmaWxsPSIjMDAwMDAwIiBmb250LWZhbWlseT0ic2Fucy1zZXJpZiIgZm9udC1zaXplPSIxNCIgbGVuZ3RoQWRqdXN0PSJzcGFjaW5nIiB0ZXh0TGVuZ3RoPSI0NTciIHg9Ijc3MjYuNSIgeT0iMTA3MC45MDYzIj5wdWJsaWMgdm9pZCBzdG9yZVdlYXRoZXJGb3JlY2FzdERhdGEoV2VhdGhlckZvcmVjYXN0QVBJRGF0YSBkYXRhKTwvdGV4dD48ZWxsaXBzZSBjeD0iNzcxNy41IiBjeT0iMTA4MS42NDg0IiBmaWxsPSIjODRCRTg0IiByeD0iMyIgcnk9IjMiIHN0eWxlPSJzdHJva2U6IzAzODA0ODtzdHJva2Utd2lkdGg6MS4wOyIvPjx0ZXh0IGZpbGw9IiMwMDAwMDAiIGZvbnQtZmFtaWx5PSJzYW5zLXNlcmlmIiBmb250LXNpemU9IjE0IiBsZW5ndGhBZGp1c3Q9InNwYWNpbmciIHRleHRMZW5ndGg9IjE5MSIgeD0iNzcyNi41IiB5PSIxMDg1Ljg5MDYiPnB1YmxpYyB2b2lkIGRlbGV0ZU9sZERhdGEoKTwvdGV4dD48L2c+PCEtLWNsYXNzIEpEQkMtLT48ZyBpZD0iZWxlbV9KREJDIj48cmVjdCBjb2RlTGluZT0iMjI1IiBmaWxsPSIjRjFGMUYxIiBoZWlnaHQ9Ijc3Ljk2ODgiIGlkPSJKREJDIiByeD0iMi41IiByeT0iMi41IiBzdHlsZT0ic3Ryb2tlOiMxODE4MTg7c3Ryb2tlLXdpZHRoOjAuNTsiIHdpZHRoPSI0NDkiIHg9IjgxOTAiIHk9IjI4NCIvPjxlbGxpcHNlIGN4PSI4Mzk1Ljc1IiBjeT0iMzAwIiBmaWxsPSIjQUREMUIyIiByeD0iMTEiIHJ5PSIxMSIgc3R5bGU9InN0cm9rZTojMTgxODE4O3N0cm9rZS13aWR0aDoxLjA7Ii8+PHBhdGggZD0iTTgzOTMuMzc1LDMwNC4yNSBMODM5My4zNzUsMzA2IEw4Mzk4LjMxMjUsMzA2IEw4Mzk4LjMxMjUsMzA0LjI1IEw4MzkzLjM3NSwzMDQuMjUgWiBNODM5NC4wNjI1LDMwNC45Mzc1IFE4Mzk0LjA2MjUsMzA0LjkzNzUgODM5NC4wNjI1LDI5NS43NSBMODM5Mi4zMTI1LDI5NS43NSBRODM5Mi4zMTI1LDI5NS43NSA4MzkyLjMxMjUsMzA0LjkzNzUgTDgzOTQuMDYyNSwzMDQuOTM3NSBaIE04Mzk3LjYyNSwzMDQuOTM3NSBMODM5OS4zNzUsMzA0LjkzNzUgUTgzOTkuMzc1LDMwNC45Mzc1IDgzOTkuMzc1LDMwMi4xMjUgTDgzOTcuNjI1LDMwMi4xMjUgUTgzOTcuNjI1LDMwMi4xMjUgODM5Ny42MjUsMzA0LjkzNzUgWiBNODM5Ny42MjUsMjk1Ljc1IFE4Mzk3LjYyNSwyOTUuNzUgODM5Ny42MjUsMjk4LjU2MjUgTDgzOTkuMzc1LDI5OC41NjI1IFE4Mzk5LjM3NSwyOTguNTYyNSA4Mzk5LjM3NSwyOTUuNzUgTDgzOTcuNjI1LDI5NS43NSBaIE04MzkzLjM3NSwyOTYuNDM3NSBMODM5OC4zMTI1LDI5Ni40Mzc1IEw4Mzk4LjMxMjUsMjk0LjY4NzUgTDgzOTMuMzc1LDI5NC42ODc1IEw4MzkzLjM3NSwyOTYuNDM3NSBaICIgZmlsbD0iIzAwMDAwMCIvPjx0ZXh0IGZpbGw9IiMwMDAwMDAiIGZvbnQtZmFtaWx5PSJzYW5zLXNlcmlmIiBmb250LXNpemU9IjE0IiBsZW5ndGhBZGp1c3Q9InNwYWNpbmciIHRleHRMZW5ndGg9IjI5IiB4PSI4NDE2LjI1IiB5PSIzMDUuNzQyMiI+SkRCQzwvdGV4dD48bGluZSBzdHlsZT0ic3Ryb2tlOiMxODE4MTg7c3Ryb2tlLXdpZHRoOjAuNTsiIHgxPSI4MTkxIiB4Mj0iODYzOCIgeTE9IjMxNiIgeTI9IjMxNiIvPjxlbGxpcHNlIGN4PSI4MjAxIiBjeT0iMzI4Ljk5MjIiIGZpbGw9Im5vbmUiIHJ4PSIzIiByeT0iMyIgc3R5bGU9InN0cm9rZTojMDM4MDQ4O3N0cm9rZS13aWR0aDoxLjA7Ii8+PHRleHQgZmlsbD0iIzAwMDAwMCIgZm9udC1mYW1pbHk9InNhbnMtc2VyaWYiIGZvbnQtc2l6ZT0iMTQiIGxlbmd0aEFkanVzdD0ic3BhY2luZyIgdGV4dExlbmd0aD0iMTk2IiB4PSI4MjEwIiB5PSIzMzMuMjM0NCI+cHVibGljIGNsYXNzIE15U1FMQ29ubmVjdGlvbjwvdGV4dD48bGluZSBzdHlsZT0ic3Ryb2tlOiMxODE4MTg7c3Ryb2tlLXdpZHRoOjAuNTsiIHgxPSI4MTkxIiB4Mj0iODYzOCIgeTE9IjMzOC45ODQ0IiB5Mj0iMzM4Ljk4NDQiLz48ZWxsaXBzZSBjeD0iODIwMSIgY3k9IjM1MS45NzY2IiBmaWxsPSIjODRCRTg0IiByeD0iMyIgcnk9IjMiIHN0eWxlPSJzdHJva2U6IzAzODA0ODtzdHJva2Utd2lkdGg6MS4wOyIvPjx0ZXh0IGZpbGw9IiMwMDAwMDAiIGZvbnQtZmFtaWx5PSJzYW5zLXNlcmlmIiBmb250LXNpemU9IjE0IiBsZW5ndGhBZGp1c3Q9InNwYWNpbmciIHRleHRMZW5ndGg9IjQyMyIgeD0iODIxMCIgeT0iMzU2LjIxODgiPnB1YmxpYyBzdGF0aWMgQ29ubmVjdGlvbiBnZXRDb25uZWN0aW9uKCkgdGhyb3dzIFNRTEV4Y2VwdGlvbjwvdGV4dD48L2c+PCEtLWNsYXNzIEFpclBvbGx1dGlvbkFQSURhdGEtLT48ZyBpZD0iZWxlbV9BaXJQb2xsdXRpb25BUElEYXRhIj48cmVjdCBmaWxsPSIjRjFGMUYxIiBoZWlnaHQ9IjQ4IiBpZD0iQWlyUG9sbHV0aW9uQVBJRGF0YSIgcng9IjIuNSIgcnk9IjIuNSIgc3R5bGU9InN0cm9rZTojMTgxODE4O3N0cm9rZS13aWR0aDowLjU7IiB3aWR0aD0iMTY1IiB4PSIyODEzIiB5PSIxNDQwIi8+PGVsbGlwc2UgY3g9IjI4MjgiIGN5PSIxNDU2IiBmaWxsPSIjQUREMUIyIiByeD0iMTEiIHJ5PSIxMSIgc3R5bGU9InN0cm9rZTojMTgxODE4O3N0cm9rZS13aWR0aDoxLjA7Ii8+PHBhdGggZD0iTTI4MjUuNjI1LDE0NjAuMjUgTDI4MjUuNjI1LDE0NjIgTDI4MzAuNTYyNSwxNDYyIEwyODMwLjU2MjUsMTQ2MC4yNSBMMjgyNS42MjUsMTQ2MC4yNSBaIE0yODI2LjMxMjUsMTQ2MC45Mzc1IFEyODI2LjMxMjUsMTQ2MC45Mzc1IDI4MjYuMzEyNSwxNDUxLjc1IEwyODI0LjU2MjUsMTQ1MS43NSBRMjgyNC41NjI1LDE0NTEuNzUgMjgyNC41NjI1LDE0NjAuOTM3NSBMMjgyNi4zMTI1LDE0NjAuOTM3NSBaIE0yODI5Ljg3NSwxNDYwLjkzNzUgTDI4MzEuNjI1LDE0NjAuOTM3NSBRMjgzMS42MjUsMTQ2MC45Mzc1IDI4MzEuNjI1LDE0NTguMTI1IEwyODI5Ljg3NSwxNDU4LjEyNSBRMjgyOS44NzUsMTQ1OC4xMjUgMjgyOS44NzUsMTQ2MC45Mzc1IFogTTI4MjkuODc1LDE0NTEuNzUgUTI4MjkuODc1LDE0NTEuNzUgMjgyOS44NzUsMTQ1NC41NjI1IEwyODMxLjYyNSwxNDU0LjU2MjUgUTI4MzEuNjI1LDE0NTQuNTYyNSAyODMxLjYyNSwxNDUxLjc1IEwyODI5Ljg3NSwxNDUxLjc1IFogTTI4MjUuNjI1LDE0NTIuNDM3NSBMMjgzMC41NjI1LDE0NTIuNDM3NSBMMjgzMC41NjI1LDE0NTAuNjg3NSBMMjgyNS42MjUsMTQ1MC42ODc1IEwyODI1LjYyNSwxNDUyLjQzNzUgWiAiIGZpbGw9IiMwMDAwMDAiLz48dGV4dCBmaWxsPSIjMDAwMDAwIiBmb250LWZhbWlseT0ic2Fucy1zZXJpZiIgZm9udC1zaXplPSIxNCIgbGVuZ3RoQWRqdXN0PSJzcGFjaW5nIiB0ZXh0TGVuZ3RoPSIxMzMiIHg9IjI4NDIiIHk9IjE0NjEuNzQyMiI+QWlyUG9sbHV0aW9uQVBJRGF0YTwvdGV4dD48bGluZSBzdHlsZT0ic3Ryb2tlOiMxODE4MTg7c3Ryb2tlLXdpZHRoOjAuNTsiIHgxPSIyODE0IiB4Mj0iMjk3NyIgeTE9IjE0NzIiIHkyPSIxNDcyIi8+PGxpbmUgc3R5bGU9InN0cm9rZTojMTgxODE4O3N0cm9rZS13aWR0aDowLjU7IiB4MT0iMjgxNCIgeDI9IjI5NzciIHkxPSIxNDgwIiB5Mj0iMTQ4MCIvPjwvZz48IS0tY2xhc3MgRFVJRmlsbGVyLS0+PGcgaWQ9ImVsZW1fRFVJRmlsbGVyIj48cmVjdCBmaWxsPSIjRjFGMUYxIiBoZWlnaHQ9IjQ4IiBpZD0iRFVJRmlsbGVyIiByeD0iMi41IiByeT0iMi41IiBzdHlsZT0ic3Ryb2tlOiMxODE4MTg7c3Ryb2tlLXdpZHRoOjAuNTsiIHdpZHRoPSI5NSIgeD0iNTY4MyIgeT0iODcxLjUiLz48ZWxsaXBzZSBjeD0iNTY5OCIgY3k9Ijg4Ny41IiBmaWxsPSIjQUREMUIyIiByeD0iMTEiIHJ5PSIxMSIgc3R5bGU9InN0cm9rZTojMTgxODE4O3N0cm9rZS13aWR0aDoxLjA7Ii8+PHBhdGggZD0iTTU2OTUuNjI1LDg5MS43NSBMNTY5NS42MjUsODkzLjUgTDU3MDAuNTYyNSw4OTMuNSBMNTcwMC41NjI1LDg5MS43NSBMNTY5NS42MjUsODkxLjc1IFogTTU2OTYuMzEyNSw4OTIuNDM3NSBRNTY5Ni4zMTI1LDg5Mi40Mzc1IDU2OTYuMzEyNSw4ODMuMjUgTDU2OTQuNTYyNSw4ODMuMjUgUTU2OTQuNTYyNSw4ODMuMjUgNTY5NC41NjI1LDg5Mi40Mzc1IEw1Njk2LjMxMjUsODkyLjQzNzUgWiBNNTY5OS44NzUsODkyLjQzNzUgTDU3MDEuNjI1LDg5Mi40Mzc1IFE1NzAxLjYyNSw4OTIuNDM3NSA1NzAxLjYyNSw4ODkuNjI1IEw1Njk5Ljg3NSw4ODkuNjI1IFE1Njk5Ljg3NSw4ODkuNjI1IDU2OTkuODc1LDg5Mi40Mzc1IFogTTU2OTkuODc1LDg4My4yNSBRNTY5OS44NzUsODgzLjI1IDU2OTkuODc1LDg4Ni4wNjI1IEw1NzAxLjYyNSw4ODYuMDYyNSBRNTcwMS42MjUsODg2LjA2MjUgNTcwMS42MjUsODgzLjI1IEw1Njk5Ljg3NSw4ODMuMjUgWiBNNTY5NS42MjUsODgzLjkzNzUgTDU3MDAuNTYyNSw4ODMuOTM3NSBMNTcwMC41NjI1LDg4Mi4xODc1IEw1Njk1LjYyNSw4ODIuMTg3NSBMNTY5NS42MjUsODgzLjkzNzUgWiAiIGZpbGw9IiMwMDAwMDAiLz48dGV4dCBmaWxsPSIjMDAwMDAwIiBmb250LWZhbWlseT0ic2Fucy1zZXJpZiIgZm9udC1zaXplPSIxNCIgbGVuZ3RoQWRqdXN0PSJzcGFjaW5nIiB0ZXh0TGVuZ3RoPSI2MyIgeD0iNTcxMiIgeT0iODkzLjI0MjIiPkRVSUZpbGxlcjwvdGV4dD48bGluZSBzdHlsZT0ic3Ryb2tlOiMxODE4MTg7c3Ryb2tlLXdpZHRoOjAuNTsiIHgxPSI1Njg0IiB4Mj0iNTc3NyIgeTE9IjkwMy41IiB5Mj0iOTAzLjUiLz48bGluZSBzdHlsZT0ic3Ryb2tlOiMxODE4MTg7c3Ryb2tlLXdpZHRoOjAuNTsiIHgxPSI1Njg0IiB4Mj0iNTc3NyIgeTE9IjkxMS41IiB5Mj0iOTExLjUiLz48L2c+PCEtLWNsYXNzIEFpclBvbGx1dGlvbkFQSS0tPjxnIGlkPSJlbGVtX0FpclBvbGx1dGlvbkFQSSI+PHJlY3QgZmlsbD0iI0YxRjFGMSIgaGVpZ2h0PSI0OCIgaWQ9IkFpclBvbGx1dGlvbkFQSSIgcng9IjIuNSIgcnk9IjIuNSIgc3R5bGU9InN0cm9rZTojMTgxODE4O3N0cm9rZS13aWR0aDowLjU7IiB3aWR0aD0iMTM3IiB4PSI2MTE0IiB5PSI4NzEuNSIvPjxlbGxpcHNlIGN4PSI2MTI5IiBjeT0iODg3LjUiIGZpbGw9IiNBREQxQjIiIHJ4PSIxMSIgcnk9IjExIiBzdHlsZT0ic3Ryb2tlOiMxODE4MTg7c3Ryb2tlLXdpZHRoOjEuMDsiLz48cGF0aCBkPSJNNjEyNi42MjUsODkxLjc1IEw2MTI2LjYyNSw4OTMuNSBMNjEzMS41NjI1LDg5My41IEw2MTMxLjU2MjUsODkxLjc1IEw2MTI2LjYyNSw4OTEuNzUgWiBNNjEyNy4zMTI1LDg5Mi40Mzc1IFE2MTI3LjMxMjUsODkyLjQzNzUgNjEyNy4zMTI1LDg4My4yNSBMNjEyNS41NjI1LDg4My4yNSBRNjEyNS41NjI1LDg4My4yNSA2MTI1LjU2MjUsODkyLjQzNzUgTDYxMjcuMzEyNSw4OTIuNDM3NSBaIE02MTMwLjg3NSw4OTIuNDM3NSBMNjEzMi42MjUsODkyLjQzNzUgUTYxMzIuNjI1LDg5Mi40Mzc1IDYxMzIuNjI1LDg4OS42MjUgTDYxMzAuODc1LDg4OS42MjUgUTYxMzAuODc1LDg4OS42MjUgNjEzMC44NzUsODkyLjQzNzUgWiBNNjEzMC44NzUsODgzLjI1IFE2MTMwLjg3NSw4ODMuMjUgNjEzMC44NzUsODg2LjA2MjUgTDYxMzIuNjI1LDg4Ni4wNjI1IFE2MTMyLjYyNSw4ODYuMDYyNSA2MTMyLjYyNSw4ODMuMjUgTDYxMzAuODc1LDg4My4yNSBaIE02MTI2LjYyNSw4ODMuOTM3NSBMNjEzMS41NjI1LDg4My45Mzc1IEw2MTMxLjU2MjUsODgyLjE4NzUgTDYxMjYuNjI1LDg4Mi4xODc1IEw2MTI2LjYyNSw4ODMuOTM3NSBaICIgZmlsbD0iIzAwMDAwMCIvPjx0ZXh0IGZpbGw9IiMwMDAwMDAiIGZvbnQtZmFtaWx5PSJzYW5zLXNlcmlmIiBmb250LXNpemU9IjE0IiBsZW5ndGhBZGp1c3Q9InNwYWNpbmciIHRleHRMZW5ndGg9IjEwNSIgeD0iNjE0MyIgeT0iODkzLjI0MjIiPkFpclBvbGx1dGlvbkFQSTwvdGV4dD48bGluZSBzdHlsZT0ic3Ryb2tlOiMxODE4MTg7c3Ryb2tlLXdpZHRoOjAuNTsiIHgxPSI2MTE1IiB4Mj0iNjI1MCIgeTE9IjkwMy41IiB5Mj0iOTAzLjUiLz48bGluZSBzdHlsZT0ic3Ryb2tlOiMxODE4MTg7c3Ryb2tlLXdpZHRoOjAuNTsiIHgxPSI2MTE1IiB4Mj0iNjI1MCIgeTE9IjkxMS41IiB5Mj0iOTExLjUiLz48L2c+PCEtLWNsYXNzIEN1cnJlbnRXZWF0aGVyQVBJLS0+PGcgaWQ9ImVsZW1fQ3VycmVudFdlYXRoZXJBUEkiPjxyZWN0IGZpbGw9IiNGMUYxRjEiIGhlaWdodD0iNDgiIGlkPSJDdXJyZW50V2VhdGhlckFQSSIgcng9IjIuNSIgcnk9IjIuNSIgc3R5bGU9InN0cm9rZTojMTgxODE4O3N0cm9rZS13aWR0aDowLjU7IiB3aWR0aD0iMTUxIiB4PSI2Mjg2IiB5PSI4NzEuNSIvPjxlbGxpcHNlIGN4PSI2MzAxIiBjeT0iODg3LjUiIGZpbGw9IiNBREQxQjIiIHJ4PSIxMSIgcnk9IjExIiBzdHlsZT0ic3Ryb2tlOiMxODE4MTg7c3Ryb2tlLXdpZHRoOjEuMDsiLz48cGF0aCBkPSJNNjI5OC42MjUsODkxLjc1IEw2Mjk4LjYyNSw4OTMuNSBMNjMwMy41NjI1LDg5My41IEw2MzAzLjU2MjUsODkxLjc1IEw2Mjk4LjYyNSw4OTEuNzUgWiBNNjI5OS4zMTI1LDg5Mi40Mzc1IFE2Mjk5LjMxMjUsODkyLjQzNzUgNjI5OS4zMTI1LDg4My4yNSBMNjI5Ny41NjI1LDg4My4yNSBRNjI5Ny41NjI1LDg4My4yNSA2Mjk3LjU2MjUsODkyLjQzNzUgTDYyOTkuMzEyNSw4OTIuNDM3NSBaIE02MzAyLjg3NSw4OTIuNDM3NSBMNjMwNC42MjUsODkyLjQzNzUgUTYzMDQuNjI1LDg5Mi40Mzc1IDYzMDQuNjI1LDg4OS42MjUgTDYzMDIuODc1LDg4OS42MjUgUTYzMDIuODc1LDg4OS42MjUgNjMwMi44NzUsODkyLjQzNzUgWiBNNjMwMi44NzUsODgzLjI1IFE2MzAyLjg3NSw4ODMuMjUgNjMwMi44NzUsODg2LjA2MjUgTDYzMDQuNjI1LDg4Ni4wNjI1IFE2MzA0LjYyNSw4ODYuMDYyNSA2MzA0LjYyNSw4ODMuMjUgTDYzMDIuODc1LDg4My4yNSBaIE02Mjk4LjYyNSw4ODMuOTM3NSBMNjMwMy41NjI1LDg4My45Mzc1IEw2MzAzLjU2MjUsODgyLjE4NzUgTDYyOTguNjI1LDg4Mi4xODc1IEw2Mjk4LjYyNSw4ODMuOTM3NSBaICIgZmlsbD0iIzAwMDAwMCIvPjx0ZXh0IGZpbGw9IiMwMDAwMDAiIGZvbnQtZmFtaWx5PSJzYW5zLXNlcmlmIiBmb250LXNpemU9IjE0IiBsZW5ndGhBZGp1c3Q9InNwYWNpbmciIHRleHRMZW5ndGg9IjExOSIgeD0iNjMxNSIgeT0iODkzLjI0MjIiPkN1cnJlbnRXZWF0aGVyQVBJPC90ZXh0PjxsaW5lIHN0eWxlPSJzdHJva2U6IzE4MTgxODtzdHJva2Utd2lkdGg6MC41OyIgeDE9IjYyODciIHgyPSI2NDM2IiB5MT0iOTAzLjUiIHkyPSI5MDMuNSIvPjxsaW5lIHN0eWxlPSJzdHJva2U6IzE4MTgxODtzdHJva2Utd2lkdGg6MC41OyIgeDE9IjYyODciIHgyPSI2NDM2IiB5MT0iOTExLjUiIHkyPSI5MTEuNSIvPjwvZz48IS0tY2xhc3MgV2VhdGhlckZvcmVjYXN0NURheXMtLT48ZyBpZD0iZWxlbV9XZWF0aGVyRm9yZWNhc3Q1RGF5cyI+PHJlY3QgZmlsbD0iI0YxRjFGMSIgaGVpZ2h0PSI0OCIgaWQ9IldlYXRoZXJGb3JlY2FzdDVEYXlzIiByeD0iMi41IiByeT0iMi41IiBzdHlsZT0ic3Ryb2tlOiMxODE4MTg7c3Ryb2tlLXdpZHRoOjAuNTsiIHdpZHRoPSIxNzIiIHg9IjY0NzIuNSIgeT0iODcxLjUiLz48ZWxsaXBzZSBjeD0iNjQ4Ny41IiBjeT0iODg3LjUiIGZpbGw9IiNBREQxQjIiIHJ4PSIxMSIgcnk9IjExIiBzdHlsZT0ic3Ryb2tlOiMxODE4MTg7c3Ryb2tlLXdpZHRoOjEuMDsiLz48cGF0aCBkPSJNNjQ4NS4xMjUsODkxLjc1IEw2NDg1LjEyNSw4OTMuNSBMNjQ5MC4wNjI1LDg5My41IEw2NDkwLjA2MjUsODkxLjc1IEw2NDg1LjEyNSw4OTEuNzUgWiBNNjQ4NS44MTI1LDg5Mi40Mzc1IFE2NDg1LjgxMjUsODkyLjQzNzUgNjQ4NS44MTI1LDg4My4yNSBMNjQ4NC4wNjI1LDg4My4yNSBRNjQ4NC4wNjI1LDg4My4yNSA2NDg0LjA2MjUsODkyLjQzNzUgTDY0ODUuODEyNSw4OTIuNDM3NSBaIE02NDg5LjM3NSw4OTIuNDM3NSBMNjQ5MS4xMjUsODkyLjQzNzUgUTY0OTEuMTI1LDg5Mi40Mzc1IDY0OTEuMTI1LDg4OS42MjUgTDY0ODkuMzc1LDg4OS42MjUgUTY0ODkuMzc1LDg4OS42MjUgNjQ4OS4zNzUsODkyLjQzNzUgWiBNNjQ4OS4zNzUsODgzLjI1IFE2NDg5LjM3NSw4ODMuMjUgNjQ4OS4zNzUsODg2LjA2MjUgTDY0OTEuMTI1LDg4Ni4wNjI1IFE2NDkxLjEyNSw4ODYuMDYyNSA2NDkxLjEyNSw4ODMuMjUgTDY0ODkuMzc1LDg4My4yNSBaIE02NDg1LjEyNSw4ODMuOTM3NSBMNjQ5MC4wNjI1LDg4My45Mzc1IEw2NDkwLjA2MjUsODgyLjE4NzUgTDY0ODUuMTI1LDg4Mi4xODc1IEw2NDg1LjEyNSw4ODMuOTM3NSBaICIgZmlsbD0iIzAwMDAwMCIvPjx0ZXh0IGZpbGw9IiMwMDAwMDAiIGZvbnQtZmFtaWx5PSJzYW5zLXNlcmlmIiBmb250LXNpemU9IjE0IiBsZW5ndGhBZGp1c3Q9InNwYWNpbmciIHRleHRMZW5ndGg9IjE0MCIgeD0iNjUwMS41IiB5PSI4OTMuMjQyMiI+V2VhdGhlckZvcmVjYXN0NURheXM8L3RleHQ+PGxpbmUgc3R5bGU9InN0cm9rZTojMTgxODE4O3N0cm9rZS13aWR0aDowLjU7IiB4MT0iNjQ3My41IiB4Mj0iNjY0My41IiB5MT0iOTAzLjUiIHkyPSI5MDMuNSIvPjxsaW5lIHN0eWxlPSJzdHJva2U6IzE4MTgxODtzdHJva2Utd2lkdGg6MC41OyIgeDE9IjY0NzMuNSIgeDI9IjY2NDMuNSIgeTE9IjkxMS41IiB5Mj0iOTExLjUiLz48L2c+PCEtLWNsYXNzIERCQWlyUG9sbERhdC0tPjxnIGlkPSJlbGVtX0RCQWlyUG9sbERhdCI+PHJlY3QgZmlsbD0iI0YxRjFGMSIgaGVpZ2h0PSI0OCIgaWQ9IkRCQWlyUG9sbERhdCIgcng9IjIuNSIgcnk9IjIuNSIgc3R5bGU9InN0cm9rZTojMTgxODE4O3N0cm9rZS13aWR0aDowLjU7IiB3aWR0aD0iMTE2IiB4PSI2ODU4LjUiIHk9IjEyNDIiLz48ZWxsaXBzZSBjeD0iNjg3My41IiBjeT0iMTI1OCIgZmlsbD0iI0FERDFCMiIgcng9IjExIiByeT0iMTEiIHN0eWxlPSJzdHJva2U6IzE4MTgxODtzdHJva2Utd2lkdGg6MS4wOyIvPjxwYXRoIGQ9Ik02ODcxLjEyNSwxMjYyLjI1IEw2ODcxLjEyNSwxMjY0IEw2ODc2LjA2MjUsMTI2NCBMNjg3Ni4wNjI1LDEyNjIuMjUgTDY4NzEuMTI1LDEyNjIuMjUgWiBNNjg3MS44MTI1LDEyNjIuOTM3NSBRNjg3MS44MTI1LDEyNjIuOTM3NSA2ODcxLjgxMjUsMTI1My43NSBMNjg3MC4wNjI1LDEyNTMuNzUgUTY4NzAuMDYyNSwxMjUzLjc1IDY4NzAuMDYyNSwxMjYyLjkzNzUgTDY4NzEuODEyNSwxMjYyLjkzNzUgWiBNNjg3NS4zNzUsMTI2Mi45Mzc1IEw2ODc3LjEyNSwxMjYyLjkzNzUgUTY4NzcuMTI1LDEyNjIuOTM3NSA2ODc3LjEyNSwxMjYwLjEyNSBMNjg3NS4zNzUsMTI2MC4xMjUgUTY4NzUuMzc1LDEyNjAuMTI1IDY4NzUuMzc1LDEyNjIuOTM3NSBaIE02ODc1LjM3NSwxMjUzLjc1IFE2ODc1LjM3NSwxMjUzLjc1IDY4NzUuMzc1LDEyNTYuNTYyNSBMNjg3Ny4xMjUsMTI1Ni41NjI1IFE2ODc3LjEyNSwxMjU2LjU2MjUgNjg3Ny4xMjUsMTI1My43NSBMNjg3NS4zNzUsMTI1My43NSBaIE02ODcxLjEyNSwxMjU0LjQzNzUgTDY4NzYuMDYyNSwxMjU0LjQzNzUgTDY4NzYuMDYyNSwxMjUyLjY4NzUgTDY4NzEuMTI1LDEyNTIuNjg3NSBMNjg3MS4xMjUsMTI1NC40Mzc1IFogIiBmaWxsPSIjMDAwMDAwIi8+PHRleHQgZmlsbD0iIzAwMDAwMCIgZm9udC1mYW1pbHk9InNhbnMtc2VyaWYiIGZvbnQtc2l6ZT0iMTQiIGxlbmd0aEFkanVzdD0ic3BhY2luZyIgdGV4dExlbmd0aD0iODQiIHg9IjY4ODcuNSIgeT0iMTI2My43NDIyIj5EQkFpclBvbGxEYXQ8L3RleHQ+PGxpbmUgc3R5bGU9InN0cm9rZTojMTgxODE4O3N0cm9rZS13aWR0aDowLjU7IiB4MT0iNjg1OS41IiB4Mj0iNjk3My41IiB5MT0iMTI3NCIgeTI9IjEyNzQiLz48bGluZSBzdHlsZT0ic3Ryb2tlOiMxODE4MTg7c3Ryb2tlLXdpZHRoOjAuNTsiIHgxPSI2ODU5LjUiIHgyPSI2OTczLjUiIHkxPSIxMjgyIiB5Mj0iMTI4MiIvPjwvZz48IS0tY2xhc3MgREJDdXJyV2VhdGhlci0tPjxnIGlkPSJlbGVtX0RCQ3VycldlYXRoZXIiPjxyZWN0IGZpbGw9IiNGMUYxRjEiIGhlaWdodD0iNDgiIGlkPSJEQkN1cnJXZWF0aGVyIiByeD0iMi41IiByeT0iMi41IiBzdHlsZT0ic3Ryb2tlOiMxODE4MTg7c3Ryb2tlLXdpZHRoOjAuNTsiIHdpZHRoPSIxMjMiIHg9IjcwMTAiIHk9IjEyNDIiLz48ZWxsaXBzZSBjeD0iNzAyNSIgY3k9IjEyNTgiIGZpbGw9IiNBREQxQjIiIHJ4PSIxMSIgcnk9IjExIiBzdHlsZT0ic3Ryb2tlOiMxODE4MTg7c3Ryb2tlLXdpZHRoOjEuMDsiLz48cGF0aCBkPSJNNzAyMi42MjUsMTI2Mi4yNSBMNzAyMi42MjUsMTI2NCBMNzAyNy41NjI1LDEyNjQgTDcwMjcuNTYyNSwxMjYyLjI1IEw3MDIyLjYyNSwxMjYyLjI1IFogTTcwMjMuMzEyNSwxMjYyLjkzNzUgUTcwMjMuMzEyNSwxMjYyLjkzNzUgNzAyMy4zMTI1LDEyNTMuNzUgTDcwMjEuNTYyNSwxMjUzLjc1IFE3MDIxLjU2MjUsMTI1My43NSA3MDIxLjU2MjUsMTI2Mi45Mzc1IEw3MDIzLjMxMjUsMTI2Mi45Mzc1IFogTTcwMjYuODc1LDEyNjIuOTM3NSBMNzAyOC42MjUsMTI2Mi45Mzc1IFE3MDI4LjYyNSwxMjYyLjkzNzUgNzAyOC42MjUsMTI2MC4xMjUgTDcwMjYuODc1LDEyNjAuMTI1IFE3MDI2Ljg3NSwxMjYwLjEyNSA3MDI2Ljg3NSwxMjYyLjkzNzUgWiBNNzAyNi44NzUsMTI1My43NSBRNzAyNi44NzUsMTI1My43NSA3MDI2Ljg3NSwxMjU2LjU2MjUgTDcwMjguNjI1LDEyNTYuNTYyNSBRNzAyOC42MjUsMTI1Ni41NjI1IDcwMjguNjI1LDEyNTMuNzUgTDcwMjYuODc1LDEyNTMuNzUgWiBNNzAyMi42MjUsMTI1NC40Mzc1IEw3MDI3LjU2MjUsMTI1NC40Mzc1IEw3MDI3LjU2MjUsMTI1Mi42ODc1IEw3MDIyLjYyNSwxMjUyLjY4NzUgTDcwMjIuNjI1LDEyNTQuNDM3NSBaICIgZmlsbD0iIzAwMDAwMCIvPjx0ZXh0IGZpbGw9IiMwMDAwMDAiIGZvbnQtZmFtaWx5PSJzYW5zLXNlcmlmIiBmb250LXNpemU9IjE0IiBsZW5ndGhBZGp1c3Q9InNwYWNpbmciIHRleHRMZW5ndGg9IjkxIiB4PSI3MDM5IiB5PSIxMjYzLjc0MjIiPkRCQ3VycldlYXRoZXI8L3RleHQ+PGxpbmUgc3R5bGU9InN0cm9rZTojMTgxODE4O3N0cm9rZS13aWR0aDowLjU7IiB4MT0iNzAxMSIgeDI9IjcxMzIiIHkxPSIxMjc0IiB5Mj0iMTI3NCIvPjxsaW5lIHN0eWxlPSJzdHJva2U6IzE4MTgxODtzdHJva2Utd2lkdGg6MC41OyIgeDE9IjcwMTEiIHgyPSI3MTMyIiB5MT0iMTI4MiIgeTI9IjEyODIiLz48L2c+PCEtLWNsYXNzIERCRnJjc3Q1RGF5LS0+PGcgaWQ9ImVsZW1fREJGcmNzdDVEYXkiPjxyZWN0IGZpbGw9IiNGMUYxRjEiIGhlaWdodD0iNDgiIGlkPSJEQkZyY3N0NURheSIgcng9IjIuNSIgcnk9IjIuNSIgc3R5bGU9InN0cm9rZTojMTgxODE4O3N0cm9rZS13aWR0aDowLjU7IiB3aWR0aD0iMTA5IiB4PSI3MTY4IiB5PSIxMjQyIi8+PGVsbGlwc2UgY3g9IjcxODMiIGN5PSIxMjU4IiBmaWxsPSIjQUREMUIyIiByeD0iMTEiIHJ5PSIxMSIgc3R5bGU9InN0cm9rZTojMTgxODE4O3N0cm9rZS13aWR0aDoxLjA7Ii8+PHBhdGggZD0iTTcxODAuNjI1LDEyNjIuMjUgTDcxODAuNjI1LDEyNjQgTDcxODUuNTYyNSwxMjY0IEw3MTg1LjU2MjUsMTI2Mi4yNSBMNzE4MC42MjUsMTI2Mi4yNSBaIE03MTgxLjMxMjUsMTI2Mi45Mzc1IFE3MTgxLjMxMjUsMTI2Mi45Mzc1IDcxODEuMzEyNSwxMjUzLjc1IEw3MTc5LjU2MjUsMTI1My43NSBRNzE3OS41NjI1LDEyNTMuNzUgNzE3OS41NjI1LDEyNjIuOTM3NSBMNzE4MS4zMTI1LDEyNjIuOTM3NSBaIE03MTg0Ljg3NSwxMjYyLjkzNzUgTDcxODYuNjI1LDEyNjIuOTM3NSBRNzE4Ni42MjUsMTI2Mi45Mzc1IDcxODYuNjI1LDEyNjAuMTI1IEw3MTg0Ljg3NSwxMjYwLjEyNSBRNzE4NC44NzUsMTI2MC4xMjUgNzE4NC44NzUsMTI2Mi45Mzc1IFogTTcxODQuODc1LDEyNTMuNzUgUTcxODQuODc1LDEyNTMuNzUgNzE4NC44NzUsMTI1Ni41NjI1IEw3MTg2LjYyNSwxMjU2LjU2MjUgUTcxODYuNjI1LDEyNTYuNTYyNSA3MTg2LjYyNSwxMjUzLjc1IEw3MTg0Ljg3NSwxMjUzLjc1IFogTTcxODAuNjI1LDEyNTQuNDM3NSBMNzE4NS41NjI1LDEyNTQuNDM3NSBMNzE4NS41NjI1LDEyNTIuNjg3NSBMNzE4MC42MjUsMTI1Mi42ODc1IEw3MTgwLjYyNSwxMjU0LjQzNzUgWiAiIGZpbGw9IiMwMDAwMDAiLz48dGV4dCBmaWxsPSIjMDAwMDAwIiBmb250LWZhbWlseT0ic2Fucy1zZXJpZiIgZm9udC1zaXplPSIxNCIgbGVuZ3RoQWRqdXN0PSJzcGFjaW5nIiB0ZXh0TGVuZ3RoPSI3NyIgeD0iNzE5NyIgeT0iMTI2My43NDIyIj5EQkZyY3N0NURheTwvdGV4dD48bGluZSBzdHlsZT0ic3Ryb2tlOiMxODE4MTg7c3Ryb2tlLXdpZHRoOjAuNTsiIHgxPSI3MTY5IiB4Mj0iNzI3NiIgeTE9IjEyNzQiIHkyPSIxMjc0Ii8+PGxpbmUgc3R5bGU9InN0cm9rZTojMTgxODE4O3N0cm9rZS13aWR0aDowLjU7IiB4MT0iNzE2OSIgeDI9IjcyNzYiIHkxPSIxMjgyIiB5Mj0iMTI4MiIvPjwvZz48IS0tY2xhc3MgY3JlYXRlVGFibGVzLS0+PGcgaWQ9ImVsZW1fY3JlYXRlVGFibGVzIj48cmVjdCBmaWxsPSIjRjFGMUYxIiBoZWlnaHQ9IjQ4IiBpZD0iY3JlYXRlVGFibGVzIiByeD0iMi41IiByeT0iMi41IiBzdHlsZT0ic3Ryb2tlOiMxODE4MTg7c3Ryb2tlLXdpZHRoOjAuNTsiIHdpZHRoPSIxMTYiIHg9Ijc1NTUuNSIgeT0iODcxLjUiLz48ZWxsaXBzZSBjeD0iNzU3MC41IiBjeT0iODg3LjUiIGZpbGw9IiNBREQxQjIiIHJ4PSIxMSIgcnk9IjExIiBzdHlsZT0ic3Ryb2tlOiMxODE4MTg7c3Ryb2tlLXdpZHRoOjEuMDsiLz48cGF0aCBkPSJNNzU2OC4xMjUsODkxLjc1IEw3NTY4LjEyNSw4OTMuNSBMNzU3My4wNjI1LDg5My41IEw3NTczLjA2MjUsODkxLjc1IEw3NTY4LjEyNSw4OTEuNzUgWiBNNzU2OC44MTI1LDg5Mi40Mzc1IFE3NTY4LjgxMjUsODkyLjQzNzUgNzU2OC44MTI1LDg4My4yNSBMNzU2Ny4wNjI1LDg4My4yNSBRNzU2Ny4wNjI1LDg4My4yNSA3NTY3LjA2MjUsODkyLjQzNzUgTDc1NjguODEyNSw4OTIuNDM3NSBaIE03NTcyLjM3NSw4OTIuNDM3NSBMNzU3NC4xMjUsODkyLjQzNzUgUTc1NzQuMTI1LDg5Mi40Mzc1IDc1NzQuMTI1LDg4OS42MjUgTDc1NzIuMzc1LDg4OS42MjUgUTc1NzIuMzc1LDg4OS42MjUgNzU3Mi4zNzUsODkyLjQzNzUgWiBNNzU3Mi4zNzUsODgzLjI1IFE3NTcyLjM3NSw4ODMuMjUgNzU3Mi4zNzUsODg2LjA2MjUgTDc1NzQuMTI1LDg4Ni4wNjI1IFE3NTc0LjEyNSw4ODYuMDYyNSA3NTc0LjEyNSw4ODMuMjUgTDc1NzIuMzc1LDg4My4yNSBaIE03NTY4LjEyNSw4ODMuOTM3NSBMNzU3My4wNjI1LDg4My45Mzc1IEw3NTczLjA2MjUsODgyLjE4NzUgTDc1NjguMTI1LDg4Mi4xODc1IEw3NTY4LjEyNSw4ODMuOTM3NSBaICIgZmlsbD0iIzAwMDAwMCIvPjx0ZXh0IGZpbGw9IiMwMDAwMDAiIGZvbnQtZmFtaWx5PSJzYW5zLXNlcmlmIiBmb250LXNpemU9IjE0IiBsZW5ndGhBZGp1c3Q9InNwYWNpbmciIHRleHRMZW5ndGg9Ijg0IiB4PSI3NTg0LjUiIHk9Ijg5My4yNDIyIj5jcmVhdGVUYWJsZXM8L3RleHQ+PGxpbmUgc3R5bGU9InN0cm9rZTojMTgxODE4O3N0cm9rZS13aWR0aDowLjU7IiB4MT0iNzU1Ni41IiB4Mj0iNzY3MC41IiB5MT0iOTAzLjUiIHkyPSI5MDMuNSIvPjxsaW5lIHN0eWxlPSJzdHJva2U6IzE4MTgxODtzdHJva2Utd2lkdGg6MC41OyIgeDE9Ijc1NTYuNSIgeDI9Ijc2NzAuNSIgeTE9IjkxMS41IiB5Mj0iOTExLjUiLz48L2c+PCEtLWNsYXNzIERhdGFIYW5kbGluZ1R4VC0tPjxnIGlkPSJlbGVtX0RhdGFIYW5kbGluZ1R4VCI+PHJlY3QgZmlsbD0iI0YxRjFGMSIgaGVpZ2h0PSI0OCIgaWQ9IkRhdGFIYW5kbGluZ1R4VCIgcng9IjIuNSIgcnk9IjIuNSIgc3R5bGU9InN0cm9rZTojMTgxODE4O3N0cm9rZS13aWR0aDowLjU7IiB3aWR0aD0iMTM3IiB4PSI4MjQ5IiB5PSIxMjQyIi8+PGVsbGlwc2UgY3g9IjgyNjQiIGN5PSIxMjU4IiBmaWxsPSIjQUREMUIyIiByeD0iMTEiIHJ5PSIxMSIgc3R5bGU9InN0cm9rZTojMTgxODE4O3N0cm9rZS13aWR0aDoxLjA7Ii8+PHBhdGggZD0iTTgyNjEuNjI1LDEyNjIuMjUgTDgyNjEuNjI1LDEyNjQgTDgyNjYuNTYyNSwxMjY0IEw4MjY2LjU2MjUsMTI2Mi4yNSBMODI2MS42MjUsMTI2Mi4yNSBaIE04MjYyLjMxMjUsMTI2Mi45Mzc1IFE4MjYyLjMxMjUsMTI2Mi45Mzc1IDgyNjIuMzEyNSwxMjUzLjc1IEw4MjYwLjU2MjUsMTI1My43NSBRODI2MC41NjI1LDEyNTMuNzUgODI2MC41NjI1LDEyNjIuOTM3NSBMODI2Mi4zMTI1LDEyNjIuOTM3NSBaIE04MjY1Ljg3NSwxMjYyLjkzNzUgTDgyNjcuNjI1LDEyNjIuOTM3NSBRODI2Ny42MjUsMTI2Mi45Mzc1IDgyNjcuNjI1LDEyNjAuMTI1IEw4MjY1Ljg3NSwxMjYwLjEyNSBRODI2NS44NzUsMTI2MC4xMjUgODI2NS44NzUsMTI2Mi45Mzc1IFogTTgyNjUuODc1LDEyNTMuNzUgUTgyNjUuODc1LDEyNTMuNzUgODI2NS44NzUsMTI1Ni41NjI1IEw4MjY3LjYyNSwxMjU2LjU2MjUgUTgyNjcuNjI1LDEyNTYuNTYyNSA4MjY3LjYyNSwxMjUzLjc1IEw4MjY1Ljg3NSwxMjUzLjc1IFogTTgyNjEuNjI1LDEyNTQuNDM3NSBMODI2Ni41NjI1LDEyNTQuNDM3NSBMODI2Ni41NjI1LDEyNTIuNjg3NSBMODI2MS42MjUsMTI1Mi42ODc1IEw4MjYxLjYyNSwxMjU0LjQzNzUgWiAiIGZpbGw9IiMwMDAwMDAiLz48dGV4dCBmaWxsPSIjMDAwMDAwIiBmb250LWZhbWlseT0ic2Fucy1zZXJpZiIgZm9udC1zaXplPSIxNCIgbGVuZ3RoQWRqdXN0PSJzcGFjaW5nIiB0ZXh0TGVuZ3RoPSIxMDUiIHg9IjgyNzgiIHk9IjEyNjMuNzQyMiI+RGF0YUhhbmRsaW5nVHhUPC90ZXh0PjxsaW5lIHN0eWxlPSJzdHJva2U6IzE4MTgxODtzdHJva2Utd2lkdGg6MC41OyIgeDE9IjgyNTAiIHgyPSI4Mzg1IiB5MT0iMTI3NCIgeTI9IjEyNzQiLz48bGluZSBzdHlsZT0ic3Ryb2tlOiMxODE4MTg7c3Ryb2tlLXdpZHRoOjAuNTsiIHgxPSI4MjUwIiB4Mj0iODM4NSIgeTE9IjEyODIiIHkyPSIxMjgyIi8+PC9nPjwhLS1jbGFzcyBXZWF0aGVyRGF0YVR4dFN0b3JhZ2UtLT48ZyBpZD0iZWxlbV9XZWF0aGVyRGF0YVR4dFN0b3JhZ2UiPjxyZWN0IGZpbGw9IiNGMUYxRjEiIGhlaWdodD0iNDgiIGlkPSJXZWF0aGVyRGF0YVR4dFN0b3JhZ2UiIHJ4PSIyLjUiIHJ5PSIyLjUiIHN0eWxlPSJzdHJva2U6IzE4MTgxODtzdHJva2Utd2lkdGg6MC41OyIgd2lkdGg9IjE3OSIgeD0iODQyMSIgeT0iMTI0MiIvPjxlbGxpcHNlIGN4PSI4NDM2IiBjeT0iMTI1OCIgZmlsbD0iI0FERDFCMiIgcng9IjExIiByeT0iMTEiIHN0eWxlPSJzdHJva2U6IzE4MTgxODtzdHJva2Utd2lkdGg6MS4wOyIvPjxwYXRoIGQ9Ik04NDMzLjYyNSwxMjYyLjI1IEw4NDMzLjYyNSwxMjY0IEw4NDM4LjU2MjUsMTI2NCBMODQzOC41NjI1LDEyNjIuMjUgTDg0MzMuNjI1LDEyNjIuMjUgWiBNODQzNC4zMTI1LDEyNjIuOTM3NSBRODQzNC4zMTI1LDEyNjIuOTM3NSA4NDM0LjMxMjUsMTI1My43NSBMODQzMi41NjI1LDEyNTMuNzUgUTg0MzIuNTYyNSwxMjUzLjc1IDg0MzIuNTYyNSwxMjYyLjkzNzUgTDg0MzQuMzEyNSwxMjYyLjkzNzUgWiBNODQzNy44NzUsMTI2Mi45Mzc1IEw4NDM5LjYyNSwxMjYyLjkzNzUgUTg0MzkuNjI1LDEyNjIuOTM3NSA4NDM5LjYyNSwxMjYwLjEyNSBMODQzNy44NzUsMTI2MC4xMjUgUTg0MzcuODc1LDEyNjAuMTI1IDg0MzcuODc1LDEyNjIuOTM3NSBaIE04NDM3Ljg3NSwxMjUzLjc1IFE4NDM3Ljg3NSwxMjUzLjc1IDg0MzcuODc1LDEyNTYuNTYyNSBMODQzOS42MjUsMTI1Ni41NjI1IFE4NDM5LjYyNSwxMjU2LjU2MjUgODQzOS42MjUsMTI1My43NSBMODQzNy44NzUsMTI1My43NSBaIE04NDMzLjYyNSwxMjU0LjQzNzUgTDg0MzguNTYyNSwxMjU0LjQzNzUgTDg0MzguNTYyNSwxMjUyLjY4NzUgTDg0MzMuNjI1LDEyNTIuNjg3NSBMODQzMy42MjUsMTI1NC40Mzc1IFogIiBmaWxsPSIjMDAwMDAwIi8+PHRleHQgZmlsbD0iIzAwMDAwMCIgZm9udC1mYW1pbHk9InNhbnMtc2VyaWYiIGZvbnQtc2l6ZT0iMTQiIGxlbmd0aEFkanVzdD0ic3BhY2luZyIgdGV4dExlbmd0aD0iMTQ3IiB4PSI4NDUwIiB5PSIxMjYzLjc0MjIiPldlYXRoZXJEYXRhVHh0U3RvcmFnZTwvdGV4dD48bGluZSBzdHlsZT0ic3Ryb2tlOiMxODE4MTg7c3Ryb2tlLXdpZHRoOjAuNTsiIHgxPSI4NDIyIiB4Mj0iODU5OSIgeTE9IjEyNzQiIHkyPSIxMjc0Ii8+PGxpbmUgc3R5bGU9InN0cm9rZTojMTgxODE4O3N0cm9rZS13aWR0aDowLjU7IiB4MT0iODQyMiIgeDI9Ijg1OTkiIHkxPSIxMjgyIiB5Mj0iMTI4MiIvPjwvZz48IS0tbGluayBBcHBVaSB0byBEaXNwbGF5RGF0YS0tPjxnIGlkPSJsaW5rX0FwcFVpX0Rpc3BsYXlEYXRhIj48cGF0aCBjb2RlTGluZT0iMjMwIiBkPSJNMzI1Ni45MywzNjkuNzIgQzMyNDAuNzgsNDgyLjEgMzE5OS40Nyw3NjkuNSAzMTg1Ljg5LDg2My45MyAiIGZpbGw9Im5vbmUiIGlkPSJBcHBVaS1EaXNwbGF5RGF0YSIgc3R5bGU9InN0cm9rZTojMTgxODE4O3N0cm9rZS13aWR0aDoxLjA7Ii8+PHRleHQgZmlsbD0iIzAwMDAwMCIgZm9udC1mYW1pbHk9InNhbnMtc2VyaWYiIGZvbnQtc2l6ZT0iMTMiIGxlbmd0aEFkanVzdD0ic3BhY2luZyIgdGV4dExlbmd0aD0iNyIgeD0iMzE3OS4wOTU4IiB5PSI4NTQuNTIyOSI+MTwvdGV4dD48L2c+PCEtLWxpbmsgQXBwVWkgdG8gU2NyZWVuM0NvbnRyb2xsZXItLT48ZyBpZD0ibGlua19BcHBVaV9TY3JlZW4zQ29udHJvbGxlciI+PHBhdGggY29kZUxpbmU9IjIzMSIgZD0iTTMxMjYuNDMsMzY5LjU1IEMyNjM5LjExLDUzMS40NyA5OTUuNTIsMTA3Ny41OSA1NDUuOTgsMTIyNi45NiAiIGZpbGw9Im5vbmUiIGlkPSJBcHBVaS1TY3JlZW4zQ29udHJvbGxlciIgc3R5bGU9InN0cm9rZTojMTgxODE4O3N0cm9rZS13aWR0aDoxLjA7Ii8+PHRleHQgZmlsbD0iIzAwMDAwMCIgZm9udC1mYW1pbHk9InNhbnMtc2VyaWYiIGZvbnQtc2l6ZT0iMTMiIGxlbmd0aEFkanVzdD0ic3BhY2luZyIgdGV4dExlbmd0aD0iNyIgeD0iNTYwLjgyOTIiIHk9IjEyMTcuMzc2NCI+MTwvdGV4dD48L2c+PCEtLWxpbmsgQXBwVWkgdG8gVGVybWluYWxVSS0tPjxnIGlkPSJsaW5rX0FwcFVpX1Rlcm1pbmFsVUkiPjxwYXRoIGNvZGVMaW5lPSIyMzIiIGQ9Ik0zMjA5LjkzLDM2OS43IEMzMDQ0LjI2LDUxMS4wNCAyNTM2Ljc5LDk0My45OCAyMjkzLjQxLDExNTEuNjEgIiBmaWxsPSJub25lIiBpZD0iQXBwVWktVGVybWluYWxVSSIgc3R5bGU9InN0cm9rZTojMTgxODE4O3N0cm9rZS13aWR0aDoxLjA7Ii8+PHRleHQgZmlsbD0iIzAwMDAwMCIgZm9udC1mYW1pbHk9InNhbnMtc2VyaWYiIGZvbnQtc2l6ZT0iMTMiIGxlbmd0aEFkanVzdD0ic3BhY2luZyIgdGV4dExlbmd0aD0iNyIgeD0iMjI5NS41MDkxIiB5PSIxMTQyLjQzNzciPjE8L3RleHQ+PC9nPjwhLS1saW5rIEFwcFVpIHRvIFVpMmNvbnRyb2xsZXItLT48ZyBpZD0ibGlua19BcHBVaV9VaTJjb250cm9sbGVyIj48cGF0aCBjb2RlTGluZT0iMjMzIiBkPSJNMzI2OC45OCwzNjkuNTggQzMyODcuOTgsNTI1LjMgMzM1MS45NiwxMDI5Ljk4IDMzOTAuNSwxMDkyIEMzNDA5Ljk0LDExMjMuMjggMzQ4Mi44NiwxMTczLjU5IDM1NDMuNDUsMTIxMS45MiAiIGZpbGw9Im5vbmUiIGlkPSJBcHBVaS1VaTJjb250cm9sbGVyIiBzdHlsZT0ic3Ryb2tlOiMxODE4MTg7c3Ryb2tlLXdpZHRoOjEuMDsiLz48dGV4dCBmaWxsPSIjMDAwMDAwIiBmb250LWZhbWlseT0ic2Fucy1zZXJpZiIgZm9udC1zaXplPSIxMyIgbGVuZ3RoQWRqdXN0PSJzcGFjaW5nIiB0ZXh0TGVuZ3RoPSI3IiB4PSIzNTIzLjAwMzYiIHk9IjEyMDIuMzgzMSI+MTwvdGV4dD48L2c+PCEtLWxpbmsgQXBwVWkgdG8gVWljb250cm9sbGVyLS0+PGcgaWQ9ImxpbmtfQXBwVWlfVWljb250cm9sbGVyIj48cGF0aCBjb2RlTGluZT0iMjM0IiBkPSJNMzI3OS4zNywzNjkuNzEgQzMzMDMuMyw0MzkuODggMzM0OC45Nyw1NzguNjMgMzM3OC41LDY5OSBDMzQyMC44Myw4NzEuNTQgMzMyNC42MSw5NjcuNjYgMzQ1MS41LDEwOTIgQzM1NjguNjEsMTIwNi43NiAzNjYxLjg4LDEwOTQuNjkgMzgxNS41LDExNTIgQzM4NTQuODQsMTE2Ni42NyAzODk0Ljk3LDExOTAuMTQgMzkyNy42OCwxMjExLjg5ICIgZmlsbD0ibm9uZSIgaWQ9IkFwcFVpLVVpY29udHJvbGxlciIgc3R5bGU9InN0cm9rZTojMTgxODE4O3N0cm9rZS13aWR0aDoxLjA7Ii8+PHRleHQgZmlsbD0iIzAwMDAwMCIgZm9udC1mYW1pbHk9InNhbnMtc2VyaWYiIGZvbnQtc2l6ZT0iMTMiIGxlbmd0aEFkanVzdD0ic3BhY2luZyIgdGV4dExlbmd0aD0iNyIgeD0iMzkwOS42MTc0IiB5PSIxMjAyLjM0ODciPjE8L3RleHQ+PC9nPjwhLS1yZXZlcnNlIGxpbmsgQXBwVWkgdG8gV2VhdGhlckNvbnRyb2xsZXJJbnRlcmZhY2VtYWluLS0+PGcgaWQ9ImxpbmtfQXBwVWlfV2VhdGhlckNvbnRyb2xsZXJJbnRlcmZhY2VtYWluIj48cGF0aCBjb2RlTGluZT0iMjM1IiBkPSJNMzMxMS4yMTIxLDM3OC43Njg0IEMzNDA2LjU3MjEsNDg4LjIzODQgMzYzOC43NSw3NTQuNzQgMzcyNy4xNSw4NTYuMjEgIiBmaWxsPSJub25lIiBpZD0iQXBwVWktYmFja3RvLVdlYXRoZXJDb250cm9sbGVySW50ZXJmYWNlbWFpbiIgc3R5bGU9InN0cm9rZTojMTgxODE4O3N0cm9rZS13aWR0aDoxLjA7Ii8+PHBvbHlnb24gZmlsbD0ibm9uZSIgcG9pbnRzPSIzMzAzLjMzLDM2OS43MiwzMzA0LjI1NDksMzc2Ljg3MTUsMzMxMS4yMTIxLDM3OC43Njg0LDMzMTAuMjg3MiwzNzEuNjE2OCwzMzAzLjMzLDM2OS43MiIgc3R5bGU9InN0cm9rZTojMTgxODE4O3N0cm9rZS13aWR0aDoxLjA7Ii8+PHRleHQgZmlsbD0iIzAwMDAwMCIgZm9udC1mYW1pbHk9InNhbnMtc2VyaWYiIGZvbnQtc2l6ZT0iMTMiIGxlbmd0aEFkanVzdD0ic3BhY2luZyIgdGV4dExlbmd0aD0iMjUiIHg9IjM2OTMuNDA5OCIgeT0iODQ2Ljg2MDQiPjEuLio8L3RleHQ+PC9nPjwhLS1yZXZlcnNlIGxpbmsgRGlzcGxheURhdGEgdG8gU2NyZWVuM0NvbnRyb2xsZXItLT48ZyBpZD0ibGlua19EaXNwbGF5RGF0YV9TY3JlZW4zQ29udHJvbGxlciI+PHBhdGggY29kZUxpbmU9IjIzNyIgZD0iTTMwNTIuNjE2NCw5MTMuNzI3NyBDMjc5MS42MzY0LDk0OC4zNTc3IDIxMzYuNDksMTAzMy41NSAxNTcyLjUsMTA5MiBDMTI2Mi4zNSwxMTI0LjE0IDExODAuOTIsMTA5OS44NyA4NzMuNSwxMTUyIEM3NjUuNTQsMTE3MC4zMSA2NDUuMjgsMTIwMS44IDU1Ny40OSwxMjI2Ljg5ICIgZmlsbD0ibm9uZSIgaWQ9IkRpc3BsYXlEYXRhLWJhY2t0by1TY3JlZW4zQ29udHJvbGxlciIgc3R5bGU9InN0cm9rZTojMTgxODE4O3N0cm9rZS13aWR0aDoxLjA7c3Ryb2tlLWRhc2hhcnJheTo3LjAsNy4wOyIvPjxwb2x5Z29uIGZpbGw9Im5vbmUiIHBvaW50cz0iMzA3MC40Niw5MTEuMzYsMzA1MS44MjcyLDkwNy43Nzk4LDMwNTMuNDA1Niw5MTkuNjc1NiwzMDcwLjQ2LDkxMS4zNiIgc3R5bGU9InN0cm9rZTojMTgxODE4O3N0cm9rZS13aWR0aDoxLjA7Ii8+PC9nPjwhLS1yZXZlcnNlIGxpbmsgRGlzcGxheURhdGEgdG8gVGVybWluYWxVSS0tPjxnIGlkPSJsaW5rX0Rpc3BsYXlEYXRhX1Rlcm1pbmFsVUkiPjxwYXRoIGNvZGVMaW5lPSIyMzgiIGQ9Ik0zMDc5LjcwODgsOTMzLjI0MDMgQzI5NDQuMzQ4OCw5ODIuMDkwMyAyNjg5Ljc0LDEwNzMuOTkgMjQ3My44MSwxMTUxLjkyICIgZmlsbD0ibm9uZSIgaWQ9IkRpc3BsYXlEYXRhLWJhY2t0by1UZXJtaW5hbFVJIiBzdHlsZT0ic3Ryb2tlOiMxODE4MTg7c3Ryb2tlLXdpZHRoOjEuMDtzdHJva2UtZGFzaGFycmF5OjcuMCw3LjA7Ii8+PHBvbHlnb24gZmlsbD0ibm9uZSIgcG9pbnRzPSIzMDk2LjY0LDkyNy4xMywzMDc3LjY3MjEsOTI3LjU5NjYsMzA4MS43NDU2LDkzOC44ODQsMzA5Ni42NCw5MjcuMTMiIHN0eWxlPSJzdHJva2U6IzE4MTgxODtzdHJva2Utd2lkdGg6MS4wOyIvPjwvZz48IS0tcmV2ZXJzZSBsaW5rIERpc3BsYXlEYXRhIHRvIFVpMmNvbnRyb2xsZXItLT48ZyBpZD0ibGlua19EaXNwbGF5RGF0YV9VaTJjb250cm9sbGVyIj48cGF0aCBjb2RlTGluZT0iMjM5IiBkPSJNMzIwNS4wOTcsOTQzLjI4NzIgQzMyMjcuMTQ3LDk4NS4yODcyIDMyNjMuMiwxMDQ0LjcgMzMxOS41LDEwOTIgQzMzNjcuMywxMTMyLjE2IDMzOTEuNTYsMTEyMi4zNSAzNDQ2LjUsMTE1MiBDMzQ4MC42MSwxMTcwLjQxIDM1MTcuMjMsMTE5Mi4zIDM1NDguOCwxMjExLjg4ICIgZmlsbD0ibm9uZSIgaWQ9IkRpc3BsYXlEYXRhLWJhY2t0by1VaTJjb250cm9sbGVyIiBzdHlsZT0ic3Ryb2tlOiMxODE4MTg7c3Ryb2tlLXdpZHRoOjEuMDtzdHJva2UtZGFzaGFycmF5OjcuMCw3LjA7Ii8+PHBvbHlnb24gZmlsbD0ibm9uZSIgcG9pbnRzPSIzMTk2LjczLDkyNy4zNSwzMTk5Ljc4NDYsOTQ2LjA3NjIsMzIxMC40MDk0LDk0MC40OTgyLDMxOTYuNzMsOTI3LjM1IiBzdHlsZT0ic3Ryb2tlOiMxODE4MTg7c3Ryb2tlLXdpZHRoOjEuMDsiLz48L2c+PCEtLXJldmVyc2UgbGluayBEaXNwbGF5RGF0YSB0byBVaWNvbnRyb2xsZXItLT48ZyBpZD0ibGlua19EaXNwbGF5RGF0YV9VaWNvbnRyb2xsZXIiPjxwYXRoIGNvZGVMaW5lPSIyNDAiIGQ9Ik0zMjE0Ljk2MTIsOTQxLjIzNTkgQzMyNDkuNTMxMiw5ODUuNzQ1OSAzMzA5LjM3LDEwNTMuMiAzMzkwLjUsMTA5MiBDMzU2Mi41OSwxMTc0LjMxIDM2MzYuMDEsMTA4Ny40IDM4MTUuNSwxMTUyIEMzODU1LjE4LDExNjYuMjggMzg5NS41MiwxMTg5LjgzIDM5MjguMjgsMTIxMS43NSAiIGZpbGw9Im5vbmUiIGlkPSJEaXNwbGF5RGF0YS1iYWNrdG8tVWljb250cm9sbGVyIiBzdHlsZT0ic3Ryb2tlOiMxODE4MTg7c3Ryb2tlLXdpZHRoOjEuMDtzdHJva2UtZGFzaGFycmF5OjcuMCw3LjA7Ii8+PHBvbHlnb24gZmlsbD0ibm9uZSIgcG9pbnRzPSIzMjAzLjkyLDkyNy4wMiwzMjEwLjIyMjYsOTQ0LjkxNjMsMzIxOS42OTk4LDkzNy41NTU1LDMyMDMuOTIsOTI3LjAyIiBzdHlsZT0ic3Ryb2tlOiMxODE4MTg7c3Ryb2tlLXdpZHRoOjEuMDsiLz48L2c+PCEtLWxpbmsgU2NyZWVuM0NvbnRyb2xsZXIgdG8gQWlyUG9sbHV0aW9uQVBJRGF0YS0tPjxnIGlkPSJsaW5rX1NjcmVlbjNDb250cm9sbGVyX0FpclBvbGx1dGlvbkFQSURhdGEiPjxwYXRoIGNvZGVMaW5lPSIyNDIiIGQ9Ik01NTIuMDUsMTMwNS4xMSBDNjQwLjE0LDEzMzEuMTYgNzYzLDEzNjMuNzkgODczLjUsMTM4MCBDMTI1Ny4xOCwxNDM2LjI5IDI0ODIuNjYsMTQ1Ny4yMiAyODEyLjg3LDE0NjEuOTEgIiBmaWxsPSJub25lIiBpZD0iU2NyZWVuM0NvbnRyb2xsZXItQWlyUG9sbHV0aW9uQVBJRGF0YSIgc3R5bGU9InN0cm9rZTojMTgxODE4O3N0cm9rZS13aWR0aDoxLjA7Ii8+PHRleHQgZmlsbD0iIzAwMDAwMCIgZm9udC1mYW1pbHk9InNhbnMtc2VyaWYiIGZvbnQtc2l6ZT0iMTMiIGxlbmd0aEFkanVzdD0ic3BhY2luZyIgdGV4dExlbmd0aD0iNyIgeD0iMjc5Ny45Mjk5IiB5PSIxNDYwLjQ0OTMiPjE8L3RleHQ+PC9nPjwhLS1saW5rIFRlcm1pbmFsVUkgdG8gQWlyUG9sbHV0aW9uQVBJRGF0YS0tPjxnIGlkPSJsaW5rX1Rlcm1pbmFsVUlfQWlyUG9sbHV0aW9uQVBJRGF0YSI+PHBhdGggY29kZUxpbmU9IjI0MyIgZD0iTTI1ODQuMzMsMTM4MC4wMiBDMjY3MS42NSwxNDAzLjMxIDI3NTQuNjMsMTQyNS40MyAyODEyLjksMTQ0MC45NyAiIGZpbGw9Im5vbmUiIGlkPSJUZXJtaW5hbFVJLUFpclBvbGx1dGlvbkFQSURhdGEiIHN0eWxlPSJzdHJva2U6IzE4MTgxODtzdHJva2Utd2lkdGg6MS4wOyIvPjx0ZXh0IGZpbGw9IiMwMDAwMDAiIGZvbnQtZmFtaWx5PSJzYW5zLXNlcmlmIiBmb250LXNpemU9IjEzIiBsZW5ndGhBZGp1c3Q9InNwYWNpbmciIHRleHRMZW5ndGg9IjciIHg9IjI3OTcuOTYyNyIgeT0iMTQzNy41Nzg5Ij4xPC90ZXh0PjwvZz48IS0tbGluayBVaTJjb250cm9sbGVyIHRvIEFpclBvbGx1dGlvbkFQSURhdGEtLT48ZyBpZD0ibGlua19VaTJjb250cm9sbGVyX0FpclBvbGx1dGlvbkFQSURhdGEiPjxwYXRoIGNvZGVMaW5lPSIyNDQiIGQ9Ik0zNTU5Ljc5LDEzMjAuMDcgQzM1MjYuODMsMTM0MS45NSAzNDg2LjI5LDEzNjUuNTIgMzQ0Ni41LDEzODAgQzMyODcuNDEsMTQzNy44OCAzMDg4LjM0LDE0NTUuNDEgMjk3OC4zLDE0NjAuNzEgIiBmaWxsPSJub25lIiBpZD0iVWkyY29udHJvbGxlci1BaXJQb2xsdXRpb25BUElEYXRhIiBzdHlsZT0ic3Ryb2tlOiMxODE4MTg7c3Ryb2tlLXdpZHRoOjEuMDsiLz48dGV4dCBmaWxsPSIjMDAwMDAwIiBmb250LWZhbWlseT0ic2Fucy1zZXJpZiIgZm9udC1zaXplPSIxMyIgbGVuZ3RoQWRqdXN0PSJzcGFjaW5nIiB0ZXh0TGVuZ3RoPSI3IiB4PSIyOTg1Ljk4NjEiIHk9IjE0NzMuMzI1NyI+MTwvdGV4dD48L2c+PCEtLWxpbmsgVWljb250cm9sbGVyIHRvIEFpclBvbGx1dGlvbkFQSURhdGEtLT48ZyBpZD0ibGlua19VaWNvbnRyb2xsZXJfQWlyUG9sbHV0aW9uQVBJRGF0YSI+PHBhdGggY29kZUxpbmU9IjI0NSIgZD0iTTM5MzAuMzQsMTMyMC4wMiBDMzg5Ny4zNCwxMzQyLjQ1IDM4NTYuMjQsMTM2Ni40OCAzODE1LjUsMTM4MCBDMzY2MS4yLDE0MzEuMiAzMTc0LjI0LDE0NTMuMzYgMjk3OC4zMywxNDYwLjM3ICIgZmlsbD0ibm9uZSIgaWQ9IlVpY29udHJvbGxlci1BaXJQb2xsdXRpb25BUElEYXRhIiBzdHlsZT0ic3Ryb2tlOiMxODE4MTg7c3Ryb2tlLXdpZHRoOjEuMDsiLz48dGV4dCBmaWxsPSIjMDAwMDAwIiBmb250LWZhbWlseT0ic2Fucy1zZXJpZiIgZm9udC1zaXplPSIxMyIgbGVuZ3RoQWRqdXN0PSJzcGFjaW5nIiB0ZXh0TGVuZ3RoPSI3IiB4PSIyOTg2LjAxODgiIHk9IjE0NTguNzk3NiI+MTwvdGV4dD48L2c+PCEtLWxpbmsgQnVzaW5lc3NMb2dpYyB0byBEVUlGaWxsZXItLT48ZyBpZD0ibGlua19CdXNpbmVzc0xvZ2ljX0RVSUZpbGxlciI+PHBhdGggY29kZUxpbmU9IjI0NyIgZD0iTTU3MzAuNSw0MjIuMDcgQzU3MzAuNSw1NTguMjcgNTczMC41LDc5Ni4zOCA1NzMwLjUsODcxLjI3ICIgZmlsbD0ibm9uZSIgaWQ9IkJ1c2luZXNzTG9naWMtRFVJRmlsbGVyIiBzdHlsZT0ic3Ryb2tlOiMxODE4MTg7c3Ryb2tlLXdpZHRoOjEuMDsiLz48dGV4dCBmaWxsPSIjMDAwMDAwIiBmb250LWZhbWlseT0ic2Fucy1zZXJpZiIgZm9udC1zaXplPSIxMyIgbGVuZ3RoQWRqdXN0PSJzcGFjaW5nIiB0ZXh0TGVuZ3RoPSI3IiB4PSI1NzIyLjUxNTYiIHk9Ijg2Mi4wNDQ4Ij4xPC90ZXh0PjwvZz48IS0tbGluayBPcGVuV2VhdGhlckFwaSB0byBBaXJQb2xsdXRpb25BUEktLT48ZyBpZD0ibGlua19PcGVuV2VhdGhlckFwaV9BaXJQb2xsdXRpb25BUEkiPjxwYXRoIGNvZGVMaW5lPSIyNDgiIGQ9Ik02MjkwLjYzLDU0OS44OSBDNjI1MS4yNyw2NzUuMzMgNjIwNi44OCw4MTYuOCA2MTg5Ljc2LDg3MS4zNSAiIGZpbGw9Im5vbmUiIGlkPSJPcGVuV2VhdGhlckFwaS1BaXJQb2xsdXRpb25BUEkiIHN0eWxlPSJzdHJva2U6IzE4MTgxODtzdHJva2Utd2lkdGg6MS4wOyIvPjx0ZXh0IGZpbGw9IiMwMDAwMDAiIGZvbnQtZmFtaWx5PSJzYW5zLXNlcmlmIiBmb250LXNpemU9IjEzIiBsZW5ndGhBZGp1c3Q9InNwYWNpbmciIHRleHRMZW5ndGg9IjciIHg9IjYxODMuODY0NSIgeT0iODYxLjc2OTkiPjE8L3RleHQ+PC9nPjwhLS1saW5rIE9wZW5XZWF0aGVyQXBpIHRvIEN1cnJlbnRXZWF0aGVyQVBJLS0+PGcgaWQ9ImxpbmtfT3BlbldlYXRoZXJBcGlfQ3VycmVudFdlYXRoZXJBUEkiPjxwYXRoIGNvZGVMaW5lPSIyNDkiIGQ9Ik02MzYxLjUsNTQ5Ljg5IEM2MzYxLjUsNjc1LjMzIDYzNjEuNSw4MTYuOCA2MzYxLjUsODcxLjM1ICIgZmlsbD0ibm9uZSIgaWQ9Ik9wZW5XZWF0aGVyQXBpLUN1cnJlbnRXZWF0aGVyQVBJIiBzdHlsZT0ic3Ryb2tlOiMxODE4MTg7c3Ryb2tlLXdpZHRoOjEuMDsiLz48dGV4dCBmaWxsPSIjMDAwMDAwIiBmb250LWZhbWlseT0ic2Fucy1zZXJpZiIgZm9udC1zaXplPSIxMyIgbGVuZ3RoQWRqdXN0PSJzcGFjaW5nIiB0ZXh0TGVuZ3RoPSI3IiB4PSI2MzUzLjQ3MTkiIHk9Ijg2MS43Njk5Ij4xPC90ZXh0PjwvZz48IS0tbGluayBPcGVuV2VhdGhlckFwaSB0byBXZWF0aGVyRm9yZWNhc3Q1RGF5cy0tPjxnIGlkPSJsaW5rX09wZW5XZWF0aGVyQXBpX1dlYXRoZXJGb3JlY2FzdDVEYXlzIj48cGF0aCBjb2RlTGluZT0iMjUwIiBkPSJNNjQzOS41LDU0OS44OSBDNjQ4Mi44Miw2NzUuMzMgNjUzMS42Nyw4MTYuOCA2NTUwLjUxLDg3MS4zNSAiIGZpbGw9Im5vbmUiIGlkPSJPcGVuV2VhdGhlckFwaS1XZWF0aGVyRm9yZWNhc3Q1RGF5cyIgc3R5bGU9InN0cm9rZTojMTgxODE4O3N0cm9rZS13aWR0aDoxLjA7Ii8+PHRleHQgZmlsbD0iIzAwMDAwMCIgZm9udC1mYW1pbHk9InNhbnMtc2VyaWYiIGZvbnQtc2l6ZT0iMTMiIGxlbmd0aEFkanVzdD0ic3BhY2luZyIgdGV4dExlbmd0aD0iNyIgeD0iNjU0MC4xMzQ4IiB5PSI4NjEuNzY5OSI+MTwvdGV4dD48L2c+PCEtLWxpbmsgV2VhdGhlckFwcFJ1bm5lciB0byBDYWNoZU1hbmFnZXItLT48ZyBpZD0ibGlua19XZWF0aGVyQXBwUnVubmVyX0NhY2hlTWFuYWdlciI+PHBhdGggY29kZUxpbmU9IjI1MiIgZD0iTTcwNzEuNSwzNzcuMTYgQzcwNzEuNSw0NjcuMDYgNzA3MS41LDY1MS4yOCA3MDcxLjUsNzczLjg1ICIgZmlsbD0ibm9uZSIgaWQ9IldlYXRoZXJBcHBSdW5uZXItQ2FjaGVNYW5hZ2VyIiBzdHlsZT0ic3Ryb2tlOiMxODE4MTg7c3Ryb2tlLXdpZHRoOjEuMDsiLz48dGV4dCBmaWxsPSIjMDAwMDAwIiBmb250LWZhbWlseT0ic2Fucy1zZXJpZiIgZm9udC1zaXplPSIxMyIgbGVuZ3RoQWRqdXN0PSJzcGFjaW5nIiB0ZXh0TGVuZ3RoPSI3IiB4PSI3MDY0LjI2NDgiIHk9Ijc2NC41NjY1Ij4xPC90ZXh0PjwvZz48IS0tcmV2ZXJzZSBsaW5rIENhY2hlTWFuYWdlciB0byBEQkFpclBvbGxEYXQtLT48ZyBpZD0ibGlua19DYWNoZU1hbmFnZXJfREJBaXJQb2xsRGF0Ij48cGF0aCBjb2RlTGluZT0iMjU0IiBkPSJNNzAxMy43NzExLDEwMzMuNzUyIEM2OTc5Ljc4MTEsMTExNC41NjIgNjk0NC45NCwxMTk3LjM5IDY5MjYuMjksMTI0MS43MyAiIGZpbGw9Im5vbmUiIGlkPSJDYWNoZU1hbmFnZXItYmFja3RvLURCQWlyUG9sbERhdCIgc3R5bGU9InN0cm9rZTojMTgxODE4O3N0cm9rZS13aWR0aDoxLjA7Ii8+PHBvbHlnb24gZmlsbD0ibm9uZSIgcG9pbnRzPSI3MDIwLjc1LDEwMTcuMTYsNzAwOC4yNDA0LDEwMzEuNDI1Nyw3MDE5LjMwMTgsMTAzNi4wNzgzLDcwMjAuNzUsMTAxNy4xNiIgc3R5bGU9InN0cm9rZTojMTgxODE4O3N0cm9rZS13aWR0aDoxLjA7Ii8+PC9nPjwhLS1yZXZlcnNlIGxpbmsgQ2FjaGVNYW5hZ2VyIHRvIERCQ3VycldlYXRoZXItLT48ZyBpZD0ibGlua19DYWNoZU1hbmFnZXJfREJDdXJyV2VhdGhlciI+PHBhdGggY29kZUxpbmU9IjI1NSIgZD0iTTcwNzEuNSwxMDM1LjE2IEM3MDcxLjUsMTExNS45NyA3MDcxLjUsMTE5Ny4zOSA3MDcxLjUsMTI0MS43MyAiIGZpbGw9Im5vbmUiIGlkPSJDYWNoZU1hbmFnZXItYmFja3RvLURCQ3VycldlYXRoZXIiIHN0eWxlPSJzdHJva2U6IzE4MTgxODtzdHJva2Utd2lkdGg6MS4wOyIvPjxwb2x5Z29uIGZpbGw9Im5vbmUiIHBvaW50cz0iNzA3MS41LDEwMTcuMTYsNzA2NS41LDEwMzUuMTYsNzA3Ny41LDEwMzUuMTYsNzA3MS41LDEwMTcuMTYiIHN0eWxlPSJzdHJva2U6IzE4MTgxODtzdHJva2Utd2lkdGg6MS4wOyIvPjwvZz48IS0tcmV2ZXJzZSBsaW5rIENhY2hlTWFuYWdlciB0byBEQkZyY3N0NURheS0tPjxnIGlkPSJsaW5rX0NhY2hlTWFuYWdlcl9EQkZyY3N0NURheSI+PHBhdGggY29kZUxpbmU9IjI1NiIgZD0iTTcxMjcuNzY2MiwxMDMzLjgxNTQgQzcxNjAuODg2MiwxMTE0LjYyNTQgNzE5NC43OSwxMTk3LjM5IDcyMTIuOTcsMTI0MS43MyAiIGZpbGw9Im5vbmUiIGlkPSJDYWNoZU1hbmFnZXItYmFja3RvLURCRnJjc3Q1RGF5IiBzdHlsZT0ic3Ryb2tlOiMxODE4MTg7c3Ryb2tlLXdpZHRoOjEuMDsiLz48cG9seWdvbiBmaWxsPSJub25lIiBwb2ludHM9IjcxMjAuOTQsMTAxNy4xNiw3MTIyLjIxNDQsMTAzNi4wOTA4LDcxMzMuMzE4LDEwMzEuNTQsNzEyMC45NCwxMDE3LjE2IiBzdHlsZT0ic3Ryb2tlOiMxODE4MTg7c3Ryb2tlLXdpZHRoOjEuMDsiLz48L2c+PCEtLWxpbmsgREJtYW5hZ2VyIHRvIGNyZWF0ZVRhYmxlcy0tPjxnIGlkPSJsaW5rX0RCbWFuYWdlcl9jcmVhdGVUYWJsZXMiPjxwYXRoIGNvZGVMaW5lPSIyNTgiIGQ9Ik03NjEzLjUsNjM5LjI5IEM3NjEzLjUsNzM2LjcgNzYxMy41LDgyOS4zOCA3NjEzLjUsODcxLjIyICIgZmlsbD0ibm9uZSIgaWQ9IkRCbWFuYWdlci1jcmVhdGVUYWJsZXMiIHN0eWxlPSJzdHJva2U6IzE4MTgxODtzdHJva2Utd2lkdGg6MS4wOyIvPjx0ZXh0IGZpbGw9IiMwMDAwMDAiIGZvbnQtZmFtaWx5PSJzYW5zLXNlcmlmIiBmb250LXNpemU9IjEzIiBsZW5ndGhBZGp1c3Q9InNwYWNpbmciIHRleHRMZW5ndGg9IjciIHg9Ijc2MDUuNTE1NiIgeT0iODYxLjk4MDciPjE8L3RleHQ+PC9nPjwhLS1saW5rIERhdGFoYW5kaW5saW5nIHRvIERhdGFIYW5kbGluZ1R4VC0tPjxnIGlkPSJsaW5rX0RhdGFoYW5kaW5saW5nX0RhdGFIYW5kbGluZ1R4VCI+PHBhdGggY29kZUxpbmU9IjI2MCIgZD0iTTgzNjMuMDIsMTA5Mi4wOCBDODM0Ny4xOSwxMTUyLjIgODMzMS43OSwxMjEwLjcgODMyMy41OSwxMjQxLjg2ICIgZmlsbD0ibm9uZSIgaWQ9IkRhdGFoYW5kaW5saW5nLURhdGFIYW5kbGluZ1R4VCIgc3R5bGU9InN0cm9rZTojMTgxODE4O3N0cm9rZS13aWR0aDoxLjA7Ii8+PHRleHQgZmlsbD0iIzAwMDAwMCIgZm9udC1mYW1pbHk9InNhbnMtc2VyaWYiIGZvbnQtc2l6ZT0iMTMiIGxlbmd0aEFkanVzdD0ic3BhY2luZyIgdGV4dExlbmd0aD0iNyIgeD0iODMxNy4zNTA4IiB5PSIxMjMyLjI4MjgiPjE8L3RleHQ+PC9nPjwhLS1saW5rIERhdGFoYW5kaW5saW5nIHRvIFdlYXRoZXJEYXRhVHh0U3RvcmFnZS0tPjxnIGlkPSJsaW5rX0RhdGFoYW5kaW5saW5nX1dlYXRoZXJEYXRhVHh0U3RvcmFnZSI+PHBhdGggY29kZUxpbmU9IjI2MSIgZD0iTTg0NjUuNDUsMTA5Mi4wOCBDODQ4MS4xMSwxMTUyLjIgODQ5Ni4zNSwxMjEwLjcgODUwNC40NywxMjQxLjg2ICIgZmlsbD0ibm9uZSIgaWQ9IkRhdGFoYW5kaW5saW5nLVdlYXRoZXJEYXRhVHh0U3RvcmFnZSIgc3R5bGU9InN0cm9rZTojMTgxODE4O3N0cm9rZS13aWR0aDoxLjA7Ii8+PHRleHQgZmlsbD0iIzAwMDAwMCIgZm9udC1mYW1pbHk9InNhbnMtc2VyaWYiIGZvbnQtc2l6ZT0iMTMiIGxlbmd0aEFkanVzdD0ic3BhY2luZyIgdGV4dExlbmd0aD0iNyIgeD0iODQ5NC42NzA2IiB5PSIxMjMyLjI4MjgiPjE8L3RleHQ+PC9nPjwhLS1saW5rIEpEQkMgdG8gRGF0YWhhbmRpbmxpbmctLT48ZyBpZD0ibGlua19KREJDX0RhdGFoYW5kaW5saW5nIj48cGF0aCBjb2RlTGluZT0iMjYzIiBkPSJNODQxNC41LDM2Mi4zMiBDODQxNC41LDQzMC40IDg0MTQuNSw1NzAuNzYgODQxNC41LDY5Mi43OSAiIGZpbGw9Im5vbmUiIGlkPSJKREJDLXRvLURhdGFoYW5kaW5saW5nIiBzdHlsZT0ic3Ryb2tlOiMxODE4MTg7c3Ryb2tlLXdpZHRoOjEuMDtzdHJva2UtZGFzaGFycmF5OjcuMCw3LjA7Ii8+PHBvbHlnb24gZmlsbD0iIzE4MTgxOCIgcG9pbnRzPSI4NDE0LjUsNjk4Ljc5LDg0MTguNSw2ODkuNzksODQxNC41LDY5My43OSw4NDEwLjUsNjg5Ljc5LDg0MTQuNSw2OTguNzkiIHN0eWxlPSJzdHJva2U6IzE4MTgxODtzdHJva2Utd2lkdGg6MS4wOyIvPjwvZz48IS0tbGluayBtYWluc2NyZWVuMmNvbnRyb2xsZXIgdG8gQXBwMi0tPjxnIGlkPSJsaW5rX21haW5zY3JlZW4yY29udHJvbGxlcl9BcHAyIj48cGF0aCBjb2RlTGluZT0iMjY1IiBkPSJNNDYwOC40MSw0NTkuNTYgQzQ1MzguNjksNTg1LjQ1IDQ0MzguOSw3NjUuNiA0MzkyLjcyLDg0OC45NyAiIGZpbGw9Im5vbmUiIGlkPSJtYWluc2NyZWVuMmNvbnRyb2xsZXItQXBwMiIgc3R5bGU9InN0cm9rZTojMTgxODE4O3N0cm9rZS13aWR0aDoxLjA7Ii8+PHRleHQgZmlsbD0iIzAwMDAwMCIgZm9udC1mYW1pbHk9InNhbnMtc2VyaWYiIGZvbnQtc2l6ZT0iMTMiIGxlbmd0aEFkanVzdD0ic3BhY2luZyIgdGV4dExlbmd0aD0iNyIgeD0iNDU5Ny4xMTIxIiB5PSI0NzkuNzA0MSI+MTwvdGV4dD48dGV4dCBmaWxsPSIjMDAwMDAwIiBmb250LWZhbWlseT0ic2Fucy1zZXJpZiIgZm9udC1zaXplPSIxMyIgbGVuZ3RoQWRqdXN0PSJzcGFjaW5nIiB0ZXh0TGVuZ3RoPSIyNiIgeD0iNDM2OC44MjAzIiB5PSI4MzkuMjI3MSI+MC4uMTwvdGV4dD48L2c+PCEtLWxpbmsgbWFpbnNjcmVlbjJjb250cm9sbGVyIHRvIG1haW5zY3JlZW5Db250cm9sbGVyLS0+PGcgaWQ9ImxpbmtfbWFpbnNjcmVlbjJjb250cm9sbGVyX21haW5zY3JlZW5Db250cm9sbGVyIj48cGF0aCBjb2RlTGluZT0iMjY2IiBkPSJNNDc5OC4wMyw0NTkuNTYgQzQ4NzQuNDYsNTUwLjAyIDQ5NzQuNTYsNjY4LjUgNTA1MC45OCw3NTguOTYgIiBmaWxsPSJub25lIiBpZD0ibWFpbnNjcmVlbjJjb250cm9sbGVyLW1haW5zY3JlZW5Db250cm9sbGVyIiBzdHlsZT0ic3Ryb2tlOiMxODE4MTg7c3Ryb2tlLXdpZHRoOjEuMDsiLz48dGV4dCBmaWxsPSIjMDAwMDAwIiBmb250LWZhbWlseT0ic2Fucy1zZXJpZiIgZm9udC1zaXplPSIxMyIgbGVuZ3RoQWRqdXN0PSJzcGFjaW5nIiB0ZXh0TGVuZ3RoPSI3IiB4PSI0Nzk3LjEwMiIgeT0iNDc5LjcwNDEiPjE8L3RleHQ+PHRleHQgZmlsbD0iIzAwMDAwMCIgZm9udC1mYW1pbHk9InNhbnMtc2VyaWYiIGZvbnQtc2l6ZT0iMTMiIGxlbmd0aEFkanVzdD0ic3BhY2luZyIgdGV4dExlbmd0aD0iMjYiIHg9IjUwMTcuMjA5MyIgeT0iNzQ5LjU2NzYiPjAuLjE8L3RleHQ+PC9nPjwhLS1TUkM9W3hMakhSemlzNDd4TmhuM3d2Nm9mcVFST01wNzBpUEZESFQ5cWlPQ0U2OFEwYVN1c012YktJSWducy13X3hvWEo0WUxKamNHeHBMT3EzdWI0N2VfN3V0cnRubkNKSDRIQWxuVjdEekpfdWxkdXl4Q1Y5dFNIM1ZueEphRFZBWTlLUHdKODVGbk9xM2FIb19KYm81U3BtSC1hVnhPODg1UUtpeGgxeHdjUXpKYkpXYVNIMjZHYkE5bHd1VHNuRm9VS29LMDBpQUJWM19CN2VwOTdQQU9vbmRnYXVWSk50cHVIS3RkYV9VRHZHUlFPYW9UU29xYm1vQ0tDZzhtWmlYbUdIUWZoZWFvMWM5MDBSQTlZdjJZTHZmTWJNZlRFQUFFQWFlWC1YYXg4aUh0eTIyTEpJR1o3VmpSMHNUSXFNMGlVdDBubDF3Uy1CMjE4NTRtWV9kMGhGcU1oemw1MmJKaEtHWHN2TDBnZ0h5S3g1MnhISWpWWVQtbzZ0aGpYa2N4enctaGswbUpBS2ltT245bW80anFDZy1rb1RLbDJ5ODg3SDdGaDczS1lFcnRzRUhTWGliT1djdS1YUWxjTXA2N0pXNzJySS0gLTFnMWM4Z3pKR0RpdVdQX29YZG1XMUo5YjE3UFNRaG01dHZIdVFnVEFxa1RXT3lUUk9jM3FGUzhNNUlIMWJjeVRuUVlELVk4cmViM3h2SDhfemgzbFdFSU1wN3F5QTRsdWdSdlV3dEpwN3l2RlJObWdnVUZ4b0hKNS16Y2czQWlmQUlyVEhSaWhLNFFtSFJqMkNXc2tURWhHTTdiUHFtcTRFNnpEb1lOWWxqV3EwZEdUREpJQmRmNjBVdm95Slc0WFVxOHpHQTRKdE56OG9fSUxQaDZRRjFLWVAyNVl6cFA4djNUQ0RyNl90TEQ4eDZqYVItYTFQRThlMUdZQ3hsV3ZXa2RlOThmdzRpWFQ1Z3JVem92YkR5MElUWS00ZzRvUWVYRm01cVJyd0xkR0VkcGFodDRUV201Qlo0eEgtdGdDMF9DN3VRa3FXN3pBNlI0SEFvWGRnTkc4SG1RcEoyeEpncGt2blZ0cEdsdXlzLXBoakk1UC12OFJRM2xsQmxZQmZqTXNKd0kzSXYtQl9kd0t0TTJmWXIzMkJRTGg0VjNxZlhvR0VxSU5WMzNqUnFXUlYzVktGYWhDaVlBbm5GVVMyMFk5TG5tcEF0aEYxdUllMk1QQXh1dHJiMHZuNEhUUEc0Z0lhZTBQU1RXVEZwUk9PaUw5VmJacnByY25HNVQ0ZnNUYVk5WW9xdXljR0pWV01tbmdiRGNNc3VKSEgyV0R0OG1GSm1WOGpMdEgySlJXdGVjNG80bk1rUHV2VTRSTG94RlRHWHNneVpDNGRzUEVCZ3lGZXRGZFRTTUVwbXlwcDdkYmM0YXN1YzFDckhYX1BvUHBiYThxMEVPVW94M19odlRqY2xlRkNWQlNubUJ5M2lhbTUyU2JvbzQ5T3YyNDJpd3FuSFhXR0hBTG45TWljWXI5cEVRdVhHWjdrZjU3RFQ2WF9USUVZNmNyQ0dRNDBRSVBiMng1UFR5TnE3SWlLY1lPZFBoU2FuR1V0OVRWQ0JWbzBNTk02U1RIRzMtQ3BEZE1RcEZDelU4ZTNFZWdjU1FHNWVkeTBTWlQwZFlRSUNhSkgxUF9ZeVlqOERFVlZjLTR2clRsWEtETkExQ28xaElPTlR3Y3VGdUZXZXp4U0ZGdE9TcHBRVDZSVi1oYnNaQjdtZFVSQkJBQm5QRmMwYmhFOVhGczZ3NzFyZEtVZml5WTFONGxaZGNyQWhSc19ZZTVibzhnZlVfQ2g5cllWcGtDOHZXWDl3VVU5OGhPeGY4WTlhRjFjVEZNc3lvUTdndU5TT3p6ckVFUHQ3dDlLekRyZGI5bGgybl85MG45NXMtaWJiUjZNOThXNTNITmFyRFVTRDVTSUtuazV3ekNyRTNuRFdNY0dHSWJzY0hEdm9tQUtPcFZNdEU0WHp5RmpRX2NRWnpuZDB2ZmhTdVVqQWRrYTJhWnI1Q3ROa0Q2dnJUUmNjZDlsaUZFRTRnRFpWdFZRWWtQeEszZVhQaXhpNW1uNnlmMXNMbkVXS3JTbVlKWEhyZmhDVXVycnhKbFZUc0plWkhVdmN3S3RQai11b2Z1N2VsV3dPTXB6TEUyY0NaSkxQZFVIRGM1ZlBWcEZ5UVJrcUh5TlRkY2FKdThQTjFBNnNSY2VoX3hSTDZNUUt5dVo4Q21GaEVJWkFFb3NqUWVJanV0NXExdHVMVlJxS0dKUzM4TWp1aEdPbGdjOE5YVXk5dzIyTVBpWWxic0RSd1FXT2Z4NjVWOW93cHZKa2JIUVctSmlfVlc5NWpYcWZ2ZWw5cl9EZW5aMTZqRllxLTdmdEVxd2ljeDMwamRQNEhMUk90cjhxTHhiY3hjSl9wbldzaXRKRzdoQTk4WUlWUmV1RFlhc2Qyc2VMM1pUREdHd1dCUFlTc1NzV0tmRHpxdzBIMWplNjhZUmlCQS1aNnhNWUtsZ2lGWWlWSXh1TkYtejhuOFVYLVM1S0hUdU1jZy1RYkZ2czM5OXZuZmE0Z2FIQTV6YUpfYnowbXB0Y3d1U1gxMjFXZ2llSjFhVGtLNWlySTVpNURsYllJcjhGZEdlUm5ydlRfM1FtUzcycWl2SnhlSm5iWU41NmFvcmpqS0xEX1ZhWHFGNEpoRGluUkIxc0xRc1p1d3FTbjZpM2cwc3BsOGdzblFHN0pvX1JQLVh4ZklBSlJCYXZUamFWaUxxRXk2aFhjalJWM01DQnVUNVB6c2R2cHMzTzVrc1pvUHpKX1E0OENqN1hjYVdLMTBPNHZITEVaWWE3UlNPaXNfcGVFcXlad19lcDNVSnNfbnBaZnJUZW1XcG1hQkE4Z3J6VHVnRERCeVpaUU9PQnlRYi1GcFpxRnhacUZ1YVBuM3hPdEJDdW1HNVFOUHRhNUk4WWtrVy1qeFNxbkdQTjhsUER3Q0JRd3UxeGJwNS1DUDVhck94bHF6aVRZWWcxMldSSDFDUTBLa0JtdGl2MjNWQnBLMHJsVVRRZHVTSFFKbDc1ZnlzRDhGbkdlcUs1X2VNWFhLWlQxRFdiX0NzRWRSalhEZ1pFY3U3bFpJUnljblhOTk1lZ3lSeUYwMl9tUkVsRS1uVUJaNkZ3N0Y2ODVYRjlDbXRXUTlSTnQ0ZXRaaGtOMEhkTlZzRm5GRmRfaEVOcHFldHhhaVRReFZrb3p0NWhWTG9VLWFNUWhMaGhPVWROVHRrSnktc3RBM3FGRmxfMXJ2X3hOT1QwZ3dITTRBa3pQSzVUTkhSbFR4d2xvMk9ESmFDclJDa3o2LVdBYl9OdEtaT1pDdWhOcUI5elpVX1RiQXZmLTNjTDRFclhmeVFFalQ3Sml6Ui1vWUxTUkxKSHdfcVpVWnJMd0luMnhsRVJnaXN2RXBGM3hmZUZkYURzS25Vb2cteklYQVNBUS1TempQR0VUc1Z2d01teGRQX2hJSk9ka1UtV1FhdlFPT2xrYnN6Qk41eXFlWkdUVlZoTm0wMF0tLT48L2c+PC9zdmc+;" vertex="1" parent="1">
            <mxGeometry x="-4310" y="-740" width="5410" height="885.97" as="geometry" />
          </mxCell>
        </UserObject>
      </root>
    </mxGraphModel>
  </diagram>
</mxfile>
